%TF.GenerationSoftware,KiCad,Pcbnew,(6.0.1)*%
%TF.CreationDate,2022-02-04T15:15:15+01:00*%
%TF.ProjectId,WLED_ESP8266_molex_microfit,574c4544-5f45-4535-9038-3236365f6d6f,rev?*%
%TF.SameCoordinates,Original*%
%TF.FileFunction,Copper,L2,Bot*%
%TF.FilePolarity,Positive*%
%FSLAX46Y46*%
G04 Gerber Fmt 4.6, Leading zero omitted, Abs format (unit mm)*
G04 Created by KiCad (PCBNEW (6.0.1)) date 2022-02-04 15:15:15*
%MOMM*%
%LPD*%
G01*
G04 APERTURE LIST*
G04 Aperture macros list*
%AMRoundRect*
0 Rectangle with rounded corners*
0 $1 Rounding radius*
0 $2 $3 $4 $5 $6 $7 $8 $9 X,Y pos of 4 corners*
0 Add a 4 corners polygon primitive as box body*
4,1,4,$2,$3,$4,$5,$6,$7,$8,$9,$2,$3,0*
0 Add four circle primitives for the rounded corners*
1,1,$1+$1,$2,$3*
1,1,$1+$1,$4,$5*
1,1,$1+$1,$6,$7*
1,1,$1+$1,$8,$9*
0 Add four rect primitives between the rounded corners*
20,1,$1+$1,$2,$3,$4,$5,0*
20,1,$1+$1,$4,$5,$6,$7,0*
20,1,$1+$1,$6,$7,$8,$9,0*
20,1,$1+$1,$8,$9,$2,$3,0*%
%AMFreePoly0*
4,1,22,0.550000,-0.750000,0.000000,-0.750000,0.000000,-0.745033,-0.079941,-0.743568,-0.215256,-0.701293,-0.333266,-0.622738,-0.424486,-0.514219,-0.481581,-0.384460,-0.499164,-0.250000,-0.500000,-0.250000,-0.500000,0.250000,-0.499164,0.250000,-0.499963,0.256109,-0.478152,0.396186,-0.417904,0.524511,-0.324060,0.630769,-0.204165,0.706417,-0.067858,0.745374,0.000000,0.744959,0.000000,0.750000,
0.550000,0.750000,0.550000,-0.750000,0.550000,-0.750000,$1*%
%AMFreePoly1*
4,1,20,0.000000,0.744959,0.073905,0.744508,0.209726,0.703889,0.328688,0.626782,0.421226,0.519385,0.479903,0.390333,0.500000,0.250000,0.500000,-0.250000,0.499851,-0.262216,0.476331,-0.402017,0.414519,-0.529596,0.319384,-0.634700,0.198574,-0.708877,0.061801,-0.746166,0.000000,-0.745033,0.000000,-0.750000,-0.550000,-0.750000,-0.550000,0.750000,0.000000,0.750000,0.000000,0.744959,
0.000000,0.744959,$1*%
%AMFreePoly2*
4,1,22,0.500000,-0.750000,0.000000,-0.750000,0.000000,-0.745033,-0.079941,-0.743568,-0.215256,-0.701293,-0.333266,-0.622738,-0.424486,-0.514219,-0.481581,-0.384460,-0.499164,-0.250000,-0.500000,-0.250000,-0.500000,0.250000,-0.499164,0.250000,-0.499963,0.256109,-0.478152,0.396186,-0.417904,0.524511,-0.324060,0.630769,-0.204165,0.706417,-0.067858,0.745374,0.000000,0.744959,0.000000,0.750000,
0.500000,0.750000,0.500000,-0.750000,0.500000,-0.750000,$1*%
%AMFreePoly3*
4,1,20,0.000000,0.744959,0.073905,0.744508,0.209726,0.703889,0.328688,0.626782,0.421226,0.519385,0.479903,0.390333,0.500000,0.250000,0.500000,-0.250000,0.499851,-0.262216,0.476331,-0.402017,0.414519,-0.529596,0.319384,-0.634700,0.198574,-0.708877,0.061801,-0.746166,0.000000,-0.745033,0.000000,-0.750000,-0.500000,-0.750000,-0.500000,0.750000,0.000000,0.750000,0.000000,0.744959,
0.000000,0.744959,$1*%
G04 Aperture macros list end*
%TA.AperFunction,ComponentPad*%
%ADD10C,0.430000*%
%TD*%
%TA.AperFunction,ComponentPad*%
%ADD11RoundRect,0.250001X0.759999X-0.499999X0.759999X0.499999X-0.759999X0.499999X-0.759999X-0.499999X0*%
%TD*%
%TA.AperFunction,ComponentPad*%
%ADD12O,2.020000X1.500000*%
%TD*%
%TA.AperFunction,ComponentPad*%
%ADD13R,1.700000X1.700000*%
%TD*%
%TA.AperFunction,ComponentPad*%
%ADD14O,1.700000X1.700000*%
%TD*%
%TA.AperFunction,ComponentPad*%
%ADD15RoundRect,0.250001X-0.759999X0.499999X-0.759999X-0.499999X0.759999X-0.499999X0.759999X0.499999X0*%
%TD*%
%TA.AperFunction,SMDPad,CuDef*%
%ADD16FreePoly0,0.000000*%
%TD*%
%TA.AperFunction,SMDPad,CuDef*%
%ADD17R,1.000000X1.500000*%
%TD*%
%TA.AperFunction,SMDPad,CuDef*%
%ADD18FreePoly1,0.000000*%
%TD*%
%TA.AperFunction,SMDPad,CuDef*%
%ADD19FreePoly2,180.000000*%
%TD*%
%TA.AperFunction,SMDPad,CuDef*%
%ADD20FreePoly3,180.000000*%
%TD*%
%TA.AperFunction,ViaPad*%
%ADD21C,0.800000*%
%TD*%
%TA.AperFunction,ViaPad*%
%ADD22C,1.000000*%
%TD*%
%TA.AperFunction,ViaPad*%
%ADD23C,2.000000*%
%TD*%
%TA.AperFunction,Conductor*%
%ADD24C,0.250000*%
%TD*%
%TA.AperFunction,Conductor*%
%ADD25C,2.000000*%
%TD*%
%TA.AperFunction,Conductor*%
%ADD26C,1.000000*%
%TD*%
%TA.AperFunction,Conductor*%
%ADD27C,2.500000*%
%TD*%
%TA.AperFunction,Conductor*%
%ADD28C,1.500000*%
%TD*%
G04 APERTURE END LIST*
D10*
%TO.P,U2,10*%
%TO.N,N/C*%
X135956000Y-122006000D03*
%TO.P,U2,11*%
X137256000Y-122006000D03*
%TO.P,U2,12*%
X135956000Y-123306000D03*
%TO.P,U2,13*%
X137256000Y-123306000D03*
%TO.P,U2,14*%
X135956000Y-124606000D03*
%TO.P,U2,15*%
X137256000Y-124606000D03*
%TD*%
D11*
%TO.P,J6,1,Pin_1*%
%TO.N,Net-(J6-Pad1)*%
X127106000Y-102056000D03*
D12*
%TO.P,J6,2,Pin_2*%
%TO.N,GND*%
X127106000Y-99056000D03*
%TD*%
D13*
%TO.P,J9,1,Pin_1*%
%TO.N,GND*%
X153656000Y-107556000D03*
D14*
%TO.P,J9,2,Pin_2*%
%TO.N,RX*%
X153656000Y-105016000D03*
%TO.P,J9,3,Pin_3*%
%TO.N,TX*%
X153656000Y-102476000D03*
%TO.P,J9,4,Pin_4*%
%TO.N,+3V3*%
X153656000Y-99936000D03*
%TD*%
D11*
%TO.P,J3,1,Pin_1*%
%TO.N,MOSFET_VOLTAGE*%
X127106000Y-91056000D03*
D12*
%TO.P,J3,2,Pin_2*%
%TO.N,/Q1_Drain*%
X127106000Y-88056000D03*
%TD*%
D15*
%TO.P,J2,1,Pin_1*%
%TO.N,+5V*%
X158886000Y-106556000D03*
D12*
%TO.P,J2,2,Pin_2*%
%TO.N,GND*%
X158886000Y-109556000D03*
%TO.P,J2,3,Pin_3*%
%TO.N,WS2812B_GPIO_0*%
X158886000Y-112556000D03*
%TD*%
D15*
%TO.P,J7,1,Pin_1*%
%TO.N,+5V*%
X158886000Y-76556000D03*
D12*
%TO.P,J7,2,Pin_2*%
%TO.N,GND*%
X158886000Y-79556000D03*
%TO.P,J7,3,Pin_3*%
%TO.N,WS2812B_GPIO_5*%
X158886000Y-82556000D03*
%TD*%
D15*
%TO.P,J8,1,Pin_1*%
%TO.N,+5V*%
X158886000Y-91556000D03*
D12*
%TO.P,J8,2,Pin_2*%
%TO.N,GND*%
X158886000Y-94556000D03*
%TO.P,J8,3,Pin_3*%
%TO.N,WS2812B_GPIO_4*%
X158886000Y-97556000D03*
%TD*%
D11*
%TO.P,J4,1,Pin_1*%
%TO.N,MOSFET_VOLTAGE*%
X127106000Y-79556000D03*
D12*
%TO.P,J4,2,Pin_2*%
%TO.N,/Q2_Drain*%
X127106000Y-76556000D03*
%TD*%
D11*
%TO.P,J1,1,Pin_1*%
%TO.N,GND*%
X127106000Y-116556000D03*
D12*
%TO.P,J1,2,Pin_2*%
%TO.N,VIN*%
X127106000Y-113556000D03*
%TD*%
D16*
%TO.P,JP5,1,A*%
%TO.N,ADC*%
X129006000Y-73556000D03*
D17*
%TO.P,JP5,2,C*%
%TO.N,Net-(J6-Pad1)*%
X130306000Y-73556000D03*
D18*
%TO.P,JP5,3,B*%
%TO.N,GPIO_14*%
X131606000Y-73556000D03*
%TD*%
D16*
%TO.P,JP4,1,A*%
%TO.N,+3V3*%
X119306000Y-92806000D03*
D17*
%TO.P,JP4,2,C*%
%TO.N,MOSFET_VOLTAGE*%
X120606000Y-92806000D03*
D18*
%TO.P,JP4,3,B*%
%TO.N,Net-(JP2-Pad2)*%
X121906000Y-92806000D03*
%TD*%
D16*
%TO.P,JP2,1,A*%
%TO.N,+5V*%
X119306000Y-96556000D03*
D17*
%TO.P,JP2,2,C*%
%TO.N,Net-(JP2-Pad2)*%
X120606000Y-96556000D03*
D18*
%TO.P,JP2,3,B*%
%TO.N,VIN_F*%
X121906000Y-96556000D03*
%TD*%
D19*
%TO.P,JP3,1,A*%
%TO.N,GPIO_0*%
X143006000Y-82556000D03*
D20*
%TO.P,JP3,2,B*%
%TO.N,GND*%
X141706000Y-82556000D03*
%TD*%
D21*
%TO.N,GND*%
X166356000Y-123556000D03*
D22*
X148606000Y-111306000D03*
X138356000Y-115806000D03*
X132856000Y-114556000D03*
X133606000Y-102306000D03*
X133606000Y-111306000D03*
X134856000Y-118556000D03*
D21*
X119248980Y-121537222D03*
D22*
X151606000Y-102306000D03*
D21*
X135456000Y-128156000D03*
X135656000Y-95956000D03*
X130656000Y-128956000D03*
D22*
X156956000Y-94056000D03*
D21*
X124556000Y-129356000D03*
D22*
X138356000Y-117806000D03*
D21*
X141056000Y-129256000D03*
D22*
X139356000Y-84056000D03*
X145556000Y-98856000D03*
X142606000Y-105306000D03*
D21*
X130556000Y-95956000D03*
D22*
X156756000Y-103156000D03*
X160556000Y-72256000D03*
X136356000Y-84056000D03*
X136606000Y-105306000D03*
X151606000Y-111306000D03*
X130106000Y-114556000D03*
X156856000Y-108356000D03*
X166056000Y-71656000D03*
X145606000Y-105306000D03*
X136606000Y-102306000D03*
X133606000Y-108306000D03*
X124106000Y-74306000D03*
X148606000Y-105306000D03*
X130606000Y-102306000D03*
X156756000Y-98756000D03*
X148606000Y-102306000D03*
X136606000Y-111306000D03*
D21*
X119356000Y-123056000D03*
X154356000Y-86556000D03*
X136606000Y-74806000D03*
X139856000Y-93356000D03*
D22*
X148606000Y-108306000D03*
X139606000Y-102306000D03*
X139356000Y-81056000D03*
X151606000Y-108306000D03*
X129756000Y-111956000D03*
X145606000Y-102306000D03*
X150556000Y-72256000D03*
X145606000Y-111306000D03*
X142606000Y-102306000D03*
D21*
X154856000Y-75806000D03*
D22*
X145606000Y-108306000D03*
X138356000Y-114056000D03*
X139606000Y-111306000D03*
X133606000Y-105306000D03*
X139606000Y-108306000D03*
X156756000Y-86456000D03*
X142606000Y-111306000D03*
D21*
X152656000Y-96556000D03*
D22*
X151606000Y-105306000D03*
X136856000Y-118806000D03*
X139606000Y-105306000D03*
X156456000Y-83656000D03*
X136606000Y-108306000D03*
X121106000Y-74306000D03*
X142606000Y-108306000D03*
D21*
X137656000Y-128656000D03*
X137356000Y-126956000D03*
D22*
X136356000Y-81056000D03*
X132856000Y-117306000D03*
X130106000Y-117306000D03*
X156756000Y-88156000D03*
X153456000Y-71156000D03*
X130606000Y-105306000D03*
D21*
%TO.N,+5V*%
X153106000Y-82806000D03*
D23*
X149106000Y-94056000D03*
D21*
X154106000Y-76806000D03*
X153856000Y-92806000D03*
X119356000Y-98306000D03*
%TO.N,+3V3*%
X149856000Y-82556000D03*
X149856000Y-92056000D03*
X149856000Y-76556000D03*
X119356000Y-93956000D03*
X152856000Y-75056000D03*
D23*
%TO.N,VIN*%
X126106000Y-107806000D03*
D21*
%TO.N,ADC*%
X128606000Y-67056000D03*
D22*
%TO.N,/Q2_Drain*%
X136606000Y-91556000D03*
X136606000Y-92806000D03*
D21*
%TO.N,TX*%
X144356000Y-73806000D03*
%TO.N,RX*%
X142856000Y-78056000D03*
%TO.N,GPIO_14*%
X133606000Y-79556000D03*
D22*
%TO.N,/Q1_Drain*%
X130606000Y-91306000D03*
X130606000Y-90056000D03*
X130606000Y-92556000D03*
D21*
%TO.N,GPIO_0*%
X144656000Y-82056000D03*
D22*
%TO.N,VIN_F*%
X126606000Y-122806000D03*
X126606000Y-121806000D03*
X126606000Y-120806000D03*
%TO.N,MOSFET_VOLTAGE*%
X119856000Y-86306000D03*
X120231000Y-84931000D03*
X121231000Y-83931000D03*
X122606000Y-83806000D03*
D21*
%TO.N,EN*%
X148356000Y-73056000D03*
X135356000Y-74056000D03*
%TO.N,RST*%
X148856000Y-72056000D03*
X133356000Y-74056000D03*
%TO.N,Net-(C4-Pad1)*%
X133856000Y-120056000D03*
X138606000Y-120056000D03*
%TO.N,Net-(C12-Pad2)*%
X147356000Y-125556000D03*
X147356000Y-127556000D03*
%TD*%
D24*
%TO.N,Net-(J6-Pad1)*%
X124856000Y-100556000D02*
X126356000Y-102056000D01*
X124856000Y-75806000D02*
X124856000Y-100556000D01*
X126356000Y-102056000D02*
X127106000Y-102056000D01*
X125856000Y-74806000D02*
X124856000Y-75806000D01*
X130306000Y-73556000D02*
X130306000Y-74606000D01*
X130306000Y-74606000D02*
X130106000Y-74806000D01*
X130106000Y-74806000D02*
X125856000Y-74806000D01*
D25*
%TO.N,+5V*%
X149106000Y-94056000D02*
X152606000Y-94056000D01*
D24*
X153106000Y-82806000D02*
X153606000Y-82306000D01*
X153606000Y-78806000D02*
X153606000Y-77306000D01*
D26*
X119306000Y-98256000D02*
X119356000Y-98306000D01*
D24*
X153606000Y-82306000D02*
X153606000Y-78806000D01*
D26*
X119306000Y-96556000D02*
X119306000Y-98256000D01*
D25*
X152606000Y-94056000D02*
X153856000Y-92806000D01*
X158886000Y-91556000D02*
X157356000Y-91556000D01*
X155106000Y-91556000D02*
X157356000Y-91556000D01*
X153856000Y-92806000D02*
X155106000Y-91556000D01*
D24*
X153606000Y-77306000D02*
X154106000Y-76806000D01*
%TO.N,+3V3*%
X119356000Y-93956000D02*
X119356000Y-92856000D01*
X149856000Y-76556000D02*
X149856000Y-82556000D01*
X149856000Y-91056000D02*
X149856000Y-92056000D01*
X150856000Y-75056000D02*
X149856000Y-76056000D01*
X119356000Y-92856000D02*
X119306000Y-92806000D01*
X149856000Y-82556000D02*
X149856000Y-91056000D01*
X152856000Y-75056000D02*
X150856000Y-75056000D01*
X149856000Y-76056000D02*
X149856000Y-76556000D01*
D25*
%TO.N,VIN*%
X126106000Y-112556000D02*
X127106000Y-113556000D01*
X126106000Y-107806000D02*
X126106000Y-112556000D01*
D24*
%TO.N,ADC*%
X129006000Y-72456000D02*
X129006000Y-73556000D01*
X128606000Y-67056000D02*
X128606000Y-72056000D01*
X128606000Y-72056000D02*
X129006000Y-72456000D01*
%TO.N,TX*%
X144106000Y-73806000D02*
X143856000Y-74056000D01*
X145856000Y-95356000D02*
X147156000Y-96656000D01*
X152536000Y-101356000D02*
X153656000Y-102476000D01*
X147156000Y-96656000D02*
X149556000Y-96656000D01*
X144256000Y-79756000D02*
X145156000Y-79756000D01*
X146756000Y-81356000D02*
X146756000Y-83856000D01*
X145156000Y-79756000D02*
X146756000Y-81356000D01*
X143856000Y-79356000D02*
X144256000Y-79756000D01*
X146756000Y-83856000D02*
X145856000Y-84756000D01*
X143856000Y-74056000D02*
X143856000Y-79356000D01*
X144356000Y-73806000D02*
X144106000Y-73806000D01*
X145856000Y-84756000D02*
X145856000Y-95356000D01*
X149556000Y-96656000D02*
X150756000Y-97856000D01*
X150756000Y-97856000D02*
X150756000Y-100356000D01*
X150756000Y-100356000D02*
X151756000Y-101356000D01*
X151756000Y-101356000D02*
X152536000Y-101356000D01*
%TO.N,RX*%
X143756000Y-80356000D02*
X142856000Y-79456000D01*
X145256000Y-84556000D02*
X146056000Y-83756000D01*
X142856000Y-79456000D02*
X142856000Y-78056000D01*
X146056000Y-81556000D02*
X144856000Y-80356000D01*
X153149964Y-105016000D02*
X152089964Y-103956000D01*
X152089964Y-103956000D02*
X150656000Y-103956000D01*
X153656000Y-105016000D02*
X153149964Y-105016000D01*
X145256000Y-95656000D02*
X145256000Y-84556000D01*
X150156000Y-98156000D02*
X149256000Y-97256000D01*
X146856000Y-97256000D02*
X145256000Y-95656000D01*
X150656000Y-103956000D02*
X150156000Y-103456000D01*
X146056000Y-83756000D02*
X146056000Y-81556000D01*
X149256000Y-97256000D02*
X146856000Y-97256000D01*
X150156000Y-103456000D02*
X150156000Y-98156000D01*
X144856000Y-80356000D02*
X143756000Y-80356000D01*
%TO.N,GPIO_14*%
X132606000Y-75306000D02*
X131606000Y-74306000D01*
X133606000Y-75556000D02*
X133356000Y-75306000D01*
X133356000Y-75306000D02*
X132606000Y-75306000D01*
X133606000Y-79556000D02*
X133606000Y-75556000D01*
X131606000Y-74306000D02*
X131606000Y-73556000D01*
%TO.N,GPIO_0*%
X143006000Y-82556000D02*
X144106000Y-82556000D01*
X144606000Y-82056000D02*
X144106000Y-82556000D01*
X144656000Y-82056000D02*
X144606000Y-82056000D01*
D26*
%TO.N,VIN_F*%
X119786479Y-100125521D02*
X121906000Y-98006000D01*
X121906000Y-98006000D02*
X121906000Y-96556000D01*
X119786479Y-101875521D02*
X119786479Y-100125521D01*
D27*
X126606000Y-121806000D02*
X125294036Y-121806000D01*
X119786479Y-116298443D02*
X119786479Y-101875521D01*
X125294036Y-121806000D02*
X119786479Y-116298443D01*
X126606000Y-122806000D02*
X126606000Y-120806000D01*
D26*
%TO.N,MOSFET_VOLTAGE*%
X120606000Y-92806000D02*
X120606000Y-90557304D01*
D28*
X119856000Y-89807304D02*
X119856000Y-86306000D01*
D26*
X120606000Y-90557304D02*
X119856000Y-89807304D01*
%TO.N,Net-(JP2-Pad2)*%
X121906000Y-94006000D02*
X121906000Y-92806000D01*
X120606000Y-95306000D02*
X121906000Y-94006000D01*
X120606000Y-96556000D02*
X120606000Y-95306000D01*
D24*
%TO.N,EN*%
X135606000Y-73806000D02*
X135356000Y-74056000D01*
X141356000Y-73806000D02*
X135606000Y-73806000D01*
X144856000Y-72806000D02*
X143856000Y-72806000D01*
X148356000Y-73056000D02*
X145106000Y-73056000D01*
X142856000Y-73806000D02*
X141356000Y-73806000D01*
X143856000Y-72806000D02*
X143606000Y-73056000D01*
X143606000Y-73056000D02*
X142856000Y-73806000D01*
X145106000Y-73056000D02*
X144856000Y-72806000D01*
%TO.N,RST*%
X143606000Y-72306000D02*
X142606000Y-73306000D01*
X134106000Y-73306000D02*
X133356000Y-74056000D01*
X148606000Y-72306000D02*
X143606000Y-72306000D01*
X148856000Y-72056000D02*
X148606000Y-72306000D01*
X142606000Y-73306000D02*
X134106000Y-73306000D01*
%TO.N,Net-(C4-Pad1)*%
X133856000Y-120056000D02*
X138606000Y-120056000D01*
%TO.N,Net-(C12-Pad2)*%
X147356000Y-125556000D02*
X147356000Y-127556000D01*
%TD*%
%TA.AperFunction,Conductor*%
%TO.N,GND*%
G36*
X167290121Y-66084002D02*
G01*
X167336614Y-66137658D01*
X167348000Y-66190000D01*
X167348000Y-129922000D01*
X167327998Y-129990121D01*
X167274342Y-130036614D01*
X167222000Y-130048000D01*
X118490000Y-130048000D01*
X118421879Y-130027998D01*
X118375386Y-129974342D01*
X118364000Y-129922000D01*
X118364000Y-126688703D01*
X119746743Y-126688703D01*
X119784268Y-126973734D01*
X119860129Y-127251036D01*
X119861813Y-127254984D01*
X119906519Y-127359794D01*
X119972923Y-127515476D01*
X119984693Y-127535142D01*
X120110846Y-127745928D01*
X120120561Y-127762161D01*
X120300313Y-127986528D01*
X120508851Y-128184423D01*
X120742317Y-128352186D01*
X120746112Y-128354195D01*
X120746113Y-128354196D01*
X120767869Y-128365715D01*
X120996392Y-128486712D01*
X121266373Y-128585511D01*
X121547264Y-128646755D01*
X121575841Y-128649004D01*
X121770282Y-128664307D01*
X121770291Y-128664307D01*
X121772739Y-128664500D01*
X121928271Y-128664500D01*
X121930407Y-128664354D01*
X121930418Y-128664354D01*
X122138548Y-128650165D01*
X122138554Y-128650164D01*
X122142825Y-128649873D01*
X122147020Y-128649004D01*
X122147022Y-128649004D01*
X122283584Y-128620723D01*
X122424342Y-128591574D01*
X122695343Y-128495607D01*
X122950812Y-128363750D01*
X122954313Y-128361289D01*
X122954317Y-128361287D01*
X123141183Y-128229955D01*
X123186023Y-128198441D01*
X123264403Y-128125606D01*
X123393479Y-128005661D01*
X123393481Y-128005658D01*
X123396622Y-128002740D01*
X123578713Y-127780268D01*
X123716145Y-127556000D01*
X146442496Y-127556000D01*
X146462458Y-127745928D01*
X146521473Y-127927556D01*
X146616960Y-128092944D01*
X146621378Y-128097851D01*
X146621379Y-128097852D01*
X146740325Y-128229955D01*
X146744747Y-128234866D01*
X146899248Y-128347118D01*
X146905276Y-128349802D01*
X146905278Y-128349803D01*
X147067681Y-128422109D01*
X147073712Y-128424794D01*
X147167113Y-128444647D01*
X147254056Y-128463128D01*
X147254061Y-128463128D01*
X147260513Y-128464500D01*
X147451487Y-128464500D01*
X147457939Y-128463128D01*
X147457944Y-128463128D01*
X147544887Y-128444647D01*
X147638288Y-128424794D01*
X147644319Y-128422109D01*
X147806722Y-128349803D01*
X147806724Y-128349802D01*
X147812752Y-128347118D01*
X147967253Y-128234866D01*
X147971675Y-128229955D01*
X148090621Y-128097852D01*
X148090622Y-128097851D01*
X148095040Y-128092944D01*
X148190527Y-127927556D01*
X148249542Y-127745928D01*
X148269504Y-127556000D01*
X148249542Y-127366072D01*
X148190527Y-127184444D01*
X148095040Y-127019056D01*
X148021863Y-126937785D01*
X147991147Y-126873779D01*
X147989500Y-126853476D01*
X147989500Y-126688703D01*
X161746743Y-126688703D01*
X161784268Y-126973734D01*
X161860129Y-127251036D01*
X161861813Y-127254984D01*
X161906519Y-127359794D01*
X161972923Y-127515476D01*
X161984693Y-127535142D01*
X162110846Y-127745928D01*
X162120561Y-127762161D01*
X162300313Y-127986528D01*
X162508851Y-128184423D01*
X162742317Y-128352186D01*
X162746112Y-128354195D01*
X162746113Y-128354196D01*
X162767869Y-128365715D01*
X162996392Y-128486712D01*
X163266373Y-128585511D01*
X163547264Y-128646755D01*
X163575841Y-128649004D01*
X163770282Y-128664307D01*
X163770291Y-128664307D01*
X163772739Y-128664500D01*
X163928271Y-128664500D01*
X163930407Y-128664354D01*
X163930418Y-128664354D01*
X164138548Y-128650165D01*
X164138554Y-128650164D01*
X164142825Y-128649873D01*
X164147020Y-128649004D01*
X164147022Y-128649004D01*
X164283584Y-128620723D01*
X164424342Y-128591574D01*
X164695343Y-128495607D01*
X164950812Y-128363750D01*
X164954313Y-128361289D01*
X164954317Y-128361287D01*
X165141183Y-128229955D01*
X165186023Y-128198441D01*
X165264403Y-128125606D01*
X165393479Y-128005661D01*
X165393481Y-128005658D01*
X165396622Y-128002740D01*
X165578713Y-127780268D01*
X165728927Y-127535142D01*
X165844483Y-127271898D01*
X165923244Y-126995406D01*
X165963751Y-126710784D01*
X165963845Y-126692951D01*
X165965235Y-126427583D01*
X165965235Y-126427576D01*
X165965257Y-126423297D01*
X165927732Y-126138266D01*
X165851871Y-125860964D01*
X165841295Y-125836170D01*
X165740763Y-125600476D01*
X165740761Y-125600472D01*
X165739077Y-125596524D01*
X165605082Y-125372635D01*
X165593643Y-125353521D01*
X165593640Y-125353517D01*
X165591439Y-125349839D01*
X165411687Y-125125472D01*
X165288289Y-125008372D01*
X165206258Y-124930527D01*
X165206255Y-124930525D01*
X165203149Y-124927577D01*
X165007608Y-124787066D01*
X164973172Y-124762321D01*
X164973171Y-124762320D01*
X164969683Y-124759814D01*
X164965079Y-124757376D01*
X164924654Y-124735972D01*
X164715608Y-124625288D01*
X164542581Y-124561969D01*
X164449658Y-124527964D01*
X164449656Y-124527963D01*
X164445627Y-124526489D01*
X164164736Y-124465245D01*
X164133685Y-124462801D01*
X163941718Y-124447693D01*
X163941709Y-124447693D01*
X163939261Y-124447500D01*
X163783729Y-124447500D01*
X163781593Y-124447646D01*
X163781582Y-124447646D01*
X163573452Y-124461835D01*
X163573446Y-124461836D01*
X163569175Y-124462127D01*
X163564980Y-124462996D01*
X163564978Y-124462996D01*
X163428416Y-124491277D01*
X163287658Y-124520426D01*
X163016657Y-124616393D01*
X162761188Y-124748250D01*
X162757687Y-124750711D01*
X162757683Y-124750713D01*
X162705958Y-124787066D01*
X162525977Y-124913559D01*
X162510892Y-124927577D01*
X162350882Y-125076268D01*
X162315378Y-125109260D01*
X162133287Y-125331732D01*
X161983073Y-125576858D01*
X161867517Y-125840102D01*
X161788756Y-126116594D01*
X161748249Y-126401216D01*
X161748227Y-126405505D01*
X161748226Y-126405512D01*
X161746765Y-126684417D01*
X161746743Y-126688703D01*
X147989500Y-126688703D01*
X147989500Y-126258524D01*
X148009502Y-126190403D01*
X148021858Y-126174221D01*
X148095040Y-126092944D01*
X148190527Y-125927556D01*
X148249542Y-125745928D01*
X148269504Y-125556000D01*
X148249542Y-125366072D01*
X148190527Y-125184444D01*
X148095040Y-125019056D01*
X148002679Y-124916478D01*
X147971675Y-124882045D01*
X147971674Y-124882044D01*
X147967253Y-124877134D01*
X147843286Y-124787066D01*
X147818094Y-124768763D01*
X147818093Y-124768762D01*
X147812752Y-124764882D01*
X147806724Y-124762198D01*
X147806722Y-124762197D01*
X147644319Y-124689891D01*
X147644318Y-124689891D01*
X147638288Y-124687206D01*
X147544888Y-124667353D01*
X147457944Y-124648872D01*
X147457939Y-124648872D01*
X147451487Y-124647500D01*
X147260513Y-124647500D01*
X147254061Y-124648872D01*
X147254056Y-124648872D01*
X147167112Y-124667353D01*
X147073712Y-124687206D01*
X147067682Y-124689891D01*
X147067681Y-124689891D01*
X146905278Y-124762197D01*
X146905276Y-124762198D01*
X146899248Y-124764882D01*
X146893907Y-124768762D01*
X146893906Y-124768763D01*
X146868714Y-124787066D01*
X146744747Y-124877134D01*
X146740326Y-124882044D01*
X146740325Y-124882045D01*
X146709322Y-124916478D01*
X146616960Y-125019056D01*
X146521473Y-125184444D01*
X146462458Y-125366072D01*
X146442496Y-125556000D01*
X146462458Y-125745928D01*
X146521473Y-125927556D01*
X146616960Y-126092944D01*
X146690137Y-126174215D01*
X146720853Y-126238221D01*
X146722500Y-126258524D01*
X146722500Y-126853476D01*
X146702498Y-126921597D01*
X146690142Y-126937779D01*
X146616960Y-127019056D01*
X146521473Y-127184444D01*
X146462458Y-127366072D01*
X146442496Y-127556000D01*
X123716145Y-127556000D01*
X123728927Y-127535142D01*
X123844483Y-127271898D01*
X123923244Y-126995406D01*
X123963751Y-126710784D01*
X123963845Y-126692951D01*
X123965235Y-126427583D01*
X123965235Y-126427576D01*
X123965257Y-126423297D01*
X123927732Y-126138266D01*
X123851871Y-125860964D01*
X123841295Y-125836170D01*
X123740763Y-125600476D01*
X123740761Y-125600472D01*
X123739077Y-125596524D01*
X123605082Y-125372635D01*
X123593643Y-125353521D01*
X123593640Y-125353517D01*
X123591439Y-125349839D01*
X123411687Y-125125472D01*
X123288289Y-125008372D01*
X123206258Y-124930527D01*
X123206255Y-124930525D01*
X123203149Y-124927577D01*
X123007608Y-124787066D01*
X122973172Y-124762321D01*
X122973171Y-124762320D01*
X122969683Y-124759814D01*
X122965079Y-124757376D01*
X122924654Y-124735972D01*
X122715608Y-124625288D01*
X122635121Y-124595834D01*
X135227993Y-124595834D01*
X135243832Y-124757376D01*
X135295067Y-124911394D01*
X135298714Y-124917416D01*
X135298715Y-124917418D01*
X135360270Y-125019056D01*
X135379151Y-125050233D01*
X135491906Y-125166994D01*
X135627726Y-125255872D01*
X135634330Y-125258328D01*
X135634332Y-125258329D01*
X135703794Y-125284162D01*
X135779862Y-125312451D01*
X135940752Y-125333918D01*
X135947763Y-125333280D01*
X135947767Y-125333280D01*
X136095379Y-125319846D01*
X136102400Y-125319207D01*
X136109100Y-125317030D01*
X136109105Y-125317029D01*
X136250073Y-125271226D01*
X136250076Y-125271225D01*
X136256772Y-125269049D01*
X136396195Y-125185936D01*
X136459689Y-125125472D01*
X136508636Y-125078861D01*
X136508638Y-125078858D01*
X136513740Y-125074000D01*
X136513926Y-125074195D01*
X136569918Y-125036938D01*
X136640905Y-125035807D01*
X136697975Y-125069726D01*
X136702291Y-125074195D01*
X136791906Y-125166994D01*
X136927726Y-125255872D01*
X136934330Y-125258328D01*
X136934332Y-125258329D01*
X137003794Y-125284162D01*
X137079862Y-125312451D01*
X137240752Y-125333918D01*
X137247763Y-125333280D01*
X137247767Y-125333280D01*
X137395379Y-125319846D01*
X137402400Y-125319207D01*
X137409100Y-125317030D01*
X137409105Y-125317029D01*
X137550073Y-125271226D01*
X137550076Y-125271225D01*
X137556772Y-125269049D01*
X137696195Y-125185936D01*
X137813740Y-125074000D01*
X137903564Y-124938803D01*
X137961204Y-124787066D01*
X137965034Y-124759814D01*
X137983243Y-124630252D01*
X137983243Y-124630247D01*
X137983794Y-124626329D01*
X137984078Y-124606000D01*
X137974351Y-124519280D01*
X137966770Y-124451691D01*
X137966769Y-124451689D01*
X137965985Y-124444695D01*
X137912604Y-124291408D01*
X137842434Y-124179111D01*
X137830323Y-124159730D01*
X137826590Y-124153756D01*
X137717184Y-124043584D01*
X137683377Y-123981154D01*
X137688689Y-123910356D01*
X137719697Y-123863555D01*
X137813740Y-123774000D01*
X137903564Y-123638803D01*
X137961204Y-123487066D01*
X137962436Y-123478303D01*
X137983243Y-123330252D01*
X137983243Y-123330247D01*
X137983794Y-123326329D01*
X137984078Y-123306000D01*
X137965985Y-123144695D01*
X137912604Y-122991408D01*
X137826590Y-122853756D01*
X137717184Y-122743584D01*
X137683377Y-122681154D01*
X137688689Y-122610356D01*
X137719697Y-122563555D01*
X137813740Y-122474000D01*
X137903564Y-122338803D01*
X137961204Y-122187066D01*
X137983794Y-122026329D01*
X137984078Y-122006000D01*
X137965985Y-121844695D01*
X137912604Y-121691408D01*
X137826590Y-121553756D01*
X137769162Y-121495926D01*
X137717179Y-121443578D01*
X137717175Y-121443575D01*
X137712216Y-121438581D01*
X137575168Y-121351608D01*
X137548373Y-121342067D01*
X137428892Y-121299521D01*
X137428887Y-121299520D01*
X137422257Y-121297159D01*
X137415269Y-121296326D01*
X137415266Y-121296325D01*
X137306193Y-121283319D01*
X137261083Y-121277940D01*
X137254080Y-121278676D01*
X137254079Y-121278676D01*
X137106664Y-121294169D01*
X137106660Y-121294170D01*
X137099656Y-121294906D01*
X136945999Y-121347215D01*
X136807750Y-121432267D01*
X136693440Y-121544208D01*
X136630776Y-121577578D01*
X136560017Y-121571772D01*
X136515877Y-121542968D01*
X136417179Y-121443578D01*
X136417175Y-121443575D01*
X136412216Y-121438581D01*
X136275168Y-121351608D01*
X136248373Y-121342067D01*
X136128892Y-121299521D01*
X136128887Y-121299520D01*
X136122257Y-121297159D01*
X136115269Y-121296326D01*
X136115266Y-121296325D01*
X136006193Y-121283319D01*
X135961083Y-121277940D01*
X135954080Y-121278676D01*
X135954079Y-121278676D01*
X135806664Y-121294169D01*
X135806660Y-121294170D01*
X135799656Y-121294906D01*
X135645999Y-121347215D01*
X135507750Y-121432267D01*
X135391780Y-121545833D01*
X135303852Y-121682271D01*
X135301441Y-121688894D01*
X135301440Y-121688897D01*
X135250747Y-121828175D01*
X135250746Y-121828180D01*
X135248337Y-121834798D01*
X135227993Y-121995834D01*
X135243832Y-122157376D01*
X135295067Y-122311394D01*
X135298714Y-122317416D01*
X135298715Y-122317418D01*
X135311667Y-122338803D01*
X135379151Y-122450233D01*
X135404293Y-122476268D01*
X135491906Y-122566994D01*
X135490404Y-122568445D01*
X135524458Y-122618862D01*
X135526082Y-122689840D01*
X135492564Y-122747138D01*
X135391780Y-122845833D01*
X135303852Y-122982271D01*
X135301441Y-122988894D01*
X135301440Y-122988897D01*
X135250747Y-123128175D01*
X135250746Y-123128180D01*
X135248337Y-123134798D01*
X135227993Y-123295834D01*
X135243832Y-123457376D01*
X135295067Y-123611394D01*
X135298714Y-123617416D01*
X135298715Y-123617418D01*
X135311667Y-123638803D01*
X135379151Y-123750233D01*
X135404293Y-123776268D01*
X135491906Y-123866994D01*
X135490404Y-123868445D01*
X135524458Y-123918862D01*
X135526082Y-123989840D01*
X135492564Y-124047138D01*
X135391780Y-124145833D01*
X135303852Y-124282271D01*
X135301441Y-124288894D01*
X135301440Y-124288897D01*
X135250747Y-124428175D01*
X135250746Y-124428180D01*
X135248337Y-124434798D01*
X135227993Y-124595834D01*
X122635121Y-124595834D01*
X122542581Y-124561969D01*
X122449658Y-124527964D01*
X122449656Y-124527963D01*
X122445627Y-124526489D01*
X122164736Y-124465245D01*
X122133685Y-124462801D01*
X121941718Y-124447693D01*
X121941709Y-124447693D01*
X121939261Y-124447500D01*
X121783729Y-124447500D01*
X121781593Y-124447646D01*
X121781582Y-124447646D01*
X121573452Y-124461835D01*
X121573446Y-124461836D01*
X121569175Y-124462127D01*
X121564980Y-124462996D01*
X121564978Y-124462996D01*
X121428416Y-124491277D01*
X121287658Y-124520426D01*
X121016657Y-124616393D01*
X120761188Y-124748250D01*
X120757687Y-124750711D01*
X120757683Y-124750713D01*
X120705958Y-124787066D01*
X120525977Y-124913559D01*
X120510892Y-124927577D01*
X120350882Y-125076268D01*
X120315378Y-125109260D01*
X120133287Y-125331732D01*
X119983073Y-125576858D01*
X119867517Y-125840102D01*
X119788756Y-126116594D01*
X119748249Y-126401216D01*
X119748227Y-126405505D01*
X119748226Y-126405512D01*
X119746765Y-126684417D01*
X119746743Y-126688703D01*
X118364000Y-126688703D01*
X118364000Y-117667049D01*
X118384002Y-117598928D01*
X118437658Y-117552435D01*
X118507932Y-117542331D01*
X118572512Y-117571825D01*
X118579095Y-117577954D01*
X124011763Y-123010622D01*
X124016671Y-123015816D01*
X124069054Y-123074506D01*
X124072648Y-123077495D01*
X124072653Y-123077500D01*
X124156909Y-123147575D01*
X124158573Y-123148983D01*
X124245108Y-123223546D01*
X124249061Y-123226040D01*
X124251161Y-123227365D01*
X124264485Y-123237045D01*
X124270006Y-123241637D01*
X124274005Y-123244063D01*
X124274011Y-123244068D01*
X124367741Y-123300946D01*
X124369610Y-123302102D01*
X124414226Y-123330252D01*
X124466156Y-123363017D01*
X124470433Y-123364899D01*
X124470437Y-123364901D01*
X124472714Y-123365903D01*
X124487322Y-123373507D01*
X124493455Y-123377229D01*
X124497757Y-123379033D01*
X124497761Y-123379035D01*
X124598814Y-123421410D01*
X124600834Y-123422278D01*
X124647266Y-123442709D01*
X124705391Y-123468284D01*
X124709898Y-123469513D01*
X124709907Y-123469516D01*
X124712307Y-123470170D01*
X124727884Y-123475533D01*
X124734491Y-123478303D01*
X124739019Y-123479453D01*
X124739022Y-123479454D01*
X124845209Y-123506422D01*
X124847335Y-123506982D01*
X124955428Y-123536452D01*
X125015889Y-123573668D01*
X125031679Y-123595492D01*
X125059789Y-123644674D01*
X125144049Y-123792098D01*
X125305862Y-123997357D01*
X125496237Y-124176443D01*
X125640243Y-124276344D01*
X125671551Y-124298063D01*
X125710991Y-124325424D01*
X125715181Y-124327490D01*
X125715184Y-124327492D01*
X125941219Y-124438960D01*
X125941222Y-124438961D01*
X125945407Y-124441025D01*
X125949850Y-124442447D01*
X125949852Y-124442448D01*
X126023923Y-124466158D01*
X126194335Y-124520707D01*
X126452307Y-124562721D01*
X126566058Y-124564210D01*
X126708978Y-124566081D01*
X126708981Y-124566081D01*
X126713655Y-124566142D01*
X126972638Y-124530896D01*
X126982698Y-124527964D01*
X127044664Y-124509902D01*
X127223567Y-124457757D01*
X127245398Y-124447693D01*
X127287735Y-124428175D01*
X127460928Y-124348332D01*
X127547752Y-124291408D01*
X127675596Y-124207590D01*
X127675601Y-124207586D01*
X127679509Y-124205024D01*
X127874506Y-124030982D01*
X128041637Y-123830030D01*
X128074994Y-123775059D01*
X128174804Y-123610578D01*
X128174806Y-123610574D01*
X128177229Y-123606581D01*
X128278303Y-123365545D01*
X128342641Y-123112217D01*
X128355408Y-122985432D01*
X128364184Y-122898271D01*
X128364500Y-122895133D01*
X128364500Y-121824595D01*
X128364511Y-121822946D01*
X128366081Y-121703022D01*
X128366081Y-121703019D01*
X128366142Y-121698345D01*
X128365511Y-121693712D01*
X128365226Y-121689046D01*
X128365265Y-121689044D01*
X128364500Y-121677746D01*
X128364500Y-120739646D01*
X128361104Y-120693949D01*
X128350407Y-120550000D01*
X128350406Y-120549996D01*
X128350061Y-120545348D01*
X128292377Y-120290423D01*
X128290684Y-120286069D01*
X128201216Y-120056000D01*
X132942496Y-120056000D01*
X132962458Y-120245928D01*
X133021473Y-120427556D01*
X133116960Y-120592944D01*
X133244747Y-120734866D01*
X133399248Y-120847118D01*
X133405276Y-120849802D01*
X133405278Y-120849803D01*
X133567681Y-120922109D01*
X133573712Y-120924794D01*
X133667112Y-120944647D01*
X133754056Y-120963128D01*
X133754061Y-120963128D01*
X133760513Y-120964500D01*
X133951487Y-120964500D01*
X133957939Y-120963128D01*
X133957944Y-120963128D01*
X134044888Y-120944647D01*
X134138288Y-120924794D01*
X134144319Y-120922109D01*
X134306722Y-120849803D01*
X134306724Y-120849802D01*
X134312752Y-120847118D01*
X134467253Y-120734866D01*
X134471668Y-120729963D01*
X134476580Y-120725540D01*
X134477705Y-120726789D01*
X134531014Y-120693949D01*
X134564200Y-120689500D01*
X137897800Y-120689500D01*
X137965921Y-120709502D01*
X137985147Y-120725843D01*
X137985420Y-120725540D01*
X137990332Y-120729963D01*
X137994747Y-120734866D01*
X138149248Y-120847118D01*
X138155276Y-120849802D01*
X138155278Y-120849803D01*
X138317681Y-120922109D01*
X138323712Y-120924794D01*
X138417112Y-120944647D01*
X138504056Y-120963128D01*
X138504061Y-120963128D01*
X138510513Y-120964500D01*
X138701487Y-120964500D01*
X138707939Y-120963128D01*
X138707944Y-120963128D01*
X138794888Y-120944647D01*
X138888288Y-120924794D01*
X138894319Y-120922109D01*
X139056722Y-120849803D01*
X139056724Y-120849802D01*
X139062752Y-120847118D01*
X139217253Y-120734866D01*
X139345040Y-120592944D01*
X139440527Y-120427556D01*
X139499542Y-120245928D01*
X139519504Y-120056000D01*
X139499542Y-119866072D01*
X139440527Y-119684444D01*
X139345040Y-119519056D01*
X139265697Y-119430936D01*
X139221675Y-119382045D01*
X139221674Y-119382044D01*
X139217253Y-119377134D01*
X139062752Y-119264882D01*
X139056724Y-119262198D01*
X139056722Y-119262197D01*
X138894319Y-119189891D01*
X138894318Y-119189891D01*
X138888288Y-119187206D01*
X138794888Y-119167353D01*
X138707944Y-119148872D01*
X138707939Y-119148872D01*
X138701487Y-119147500D01*
X138510513Y-119147500D01*
X138504061Y-119148872D01*
X138504056Y-119148872D01*
X138417112Y-119167353D01*
X138323712Y-119187206D01*
X138317682Y-119189891D01*
X138317681Y-119189891D01*
X138155278Y-119262197D01*
X138155276Y-119262198D01*
X138149248Y-119264882D01*
X137994747Y-119377134D01*
X137990332Y-119382037D01*
X137985420Y-119386460D01*
X137984295Y-119385211D01*
X137930986Y-119418051D01*
X137897800Y-119422500D01*
X134564200Y-119422500D01*
X134496079Y-119402498D01*
X134476853Y-119386157D01*
X134476580Y-119386460D01*
X134471668Y-119382037D01*
X134467253Y-119377134D01*
X134312752Y-119264882D01*
X134306724Y-119262198D01*
X134306722Y-119262197D01*
X134144319Y-119189891D01*
X134144318Y-119189891D01*
X134138288Y-119187206D01*
X134044888Y-119167353D01*
X133957944Y-119148872D01*
X133957939Y-119148872D01*
X133951487Y-119147500D01*
X133760513Y-119147500D01*
X133754061Y-119148872D01*
X133754056Y-119148872D01*
X133667112Y-119167353D01*
X133573712Y-119187206D01*
X133567682Y-119189891D01*
X133567681Y-119189891D01*
X133405278Y-119262197D01*
X133405276Y-119262198D01*
X133399248Y-119264882D01*
X133244747Y-119377134D01*
X133240326Y-119382044D01*
X133240325Y-119382045D01*
X133196304Y-119430936D01*
X133116960Y-119519056D01*
X133021473Y-119684444D01*
X132962458Y-119866072D01*
X132942496Y-120056000D01*
X128201216Y-120056000D01*
X128199340Y-120051176D01*
X128199339Y-120051173D01*
X128197647Y-120046823D01*
X128067951Y-119819902D01*
X127906138Y-119614643D01*
X127715763Y-119435557D01*
X127501009Y-119286576D01*
X127464888Y-119268763D01*
X127270781Y-119173040D01*
X127270778Y-119173039D01*
X127266593Y-119170975D01*
X127220449Y-119156204D01*
X127022123Y-119092720D01*
X127017665Y-119091293D01*
X126759693Y-119049279D01*
X126645942Y-119047790D01*
X126503022Y-119045919D01*
X126503019Y-119045919D01*
X126498345Y-119045858D01*
X126239362Y-119081104D01*
X125988433Y-119154243D01*
X125984180Y-119156203D01*
X125984179Y-119156204D01*
X125947659Y-119173040D01*
X125751072Y-119263668D01*
X125532491Y-119406976D01*
X125532181Y-119406503D01*
X125468976Y-119430936D01*
X125399427Y-119416670D01*
X125369399Y-119394468D01*
X123196105Y-117221174D01*
X123162079Y-117158862D01*
X123167144Y-117088047D01*
X123209691Y-117031211D01*
X123259003Y-117008833D01*
X123336660Y-116992326D01*
X123336672Y-116992323D01*
X123340970Y-116991409D01*
X123345099Y-116989906D01*
X123345103Y-116989905D01*
X123600781Y-116896846D01*
X123600785Y-116896844D01*
X123604926Y-116895337D01*
X123852942Y-116763464D01*
X124080192Y-116598358D01*
X124282252Y-116403231D01*
X124455188Y-116181882D01*
X124457384Y-116178078D01*
X124457389Y-116178071D01*
X124593435Y-115942431D01*
X124595636Y-115938619D01*
X124700862Y-115678176D01*
X124768817Y-115405624D01*
X124798178Y-115126267D01*
X124798025Y-115121873D01*
X124788529Y-114849939D01*
X124788528Y-114849933D01*
X124788375Y-114845542D01*
X124777431Y-114783471D01*
X124743590Y-114591554D01*
X124739598Y-114568913D01*
X124652797Y-114301765D01*
X124529660Y-114049298D01*
X124527205Y-114045659D01*
X124527202Y-114045653D01*
X124449523Y-113930489D01*
X124372585Y-113816424D01*
X124368133Y-113811479D01*
X124187566Y-113610940D01*
X124184629Y-113607678D01*
X123969450Y-113427121D01*
X123731236Y-113278269D01*
X123474625Y-113164018D01*
X123204610Y-113086593D01*
X123200260Y-113085982D01*
X123200257Y-113085981D01*
X123088195Y-113070232D01*
X122926448Y-113047500D01*
X122715854Y-113047500D01*
X122713668Y-113047653D01*
X122713664Y-113047653D01*
X122510173Y-113061882D01*
X122510168Y-113061883D01*
X122505788Y-113062189D01*
X122231030Y-113120591D01*
X122226901Y-113122094D01*
X122226897Y-113122095D01*
X121971219Y-113215154D01*
X121971215Y-113215156D01*
X121967074Y-113216663D01*
X121963180Y-113218733D01*
X121963181Y-113218733D01*
X121730133Y-113342647D01*
X121660595Y-113356967D01*
X121594354Y-113331419D01*
X121552442Y-113274115D01*
X121544979Y-113231396D01*
X121544979Y-107806000D01*
X124592835Y-107806000D01*
X124593223Y-107810930D01*
X124597112Y-107860343D01*
X124597500Y-107870229D01*
X124597500Y-112531984D01*
X124597451Y-112535502D01*
X124594666Y-112635205D01*
X124595335Y-112640219D01*
X124605058Y-112713086D01*
X124605759Y-112719647D01*
X124611432Y-112790154D01*
X124612060Y-112797965D01*
X124617157Y-112818715D01*
X124619897Y-112829870D01*
X124622426Y-112843258D01*
X124626771Y-112875820D01*
X124628232Y-112880661D01*
X124628233Y-112880663D01*
X124649478Y-112951029D01*
X124651219Y-112957390D01*
X124669963Y-113033706D01*
X124671941Y-113038366D01*
X124682801Y-113063951D01*
X124687438Y-113076761D01*
X124696933Y-113108208D01*
X124699151Y-113112756D01*
X124699154Y-113112763D01*
X124731371Y-113178818D01*
X124734107Y-113184820D01*
X124752470Y-113228081D01*
X124764812Y-113257156D01*
X124767504Y-113261430D01*
X124782319Y-113284956D01*
X124788945Y-113296860D01*
X124803346Y-113326388D01*
X124806265Y-113330525D01*
X124806265Y-113330526D01*
X124848641Y-113390597D01*
X124852301Y-113396086D01*
X124870377Y-113424789D01*
X124894167Y-113462567D01*
X124897508Y-113466356D01*
X124897512Y-113466362D01*
X124915898Y-113487217D01*
X124924344Y-113497912D01*
X124943274Y-113524747D01*
X124962909Y-113546250D01*
X125002625Y-113585966D01*
X125008044Y-113591736D01*
X125051350Y-113640858D01*
X125051353Y-113640861D01*
X125054698Y-113644655D01*
X125058606Y-113647865D01*
X125058607Y-113647866D01*
X125086989Y-113671179D01*
X125096108Y-113679449D01*
X126082464Y-114665805D01*
X126084374Y-114667431D01*
X126084381Y-114667437D01*
X126156666Y-114728957D01*
X126220720Y-114783471D01*
X126428358Y-114909221D01*
X126433047Y-114911115D01*
X126433052Y-114911118D01*
X126648733Y-114998259D01*
X126648736Y-114998260D01*
X126653429Y-115000156D01*
X126803907Y-115034343D01*
X126885210Y-115052814D01*
X126885212Y-115052814D01*
X126890145Y-115053935D01*
X126895195Y-115054253D01*
X126895197Y-115054253D01*
X127127359Y-115068860D01*
X127132413Y-115069178D01*
X127374002Y-115045490D01*
X127378893Y-115044198D01*
X127378897Y-115044197D01*
X127603808Y-114984773D01*
X127603814Y-114984771D01*
X127608696Y-114983481D01*
X127830456Y-114884747D01*
X127890368Y-114845542D01*
X128029342Y-114754600D01*
X128029345Y-114754598D01*
X128033579Y-114751827D01*
X128125998Y-114667437D01*
X128209101Y-114591554D01*
X128209105Y-114591550D01*
X128212837Y-114588142D01*
X128215979Y-114584178D01*
X128360475Y-114401869D01*
X128360476Y-114401867D01*
X128363619Y-114397902D01*
X128415008Y-114305954D01*
X128479580Y-114190416D01*
X128479582Y-114190412D01*
X128482046Y-114186003D01*
X128565071Y-113957895D01*
X128569192Y-113936293D01*
X128570441Y-113930489D01*
X128614722Y-113746046D01*
X128614722Y-113746045D01*
X128616032Y-113740589D01*
X128628963Y-113516310D01*
X128606590Y-113331419D01*
X128602649Y-113298854D01*
X128602649Y-113298853D01*
X128601975Y-113293285D01*
X128598072Y-113280596D01*
X128587362Y-113245786D01*
X128585625Y-113239138D01*
X128585230Y-113236180D01*
X128579962Y-113218733D01*
X128516533Y-113008643D01*
X128516531Y-113008639D01*
X128515068Y-113003792D01*
X128408654Y-112785612D01*
X128274678Y-112595690D01*
X157363037Y-112595690D01*
X157390025Y-112818715D01*
X157456082Y-113033435D01*
X157458652Y-113038415D01*
X157458654Y-113038419D01*
X157532652Y-113181787D01*
X157559118Y-113233064D01*
X157695877Y-113411292D01*
X157862036Y-113562485D01*
X157866783Y-113565463D01*
X157866786Y-113565465D01*
X158041536Y-113675084D01*
X158052344Y-113681864D01*
X158260783Y-113765656D01*
X158480767Y-113811213D01*
X158485378Y-113811479D01*
X158485379Y-113811479D01*
X158535952Y-113814395D01*
X158535956Y-113814395D01*
X158537775Y-113814500D01*
X159202999Y-113814500D01*
X159205786Y-113814251D01*
X159205792Y-113814251D01*
X159275929Y-113807991D01*
X159369762Y-113799617D01*
X159375176Y-113798136D01*
X159375181Y-113798135D01*
X159502912Y-113763191D01*
X159586451Y-113740337D01*
X159591509Y-113737925D01*
X159591513Y-113737923D01*
X159714105Y-113679449D01*
X159789218Y-113643622D01*
X159971654Y-113512529D01*
X160074067Y-113406847D01*
X160124089Y-113355229D01*
X160124091Y-113355226D01*
X160127992Y-113351201D01*
X160253290Y-113164738D01*
X160343588Y-112959033D01*
X160371383Y-112843262D01*
X160394722Y-112746046D01*
X160394722Y-112746045D01*
X160396032Y-112740589D01*
X160402108Y-112635205D01*
X160408640Y-112521917D01*
X160408640Y-112521914D01*
X160408963Y-112516310D01*
X160381975Y-112293285D01*
X160315918Y-112078565D01*
X160258885Y-111968064D01*
X160215454Y-111883919D01*
X160215454Y-111883918D01*
X160212882Y-111878936D01*
X160076123Y-111700708D01*
X159909964Y-111549515D01*
X159905217Y-111546537D01*
X159905214Y-111546535D01*
X159724405Y-111433115D01*
X159719656Y-111430136D01*
X159511217Y-111346344D01*
X159291233Y-111300787D01*
X159286622Y-111300521D01*
X159286621Y-111300521D01*
X159236048Y-111297605D01*
X159236044Y-111297605D01*
X159234225Y-111297500D01*
X158569001Y-111297500D01*
X158566214Y-111297749D01*
X158566208Y-111297749D01*
X158496071Y-111304009D01*
X158402238Y-111312383D01*
X158396824Y-111313864D01*
X158396819Y-111313865D01*
X158282262Y-111345205D01*
X158185549Y-111371663D01*
X158180491Y-111374075D01*
X158180487Y-111374077D01*
X158084166Y-111420020D01*
X157982782Y-111468378D01*
X157800346Y-111599471D01*
X157644008Y-111760799D01*
X157518710Y-111947262D01*
X157428412Y-112152967D01*
X157375968Y-112371411D01*
X157363037Y-112595690D01*
X128274678Y-112595690D01*
X128268726Y-112587253D01*
X128249091Y-112565750D01*
X127651405Y-111968064D01*
X127617379Y-111905752D01*
X127614500Y-111878969D01*
X127614500Y-109485733D01*
X161193822Y-109485733D01*
X161203625Y-109766458D01*
X161204387Y-109770781D01*
X161204388Y-109770788D01*
X161228164Y-109905624D01*
X161252402Y-110043087D01*
X161339203Y-110310235D01*
X161462340Y-110562702D01*
X161464795Y-110566341D01*
X161464798Y-110566347D01*
X161537890Y-110674710D01*
X161619415Y-110795576D01*
X161807371Y-111004322D01*
X162022550Y-111184879D01*
X162260764Y-111333731D01*
X162517375Y-111447982D01*
X162787390Y-111525407D01*
X162791740Y-111526018D01*
X162791743Y-111526019D01*
X162894690Y-111540487D01*
X163065552Y-111564500D01*
X163276146Y-111564500D01*
X163278332Y-111564347D01*
X163278336Y-111564347D01*
X163481827Y-111550118D01*
X163481832Y-111550117D01*
X163486212Y-111549811D01*
X163760970Y-111491409D01*
X163765099Y-111489906D01*
X163765103Y-111489905D01*
X164020781Y-111396846D01*
X164020785Y-111396844D01*
X164024926Y-111395337D01*
X164272942Y-111263464D01*
X164377896Y-111187211D01*
X164496629Y-111100947D01*
X164496632Y-111100944D01*
X164500192Y-111098358D01*
X164702252Y-110903231D01*
X164875188Y-110681882D01*
X164877384Y-110678078D01*
X164877389Y-110678071D01*
X165013435Y-110442431D01*
X165015636Y-110438619D01*
X165120862Y-110178176D01*
X165154544Y-110043087D01*
X165187753Y-109909893D01*
X165187754Y-109909888D01*
X165188817Y-109905624D01*
X165218178Y-109626267D01*
X165208375Y-109345542D01*
X165184608Y-109210749D01*
X165160360Y-109073236D01*
X165159598Y-109068913D01*
X165072797Y-108801765D01*
X164949660Y-108549298D01*
X164947205Y-108545659D01*
X164947202Y-108545653D01*
X164866935Y-108426653D01*
X164792585Y-108316424D01*
X164604629Y-108107678D01*
X164389450Y-107927121D01*
X164151236Y-107778269D01*
X163914345Y-107672798D01*
X163898639Y-107665805D01*
X163898637Y-107665804D01*
X163894625Y-107664018D01*
X163624610Y-107586593D01*
X163620260Y-107585982D01*
X163620257Y-107585981D01*
X163501485Y-107569289D01*
X163346448Y-107547500D01*
X163135854Y-107547500D01*
X163133668Y-107547653D01*
X163133664Y-107547653D01*
X162930173Y-107561882D01*
X162930168Y-107561883D01*
X162925788Y-107562189D01*
X162651030Y-107620591D01*
X162646901Y-107622094D01*
X162646897Y-107622095D01*
X162391219Y-107715154D01*
X162391215Y-107715156D01*
X162387074Y-107716663D01*
X162139058Y-107848536D01*
X162135499Y-107851122D01*
X162135497Y-107851123D01*
X162030895Y-107927121D01*
X161911808Y-108013642D01*
X161709748Y-108208769D01*
X161536812Y-108430118D01*
X161534616Y-108433922D01*
X161534611Y-108433929D01*
X161420794Y-108631067D01*
X161396364Y-108673381D01*
X161291138Y-108933824D01*
X161290073Y-108938097D01*
X161290072Y-108938099D01*
X161256379Y-109073236D01*
X161223183Y-109206376D01*
X161193822Y-109485733D01*
X127614500Y-109485733D01*
X127614500Y-107870229D01*
X127614888Y-107860343D01*
X127618777Y-107810930D01*
X127619165Y-107806000D01*
X127614623Y-107748289D01*
X127614500Y-107746213D01*
X127614500Y-107744999D01*
X127610826Y-107699339D01*
X127608281Y-107667702D01*
X127608263Y-107667483D01*
X127600720Y-107571640D01*
X127600535Y-107569289D01*
X127600276Y-107568210D01*
X127599940Y-107564035D01*
X127570411Y-107443815D01*
X127545105Y-107338406D01*
X127544078Y-107335926D01*
X127543659Y-107334457D01*
X127543244Y-107333209D01*
X127542037Y-107328294D01*
X127495872Y-107219536D01*
X127495522Y-107218703D01*
X127454240Y-107119037D01*
X127451866Y-107115163D01*
X127449734Y-107110592D01*
X127449169Y-107109512D01*
X127447848Y-107106400D01*
X157367500Y-107106400D01*
X157367837Y-107109646D01*
X157367837Y-107109650D01*
X157373535Y-107164561D01*
X157378474Y-107212165D01*
X157380655Y-107218701D01*
X157380655Y-107218703D01*
X157415664Y-107323636D01*
X157434450Y-107379945D01*
X157527522Y-107530348D01*
X157652697Y-107655305D01*
X157658927Y-107659145D01*
X157658928Y-107659146D01*
X157796090Y-107743694D01*
X157803262Y-107748115D01*
X157813941Y-107751657D01*
X157964611Y-107801632D01*
X157964613Y-107801632D01*
X157971139Y-107803797D01*
X157977975Y-107804497D01*
X157977978Y-107804498D01*
X158021031Y-107808909D01*
X158075600Y-107814500D01*
X159696400Y-107814500D01*
X159699646Y-107814163D01*
X159699650Y-107814163D01*
X159795307Y-107804238D01*
X159795311Y-107804237D01*
X159802165Y-107803526D01*
X159808701Y-107801345D01*
X159808703Y-107801345D01*
X159957635Y-107751657D01*
X159969945Y-107747550D01*
X160120348Y-107654478D01*
X160245305Y-107529303D01*
X160262303Y-107501728D01*
X160334275Y-107384968D01*
X160334276Y-107384966D01*
X160338115Y-107378738D01*
X160393797Y-107210861D01*
X160404500Y-107106400D01*
X160404500Y-106005600D01*
X160393526Y-105899835D01*
X160337550Y-105732055D01*
X160244478Y-105581652D01*
X160119303Y-105456695D01*
X160073441Y-105428425D01*
X159974968Y-105367725D01*
X159974966Y-105367724D01*
X159968738Y-105363885D01*
X159808254Y-105310655D01*
X159807389Y-105310368D01*
X159807387Y-105310368D01*
X159800861Y-105308203D01*
X159794025Y-105307503D01*
X159794022Y-105307502D01*
X159750969Y-105303091D01*
X159696400Y-105297500D01*
X158075600Y-105297500D01*
X158072354Y-105297837D01*
X158072350Y-105297837D01*
X157976693Y-105307762D01*
X157976689Y-105307763D01*
X157969835Y-105308474D01*
X157963299Y-105310655D01*
X157963297Y-105310655D01*
X157831195Y-105354728D01*
X157802055Y-105364450D01*
X157651652Y-105457522D01*
X157526695Y-105582697D01*
X157522855Y-105588927D01*
X157522854Y-105588928D01*
X157494443Y-105635020D01*
X157433885Y-105733262D01*
X157378203Y-105901139D01*
X157367500Y-106005600D01*
X157367500Y-107106400D01*
X127447848Y-107106400D01*
X127447188Y-107104844D01*
X127386345Y-107008227D01*
X127385592Y-107007014D01*
X127332765Y-106920809D01*
X127332761Y-106920803D01*
X127330176Y-106916584D01*
X127326958Y-106912816D01*
X127324178Y-106908990D01*
X127321350Y-106904813D01*
X127320533Y-106903721D01*
X127317833Y-106899433D01*
X127244650Y-106816422D01*
X127243354Y-106814928D01*
X127179177Y-106739787D01*
X127179175Y-106739785D01*
X127175969Y-106736031D01*
X127172212Y-106732822D01*
X127168707Y-106729317D01*
X127168788Y-106729236D01*
X127161198Y-106721764D01*
X127157302Y-106717345D01*
X127074328Y-106649189D01*
X127072474Y-106647637D01*
X126999179Y-106585038D01*
X126995416Y-106581824D01*
X126990621Y-106578886D01*
X126976486Y-106568821D01*
X126973636Y-106566480D01*
X126973628Y-106566475D01*
X126969722Y-106563266D01*
X126879563Y-106510792D01*
X126877168Y-106509361D01*
X126792963Y-106457760D01*
X126788391Y-106455866D01*
X126785126Y-106454514D01*
X126769964Y-106447004D01*
X126759922Y-106441159D01*
X126665399Y-106404875D01*
X126662352Y-106403659D01*
X126599808Y-106377753D01*
X126573594Y-106366895D01*
X126562568Y-106364248D01*
X126546826Y-106359360D01*
X126538018Y-106355979D01*
X126538020Y-106355979D01*
X126533298Y-106354167D01*
X126499149Y-106347033D01*
X126437171Y-106334085D01*
X126433524Y-106333267D01*
X126347518Y-106312619D01*
X126347517Y-106312619D01*
X126342711Y-106311465D01*
X126328560Y-106310351D01*
X126312685Y-106308078D01*
X126300632Y-106305560D01*
X126300626Y-106305559D01*
X126295680Y-106304526D01*
X126290630Y-106304297D01*
X126290625Y-106304296D01*
X126234807Y-106301762D01*
X126200529Y-106300205D01*
X126196392Y-106299949D01*
X126106000Y-106292835D01*
X126101069Y-106293223D01*
X126101065Y-106293223D01*
X126088988Y-106294173D01*
X126073396Y-106294431D01*
X126058241Y-106293743D01*
X126058234Y-106293743D01*
X126053183Y-106293514D01*
X126048163Y-106294095D01*
X126048157Y-106294095D01*
X125961496Y-106304122D01*
X125956902Y-106304569D01*
X125874214Y-106311077D01*
X125874209Y-106311078D01*
X125869289Y-106311465D01*
X125853139Y-106315342D01*
X125849928Y-106316113D01*
X125834998Y-106318759D01*
X125817063Y-106320834D01*
X125817060Y-106320835D01*
X125812044Y-106321415D01*
X125770159Y-106333267D01*
X125726025Y-106345755D01*
X125721134Y-106347033D01*
X125695727Y-106353133D01*
X125638406Y-106366895D01*
X125617366Y-106375610D01*
X125603468Y-106380436D01*
X125578468Y-106387510D01*
X125573887Y-106389646D01*
X125573882Y-106389648D01*
X125500113Y-106424047D01*
X125495082Y-106426261D01*
X125423609Y-106455866D01*
X125423607Y-106455867D01*
X125419037Y-106457760D01*
X125397200Y-106471142D01*
X125384616Y-106477904D01*
X125358464Y-106490099D01*
X125354283Y-106492941D01*
X125354275Y-106492945D01*
X125289347Y-106537070D01*
X125284368Y-106540285D01*
X125216584Y-106581824D01*
X125212821Y-106585038D01*
X125194930Y-106600318D01*
X125183924Y-106608717D01*
X125157693Y-106626544D01*
X125154015Y-106630023D01*
X125154014Y-106630023D01*
X125099107Y-106681946D01*
X125094364Y-106686209D01*
X125039793Y-106732817D01*
X125039786Y-106732824D01*
X125036031Y-106736031D01*
X125032825Y-106739785D01*
X125015688Y-106759850D01*
X125006461Y-106769556D01*
X124981319Y-106793332D01*
X124978241Y-106797358D01*
X124978240Y-106797359D01*
X124934100Y-106855092D01*
X124929815Y-106860394D01*
X124881824Y-106916584D01*
X124879242Y-106920798D01*
X124879238Y-106920803D01*
X124863969Y-106945720D01*
X124856633Y-106956414D01*
X124833880Y-106986174D01*
X124831494Y-106990624D01*
X124831492Y-106990627D01*
X124798504Y-107052151D01*
X124794891Y-107058446D01*
X124757760Y-107119037D01*
X124743587Y-107153253D01*
X124738237Y-107164547D01*
X124719169Y-107200109D01*
X124695728Y-107268188D01*
X124693021Y-107275333D01*
X124666895Y-107338406D01*
X124657585Y-107377182D01*
X124654208Y-107388767D01*
X124641786Y-107424842D01*
X124641783Y-107424853D01*
X124640138Y-107429631D01*
X124628374Y-107497739D01*
X124626738Y-107505673D01*
X124612620Y-107564476D01*
X124612619Y-107564482D01*
X124611465Y-107569289D01*
X124610103Y-107586593D01*
X124608113Y-107611881D01*
X124606663Y-107623435D01*
X124598821Y-107668836D01*
X124597500Y-107697925D01*
X124597500Y-107741771D01*
X124597112Y-107751657D01*
X124592835Y-107806000D01*
X121544979Y-107806000D01*
X121544979Y-102376214D01*
X121564981Y-102308093D01*
X121618637Y-102261600D01*
X121688911Y-102251496D01*
X121737748Y-102269359D01*
X121840764Y-102333731D01*
X122097375Y-102447982D01*
X122367390Y-102525407D01*
X122371740Y-102526018D01*
X122371743Y-102526019D01*
X122465817Y-102539240D01*
X122645552Y-102564500D01*
X122856146Y-102564500D01*
X122858332Y-102564347D01*
X122858336Y-102564347D01*
X123061827Y-102550118D01*
X123061832Y-102550117D01*
X123066212Y-102549811D01*
X123340970Y-102491409D01*
X123345099Y-102489906D01*
X123345103Y-102489905D01*
X123600781Y-102396846D01*
X123600785Y-102396844D01*
X123604926Y-102395337D01*
X123852942Y-102263464D01*
X123891302Y-102235594D01*
X124076629Y-102100947D01*
X124076632Y-102100944D01*
X124080192Y-102098358D01*
X124138843Y-102041720D01*
X124206795Y-101976099D01*
X124282252Y-101903231D01*
X124455188Y-101681882D01*
X124457384Y-101678078D01*
X124457389Y-101678071D01*
X124593438Y-101442426D01*
X124595636Y-101438619D01*
X124597282Y-101434545D01*
X124598973Y-101431078D01*
X124646813Y-101378620D01*
X124715420Y-101360355D01*
X124783011Y-101382080D01*
X124801315Y-101397219D01*
X125550595Y-102146499D01*
X125584621Y-102208811D01*
X125587500Y-102235594D01*
X125587500Y-102606400D01*
X125587837Y-102609646D01*
X125587837Y-102609650D01*
X125594179Y-102670767D01*
X125598474Y-102712165D01*
X125600655Y-102718701D01*
X125600655Y-102718703D01*
X125617443Y-102769023D01*
X125654450Y-102879945D01*
X125747522Y-103030348D01*
X125872697Y-103155305D01*
X125878927Y-103159145D01*
X125878928Y-103159146D01*
X126016090Y-103243694D01*
X126023262Y-103248115D01*
X126103005Y-103274564D01*
X126184611Y-103301632D01*
X126184613Y-103301632D01*
X126191139Y-103303797D01*
X126197975Y-103304497D01*
X126197978Y-103304498D01*
X126241031Y-103308909D01*
X126295600Y-103314500D01*
X127916400Y-103314500D01*
X127919646Y-103314163D01*
X127919650Y-103314163D01*
X128015307Y-103304238D01*
X128015311Y-103304237D01*
X128022165Y-103303526D01*
X128028701Y-103301345D01*
X128028703Y-103301345D01*
X128160805Y-103257272D01*
X128189945Y-103247550D01*
X128340348Y-103154478D01*
X128465305Y-103029303D01*
X128558115Y-102878738D01*
X128613797Y-102710861D01*
X128624500Y-102606400D01*
X128624500Y-101505600D01*
X128622142Y-101482870D01*
X128614238Y-101406693D01*
X128614237Y-101406689D01*
X128613526Y-101399835D01*
X128607603Y-101382080D01*
X128559868Y-101239003D01*
X128557550Y-101232055D01*
X128464478Y-101081652D01*
X128339303Y-100956695D01*
X128188738Y-100863885D01*
X128065886Y-100823137D01*
X128027389Y-100810368D01*
X128027387Y-100810368D01*
X128020861Y-100808203D01*
X128014025Y-100807503D01*
X128014022Y-100807502D01*
X127970969Y-100803091D01*
X127916400Y-100797500D01*
X126295600Y-100797500D01*
X126292354Y-100797837D01*
X126292350Y-100797837D01*
X126262405Y-100800944D01*
X126189835Y-100808474D01*
X126124664Y-100830217D01*
X126053717Y-100832803D01*
X125995694Y-100799789D01*
X125526405Y-100330500D01*
X125492379Y-100268188D01*
X125489500Y-100241405D01*
X125489500Y-94190000D01*
X125509502Y-94121879D01*
X125563158Y-94075386D01*
X125615500Y-94064000D01*
X131280000Y-94064000D01*
X131387980Y-94052391D01*
X131391264Y-94051677D01*
X131391268Y-94051676D01*
X131417893Y-94045884D01*
X131440322Y-94041005D01*
X131543372Y-94006707D01*
X131665010Y-93928535D01*
X131674516Y-93920298D01*
X131739096Y-93890804D01*
X131809370Y-93900907D01*
X131839542Y-93920297D01*
X131889234Y-93963355D01*
X132020760Y-94023421D01*
X132044514Y-94030396D01*
X132084558Y-94042154D01*
X132084562Y-94042155D01*
X132088881Y-94043423D01*
X132093329Y-94044063D01*
X132093336Y-94044064D01*
X132227552Y-94063361D01*
X132227559Y-94063362D01*
X132232000Y-94064000D01*
X137730000Y-94064000D01*
X137837980Y-94052391D01*
X137841264Y-94051677D01*
X137841268Y-94051676D01*
X137867893Y-94045884D01*
X137890322Y-94041005D01*
X137993372Y-94006707D01*
X138115010Y-93928535D01*
X138124518Y-93920297D01*
X138165273Y-93884982D01*
X138168666Y-93882042D01*
X138180257Y-93868666D01*
X138223042Y-93819289D01*
X138263355Y-93772766D01*
X138323421Y-93641240D01*
X138337521Y-93593221D01*
X138342154Y-93577442D01*
X138342155Y-93577438D01*
X138343423Y-93573119D01*
X138347372Y-93545653D01*
X138363361Y-93434448D01*
X138363362Y-93434441D01*
X138364000Y-93430000D01*
X138364000Y-90432000D01*
X138362058Y-90413932D01*
X138352751Y-90327370D01*
X138352391Y-90324020D01*
X138348082Y-90304209D01*
X138341722Y-90274975D01*
X138341005Y-90271678D01*
X138306707Y-90168628D01*
X138228535Y-90046990D01*
X138182042Y-89993334D01*
X138072766Y-89898645D01*
X137941240Y-89838579D01*
X137917486Y-89831604D01*
X137877442Y-89819846D01*
X137877438Y-89819845D01*
X137873119Y-89818577D01*
X137868671Y-89817937D01*
X137868664Y-89817936D01*
X137734448Y-89798639D01*
X137734441Y-89798638D01*
X137730000Y-89798000D01*
X135490000Y-89798000D01*
X135421879Y-89777998D01*
X135375386Y-89724342D01*
X135364000Y-89672000D01*
X135364000Y-86182000D01*
X135352391Y-86074020D01*
X135341005Y-86021678D01*
X135306707Y-85918628D01*
X135228535Y-85796990D01*
X135216077Y-85782612D01*
X135184982Y-85746727D01*
X135182042Y-85743334D01*
X135072766Y-85648645D01*
X134941240Y-85588579D01*
X134917486Y-85581604D01*
X134877442Y-85569846D01*
X134877438Y-85569845D01*
X134873119Y-85568577D01*
X134868671Y-85567937D01*
X134868664Y-85567936D01*
X134734448Y-85548639D01*
X134734441Y-85548638D01*
X134730000Y-85548000D01*
X133390000Y-85548000D01*
X133321879Y-85527998D01*
X133275386Y-85474342D01*
X133264000Y-85422000D01*
X133264000Y-80567699D01*
X133284002Y-80499578D01*
X133337658Y-80453085D01*
X133407932Y-80442981D01*
X133416198Y-80444453D01*
X133504049Y-80463127D01*
X133504058Y-80463128D01*
X133510513Y-80464500D01*
X133701487Y-80464500D01*
X133707939Y-80463128D01*
X133707944Y-80463128D01*
X133805313Y-80442431D01*
X133888288Y-80424794D01*
X133894319Y-80422109D01*
X134056722Y-80349803D01*
X134056724Y-80349802D01*
X134062752Y-80347118D01*
X134217253Y-80234866D01*
X134345040Y-80092944D01*
X134429766Y-79946195D01*
X134437223Y-79933279D01*
X134437224Y-79933278D01*
X134440527Y-79927556D01*
X134499542Y-79745928D01*
X134500632Y-79735563D01*
X134518814Y-79562565D01*
X134519504Y-79556000D01*
X134514224Y-79505760D01*
X134500232Y-79372635D01*
X134500232Y-79372633D01*
X134499542Y-79366072D01*
X134440527Y-79184444D01*
X134433343Y-79172000D01*
X134373825Y-79068913D01*
X134345040Y-79019056D01*
X134271863Y-78937785D01*
X134241147Y-78873779D01*
X134239500Y-78853476D01*
X134239500Y-75634763D01*
X134240027Y-75623579D01*
X134241701Y-75616091D01*
X134241201Y-75600166D01*
X134239562Y-75548033D01*
X134239500Y-75544075D01*
X134239500Y-75516144D01*
X134238994Y-75512138D01*
X134238061Y-75500292D01*
X134236922Y-75464037D01*
X134236673Y-75456110D01*
X134231022Y-75436658D01*
X134227014Y-75417306D01*
X134225468Y-75405068D01*
X134225467Y-75405066D01*
X134224474Y-75397203D01*
X134208194Y-75356086D01*
X134204359Y-75344885D01*
X134192018Y-75302406D01*
X134187985Y-75295587D01*
X134187983Y-75295582D01*
X134181707Y-75284971D01*
X134173010Y-75267221D01*
X134165552Y-75248383D01*
X134139571Y-75212623D01*
X134133053Y-75202701D01*
X134114578Y-75171460D01*
X134114574Y-75171455D01*
X134110542Y-75164637D01*
X134096218Y-75150313D01*
X134083376Y-75135278D01*
X134071472Y-75118893D01*
X134037406Y-75090711D01*
X134028627Y-75082722D01*
X133905642Y-74959737D01*
X133871616Y-74897425D01*
X133876681Y-74826610D01*
X133920676Y-74768706D01*
X133961909Y-74738749D01*
X133961911Y-74738747D01*
X133967253Y-74734866D01*
X134095040Y-74592944D01*
X134183086Y-74440444D01*
X134187223Y-74433279D01*
X134187224Y-74433278D01*
X134190527Y-74427556D01*
X134236167Y-74287090D01*
X134276241Y-74228486D01*
X134341637Y-74200849D01*
X134411594Y-74212956D01*
X134463900Y-74260962D01*
X134475832Y-74287089D01*
X134521473Y-74427556D01*
X134524776Y-74433278D01*
X134524777Y-74433279D01*
X134528914Y-74440444D01*
X134616960Y-74592944D01*
X134744747Y-74734866D01*
X134899248Y-74847118D01*
X134905276Y-74849802D01*
X134905278Y-74849803D01*
X135015737Y-74898982D01*
X135073712Y-74924794D01*
X135167113Y-74944647D01*
X135254056Y-74963128D01*
X135254061Y-74963128D01*
X135260513Y-74964500D01*
X135451487Y-74964500D01*
X135457939Y-74963128D01*
X135457944Y-74963128D01*
X135544887Y-74944647D01*
X135638288Y-74924794D01*
X135696263Y-74898982D01*
X135806722Y-74849803D01*
X135806724Y-74849802D01*
X135812752Y-74847118D01*
X135967253Y-74734866D01*
X136095040Y-74592944D01*
X136147258Y-74502500D01*
X136198641Y-74453507D01*
X136256377Y-74439500D01*
X142777233Y-74439500D01*
X142788416Y-74440027D01*
X142795909Y-74441702D01*
X142803835Y-74441453D01*
X142803836Y-74441453D01*
X142863986Y-74439562D01*
X142867945Y-74439500D01*
X142895856Y-74439500D01*
X142899791Y-74439003D01*
X142899856Y-74438995D01*
X142911693Y-74438062D01*
X142943951Y-74437048D01*
X142947970Y-74436922D01*
X142955889Y-74436673D01*
X142975343Y-74431021D01*
X142994700Y-74427013D01*
X143006930Y-74425468D01*
X143006931Y-74425468D01*
X143014797Y-74424474D01*
X143050116Y-74410490D01*
X143120816Y-74404011D01*
X143183796Y-74436783D01*
X143219060Y-74498402D01*
X143222500Y-74527642D01*
X143222500Y-77049508D01*
X143202498Y-77117629D01*
X143148842Y-77164122D01*
X143078568Y-77174226D01*
X143070303Y-77172755D01*
X142957944Y-77148872D01*
X142957939Y-77148872D01*
X142951487Y-77147500D01*
X142760513Y-77147500D01*
X142754061Y-77148872D01*
X142754056Y-77148872D01*
X142682313Y-77164122D01*
X142573712Y-77187206D01*
X142567682Y-77189891D01*
X142567681Y-77189891D01*
X142405278Y-77262197D01*
X142405276Y-77262198D01*
X142399248Y-77264882D01*
X142244747Y-77377134D01*
X142240326Y-77382044D01*
X142240325Y-77382045D01*
X142144249Y-77488749D01*
X142116960Y-77519056D01*
X142071891Y-77597118D01*
X142028595Y-77672109D01*
X142021473Y-77684444D01*
X141962458Y-77866072D01*
X141961768Y-77872633D01*
X141961768Y-77872635D01*
X141955744Y-77929949D01*
X141942496Y-78056000D01*
X141943186Y-78062565D01*
X141947928Y-78107678D01*
X141962458Y-78245928D01*
X142021473Y-78427556D01*
X142116960Y-78592944D01*
X142190137Y-78674215D01*
X142220853Y-78738221D01*
X142222500Y-78758524D01*
X142222500Y-79377233D01*
X142221973Y-79388416D01*
X142220298Y-79395909D01*
X142220547Y-79403835D01*
X142220547Y-79403836D01*
X142222438Y-79463986D01*
X142222500Y-79467945D01*
X142222500Y-79495856D01*
X142222997Y-79499790D01*
X142222997Y-79499791D01*
X142223005Y-79499856D01*
X142223938Y-79511693D01*
X142225327Y-79555889D01*
X142230978Y-79575339D01*
X142234987Y-79594700D01*
X142237526Y-79614797D01*
X142240445Y-79622168D01*
X142240445Y-79622170D01*
X142253804Y-79655912D01*
X142257649Y-79667142D01*
X142267771Y-79701983D01*
X142269982Y-79709593D01*
X142274015Y-79716412D01*
X142274017Y-79716417D01*
X142280293Y-79727028D01*
X142288988Y-79744776D01*
X142296448Y-79763617D01*
X142301110Y-79770033D01*
X142301110Y-79770034D01*
X142322436Y-79799387D01*
X142328952Y-79809307D01*
X142343397Y-79833731D01*
X142351458Y-79847362D01*
X142365779Y-79861683D01*
X142378619Y-79876716D01*
X142390528Y-79893107D01*
X142410819Y-79909893D01*
X142424605Y-79921298D01*
X142433384Y-79929288D01*
X143252343Y-80748247D01*
X143259887Y-80756537D01*
X143264000Y-80763018D01*
X143269777Y-80768443D01*
X143313667Y-80809658D01*
X143316509Y-80812413D01*
X143336230Y-80832134D01*
X143339425Y-80834612D01*
X143348447Y-80842318D01*
X143380679Y-80872586D01*
X143387628Y-80876406D01*
X143398432Y-80882346D01*
X143414956Y-80893199D01*
X143430959Y-80905613D01*
X143471543Y-80923176D01*
X143482173Y-80928383D01*
X143520940Y-80949695D01*
X143528617Y-80951666D01*
X143528622Y-80951668D01*
X143540558Y-80954732D01*
X143559266Y-80961137D01*
X143577855Y-80969181D01*
X143585683Y-80970421D01*
X143585690Y-80970423D01*
X143621524Y-80976099D01*
X143633144Y-80978505D01*
X143668289Y-80987528D01*
X143675970Y-80989500D01*
X143696224Y-80989500D01*
X143715934Y-80991051D01*
X143735943Y-80994220D01*
X143743835Y-80993474D01*
X143779961Y-80990059D01*
X143791819Y-80989500D01*
X144224982Y-80989500D01*
X144293103Y-81009502D01*
X144339596Y-81063158D01*
X144349700Y-81133432D01*
X144320206Y-81198012D01*
X144276231Y-81230607D01*
X144205278Y-81262197D01*
X144205276Y-81262198D01*
X144199248Y-81264882D01*
X144193907Y-81268762D01*
X144193906Y-81268763D01*
X144159566Y-81293713D01*
X144044747Y-81377134D01*
X144040326Y-81382044D01*
X144040325Y-81382045D01*
X143929820Y-81504774D01*
X143916960Y-81519056D01*
X143902461Y-81544169D01*
X143851081Y-81593161D01*
X143781368Y-81606598D01*
X143715456Y-81580212D01*
X143709360Y-81575098D01*
X143630708Y-81504774D01*
X143630703Y-81504770D01*
X143627361Y-81501782D01*
X143623628Y-81499297D01*
X143623624Y-81499294D01*
X143511865Y-81424901D01*
X143511863Y-81424900D01*
X143508136Y-81422419D01*
X143376667Y-81359711D01*
X143372388Y-81358374D01*
X143372385Y-81358373D01*
X143244240Y-81318338D01*
X143244242Y-81318338D01*
X143239961Y-81317001D01*
X143235537Y-81316284D01*
X143235535Y-81316284D01*
X143173565Y-81306247D01*
X143096179Y-81293713D01*
X143026298Y-81292432D01*
X142957461Y-81291170D01*
X142957459Y-81291170D01*
X142952980Y-81291088D01*
X142948535Y-81291641D01*
X142944056Y-81291878D01*
X142944049Y-81291751D01*
X142935661Y-81292271D01*
X142506000Y-81292271D01*
X142475813Y-81294430D01*
X142439627Y-81297018D01*
X142439626Y-81297018D01*
X142432889Y-81297500D01*
X142369394Y-81316144D01*
X142301235Y-81336157D01*
X142301233Y-81336158D01*
X142292589Y-81338696D01*
X142282461Y-81345205D01*
X142177159Y-81412878D01*
X142177156Y-81412880D01*
X142169579Y-81417750D01*
X142163678Y-81424560D01*
X142079726Y-81521445D01*
X142079724Y-81521448D01*
X142073824Y-81528257D01*
X142013081Y-81661266D01*
X141992271Y-81806000D01*
X141992271Y-82226519D01*
X141991767Y-82237777D01*
X141987318Y-82287373D01*
X141987167Y-82299715D01*
X141990184Y-82346065D01*
X141992005Y-82374036D01*
X141992271Y-82382221D01*
X141992271Y-82726519D01*
X141991767Y-82737777D01*
X141987318Y-82787373D01*
X141987167Y-82799715D01*
X141988041Y-82813143D01*
X141992005Y-82874036D01*
X141992271Y-82882221D01*
X141992271Y-83306000D01*
X141997500Y-83379111D01*
X142015791Y-83441405D01*
X142028553Y-83484866D01*
X142038696Y-83519411D01*
X142043567Y-83526990D01*
X142112878Y-83634841D01*
X142112880Y-83634844D01*
X142117750Y-83642421D01*
X142124560Y-83648322D01*
X142221445Y-83732274D01*
X142221448Y-83732276D01*
X142228257Y-83738176D01*
X142361266Y-83798919D01*
X142506000Y-83819729D01*
X142996008Y-83819729D01*
X142996778Y-83819731D01*
X143066931Y-83820160D01*
X143066937Y-83820160D01*
X143071417Y-83820187D01*
X143155507Y-83808669D01*
X143211276Y-83801030D01*
X143211280Y-83801029D01*
X143215727Y-83800420D01*
X143353436Y-83761063D01*
X143486398Y-83701586D01*
X143490180Y-83699200D01*
X143490187Y-83699196D01*
X143570816Y-83648322D01*
X143607526Y-83625160D01*
X143718452Y-83530754D01*
X143736106Y-83510765D01*
X143810297Y-83426758D01*
X143813260Y-83423403D01*
X143818740Y-83415061D01*
X143890767Y-83305410D01*
X143890769Y-83305407D01*
X143893226Y-83301666D01*
X143911873Y-83261950D01*
X143958930Y-83208789D01*
X144025928Y-83189500D01*
X144027233Y-83189500D01*
X144038416Y-83190027D01*
X144045909Y-83191702D01*
X144053835Y-83191453D01*
X144053836Y-83191453D01*
X144113986Y-83189562D01*
X144117945Y-83189500D01*
X144145856Y-83189500D01*
X144149791Y-83189003D01*
X144149856Y-83188995D01*
X144161693Y-83188062D01*
X144193951Y-83187048D01*
X144197970Y-83186922D01*
X144205889Y-83186673D01*
X144225343Y-83181021D01*
X144244700Y-83177013D01*
X144256930Y-83175468D01*
X144256931Y-83175468D01*
X144264797Y-83174474D01*
X144272168Y-83171555D01*
X144272170Y-83171555D01*
X144305912Y-83158196D01*
X144317142Y-83154351D01*
X144351983Y-83144229D01*
X144351984Y-83144229D01*
X144359593Y-83142018D01*
X144366412Y-83137985D01*
X144366417Y-83137983D01*
X144377028Y-83131707D01*
X144394776Y-83123012D01*
X144413617Y-83115552D01*
X144449387Y-83089564D01*
X144459307Y-83083048D01*
X144490535Y-83064580D01*
X144490538Y-83064578D01*
X144497362Y-83060542D01*
X144511683Y-83046221D01*
X144526717Y-83033380D01*
X144534022Y-83028073D01*
X144543107Y-83021472D01*
X144552442Y-83010187D01*
X144611275Y-82970447D01*
X144649529Y-82964500D01*
X144751487Y-82964500D01*
X144757939Y-82963128D01*
X144757944Y-82963128D01*
X144844888Y-82944647D01*
X144938288Y-82924794D01*
X144946201Y-82921271D01*
X145106722Y-82849803D01*
X145106724Y-82849802D01*
X145112752Y-82847118D01*
X145123604Y-82839234D01*
X145160310Y-82812565D01*
X145222440Y-82767425D01*
X145289306Y-82743567D01*
X145358458Y-82759647D01*
X145407938Y-82810560D01*
X145422500Y-82869361D01*
X145422500Y-83441405D01*
X145402498Y-83509526D01*
X145385595Y-83530501D01*
X144863742Y-84052353D01*
X144855463Y-84059887D01*
X144848982Y-84064000D01*
X144802357Y-84113651D01*
X144799602Y-84116493D01*
X144779865Y-84136230D01*
X144777385Y-84139427D01*
X144769682Y-84148447D01*
X144739414Y-84180679D01*
X144735595Y-84187625D01*
X144735593Y-84187628D01*
X144729652Y-84198434D01*
X144718801Y-84214953D01*
X144706386Y-84230959D01*
X144703241Y-84238228D01*
X144703238Y-84238232D01*
X144688826Y-84271537D01*
X144683609Y-84282187D01*
X144662305Y-84320940D01*
X144660334Y-84328615D01*
X144660334Y-84328616D01*
X144657267Y-84340562D01*
X144650863Y-84359266D01*
X144642819Y-84377855D01*
X144641580Y-84385678D01*
X144641577Y-84385688D01*
X144635901Y-84421524D01*
X144633495Y-84433144D01*
X144622500Y-84475970D01*
X144622500Y-84496224D01*
X144620949Y-84515934D01*
X144617780Y-84535943D01*
X144618526Y-84543835D01*
X144621941Y-84579961D01*
X144622500Y-84591819D01*
X144622500Y-95577233D01*
X144621973Y-95588416D01*
X144620298Y-95595909D01*
X144620547Y-95603835D01*
X144620547Y-95603836D01*
X144622438Y-95663986D01*
X144622500Y-95667945D01*
X144622500Y-95695856D01*
X144622997Y-95699790D01*
X144622997Y-95699791D01*
X144623005Y-95699856D01*
X144623938Y-95711693D01*
X144625327Y-95755889D01*
X144630978Y-95775339D01*
X144634987Y-95794700D01*
X144637526Y-95814797D01*
X144640445Y-95822168D01*
X144640445Y-95822170D01*
X144653804Y-95855912D01*
X144657649Y-95867142D01*
X144669982Y-95909593D01*
X144674015Y-95916412D01*
X144674017Y-95916417D01*
X144680293Y-95927028D01*
X144688988Y-95944776D01*
X144696448Y-95963617D01*
X144701110Y-95970033D01*
X144701110Y-95970034D01*
X144722436Y-95999387D01*
X144728952Y-96009307D01*
X144744680Y-96035901D01*
X144751458Y-96047362D01*
X144765779Y-96061683D01*
X144778619Y-96076716D01*
X144790528Y-96093107D01*
X144821587Y-96118801D01*
X144824605Y-96121298D01*
X144833384Y-96129288D01*
X146352343Y-97648247D01*
X146359887Y-97656537D01*
X146364000Y-97663018D01*
X146369777Y-97668443D01*
X146413667Y-97709658D01*
X146416509Y-97712413D01*
X146436231Y-97732135D01*
X146439373Y-97734572D01*
X146439433Y-97734619D01*
X146448445Y-97742317D01*
X146463134Y-97756110D01*
X146480679Y-97772586D01*
X146487622Y-97776403D01*
X146498431Y-97782345D01*
X146514953Y-97793198D01*
X146530959Y-97805614D01*
X146538237Y-97808764D01*
X146538238Y-97808764D01*
X146571537Y-97823174D01*
X146582187Y-97828391D01*
X146620940Y-97849695D01*
X146628615Y-97851666D01*
X146628616Y-97851666D01*
X146640562Y-97854733D01*
X146659267Y-97861137D01*
X146677855Y-97869181D01*
X146685678Y-97870420D01*
X146685688Y-97870423D01*
X146721524Y-97876099D01*
X146733144Y-97878505D01*
X146768289Y-97887528D01*
X146775970Y-97889500D01*
X146796224Y-97889500D01*
X146815934Y-97891051D01*
X146835943Y-97894220D01*
X146843835Y-97893474D01*
X146879961Y-97890059D01*
X146891819Y-97889500D01*
X148941406Y-97889500D01*
X149009527Y-97909502D01*
X149030501Y-97926405D01*
X149485595Y-98381499D01*
X149519621Y-98443811D01*
X149522500Y-98470594D01*
X149522500Y-103377233D01*
X149521973Y-103388416D01*
X149520298Y-103395909D01*
X149520547Y-103403835D01*
X149520547Y-103403836D01*
X149522438Y-103463986D01*
X149522500Y-103467945D01*
X149522500Y-103495856D01*
X149522997Y-103499790D01*
X149522997Y-103499791D01*
X149523005Y-103499856D01*
X149523938Y-103511693D01*
X149525327Y-103555889D01*
X149530978Y-103575339D01*
X149534987Y-103594700D01*
X149537526Y-103614797D01*
X149540445Y-103622168D01*
X149540445Y-103622170D01*
X149553804Y-103655912D01*
X149557649Y-103667142D01*
X149569982Y-103709593D01*
X149574015Y-103716412D01*
X149574017Y-103716417D01*
X149580293Y-103727028D01*
X149588988Y-103744776D01*
X149596448Y-103763617D01*
X149601110Y-103770033D01*
X149601110Y-103770034D01*
X149622436Y-103799387D01*
X149628952Y-103809307D01*
X149651458Y-103847362D01*
X149665779Y-103861683D01*
X149678619Y-103876716D01*
X149690528Y-103893107D01*
X149722413Y-103919484D01*
X149724593Y-103921288D01*
X149733374Y-103929278D01*
X150152353Y-104348258D01*
X150159887Y-104356537D01*
X150164000Y-104363018D01*
X150173395Y-104371840D01*
X150213651Y-104409643D01*
X150216493Y-104412398D01*
X150236230Y-104432135D01*
X150239427Y-104434615D01*
X150248447Y-104442318D01*
X150280679Y-104472586D01*
X150287625Y-104476405D01*
X150287628Y-104476407D01*
X150298434Y-104482348D01*
X150314953Y-104493199D01*
X150330959Y-104505614D01*
X150338228Y-104508759D01*
X150338232Y-104508762D01*
X150371537Y-104523174D01*
X150382187Y-104528391D01*
X150420940Y-104549695D01*
X150428615Y-104551666D01*
X150428616Y-104551666D01*
X150440562Y-104554733D01*
X150459267Y-104561137D01*
X150477855Y-104569181D01*
X150485678Y-104570420D01*
X150485688Y-104570423D01*
X150521524Y-104576099D01*
X150533144Y-104578505D01*
X150568289Y-104587528D01*
X150575970Y-104589500D01*
X150596224Y-104589500D01*
X150615934Y-104591051D01*
X150635943Y-104594220D01*
X150643835Y-104593474D01*
X150679961Y-104590059D01*
X150691819Y-104589500D01*
X151775370Y-104589500D01*
X151843491Y-104609502D01*
X151864465Y-104626405D01*
X152263753Y-105025693D01*
X152297779Y-105088005D01*
X152300449Y-105107535D01*
X152306110Y-105205715D01*
X152307247Y-105210761D01*
X152307248Y-105210767D01*
X152326795Y-105297500D01*
X152355222Y-105423639D01*
X152439266Y-105630616D01*
X152555987Y-105821088D01*
X152702250Y-105989938D01*
X152874126Y-106132632D01*
X153067000Y-106245338D01*
X153275692Y-106325030D01*
X153280760Y-106326061D01*
X153280763Y-106326062D01*
X153388017Y-106347883D01*
X153494597Y-106369567D01*
X153499772Y-106369757D01*
X153499774Y-106369757D01*
X153712673Y-106377564D01*
X153712677Y-106377564D01*
X153717837Y-106377753D01*
X153722957Y-106377097D01*
X153722959Y-106377097D01*
X153934288Y-106350025D01*
X153934289Y-106350025D01*
X153939416Y-106349368D01*
X153947199Y-106347033D01*
X154148429Y-106286661D01*
X154148434Y-106286659D01*
X154153384Y-106285174D01*
X154353994Y-106186896D01*
X154535860Y-106057173D01*
X154694096Y-105899489D01*
X154698546Y-105893297D01*
X154821435Y-105722277D01*
X154824453Y-105718077D01*
X154923430Y-105517811D01*
X154970025Y-105364450D01*
X154986865Y-105309023D01*
X154986865Y-105309021D01*
X154988370Y-105304069D01*
X155017529Y-105082590D01*
X155019156Y-105016000D01*
X155000852Y-104793361D01*
X154946431Y-104576702D01*
X154857354Y-104371840D01*
X154736014Y-104184277D01*
X154585670Y-104019051D01*
X154581619Y-104015852D01*
X154581615Y-104015848D01*
X154414414Y-103883800D01*
X154414410Y-103883798D01*
X154410359Y-103880598D01*
X154369053Y-103857796D01*
X154319084Y-103807364D01*
X154304312Y-103737921D01*
X154329428Y-103671516D01*
X154356780Y-103644909D01*
X154410025Y-103606930D01*
X154535860Y-103517173D01*
X154694096Y-103359489D01*
X154700295Y-103350863D01*
X154821435Y-103182277D01*
X154824453Y-103178077D01*
X154829342Y-103168186D01*
X154921136Y-102982453D01*
X154921137Y-102982451D01*
X154923430Y-102977811D01*
X154988370Y-102764069D01*
X155017529Y-102542590D01*
X155017949Y-102525407D01*
X155019074Y-102479365D01*
X155019074Y-102479361D01*
X155019156Y-102476000D01*
X155000852Y-102253361D01*
X154946431Y-102036702D01*
X154857354Y-101831840D01*
X154803275Y-101748247D01*
X154738822Y-101648617D01*
X154738820Y-101648614D01*
X154736014Y-101644277D01*
X154585670Y-101479051D01*
X154581619Y-101475852D01*
X154581615Y-101475848D01*
X154414414Y-101343800D01*
X154414410Y-101343798D01*
X154410359Y-101340598D01*
X154369053Y-101317796D01*
X154319084Y-101267364D01*
X154304312Y-101197921D01*
X154329428Y-101131516D01*
X154356780Y-101104909D01*
X154400603Y-101073650D01*
X154535860Y-100977173D01*
X154694096Y-100819489D01*
X154702710Y-100807502D01*
X154821435Y-100642277D01*
X154824453Y-100638077D01*
X154827922Y-100631059D01*
X154921136Y-100442453D01*
X154921137Y-100442451D01*
X154923430Y-100437811D01*
X154988370Y-100224069D01*
X155017529Y-100002590D01*
X155019156Y-99936000D01*
X155000852Y-99713361D01*
X154946431Y-99496702D01*
X154857354Y-99291840D01*
X154765424Y-99149738D01*
X154738822Y-99108617D01*
X154738820Y-99108614D01*
X154736014Y-99104277D01*
X154585670Y-98939051D01*
X154581619Y-98935852D01*
X154581615Y-98935848D01*
X154414414Y-98803800D01*
X154414410Y-98803798D01*
X154410359Y-98800598D01*
X154214789Y-98692638D01*
X154209920Y-98690914D01*
X154209916Y-98690912D01*
X154009087Y-98619795D01*
X154009083Y-98619794D01*
X154004212Y-98618069D01*
X153999119Y-98617162D01*
X153999116Y-98617161D01*
X153789373Y-98579800D01*
X153789367Y-98579799D01*
X153784284Y-98578894D01*
X153710452Y-98577992D01*
X153566081Y-98576228D01*
X153566079Y-98576228D01*
X153560911Y-98576165D01*
X153340091Y-98609955D01*
X153127756Y-98679357D01*
X152929607Y-98782507D01*
X152925474Y-98785610D01*
X152925471Y-98785612D01*
X152755100Y-98913530D01*
X152750965Y-98916635D01*
X152732653Y-98935797D01*
X152619401Y-99054309D01*
X152596629Y-99078138D01*
X152470743Y-99262680D01*
X152376688Y-99465305D01*
X152316989Y-99680570D01*
X152293251Y-99902695D01*
X152293548Y-99907848D01*
X152293548Y-99907851D01*
X152303128Y-100074000D01*
X152306110Y-100125715D01*
X152307247Y-100130761D01*
X152307248Y-100130767D01*
X152318228Y-100179488D01*
X152355222Y-100343639D01*
X152357164Y-100348421D01*
X152357165Y-100348425D01*
X152438649Y-100549096D01*
X152445745Y-100619737D01*
X152413523Y-100683001D01*
X152352213Y-100718801D01*
X152321906Y-100722500D01*
X152070595Y-100722500D01*
X152002474Y-100702498D01*
X151981499Y-100685595D01*
X151426404Y-100130499D01*
X151392379Y-100068187D01*
X151389500Y-100041404D01*
X151389500Y-97934767D01*
X151390027Y-97923584D01*
X151391702Y-97916091D01*
X151391015Y-97894220D01*
X151389562Y-97848014D01*
X151389500Y-97844055D01*
X151389500Y-97816144D01*
X151388995Y-97812144D01*
X151388062Y-97800301D01*
X151386922Y-97764029D01*
X151386673Y-97756110D01*
X151381022Y-97736658D01*
X151377014Y-97717306D01*
X151375467Y-97705063D01*
X151374474Y-97697203D01*
X151371556Y-97689832D01*
X151358200Y-97656097D01*
X151354355Y-97644870D01*
X151353721Y-97642687D01*
X151342018Y-97602407D01*
X151338046Y-97595690D01*
X157363037Y-97595690D01*
X157390025Y-97818715D01*
X157456082Y-98033435D01*
X157458652Y-98038415D01*
X157458654Y-98038419D01*
X157523852Y-98164738D01*
X157559118Y-98233064D01*
X157695877Y-98411292D01*
X157862036Y-98562485D01*
X157866783Y-98565463D01*
X157866786Y-98565465D01*
X158045786Y-98677750D01*
X158052344Y-98681864D01*
X158260783Y-98765656D01*
X158480767Y-98811213D01*
X158485378Y-98811479D01*
X158485379Y-98811479D01*
X158535952Y-98814395D01*
X158535956Y-98814395D01*
X158537775Y-98814500D01*
X159202999Y-98814500D01*
X159205786Y-98814251D01*
X159205792Y-98814251D01*
X159276660Y-98807926D01*
X159369762Y-98799617D01*
X159375176Y-98798136D01*
X159375181Y-98798135D01*
X159502912Y-98763191D01*
X159586451Y-98740337D01*
X159591509Y-98737925D01*
X159591513Y-98737923D01*
X159714298Y-98679357D01*
X159789218Y-98643622D01*
X159971654Y-98512529D01*
X160036661Y-98445447D01*
X160124089Y-98355229D01*
X160124091Y-98355226D01*
X160127992Y-98351201D01*
X160253290Y-98164738D01*
X160343588Y-97959033D01*
X160351422Y-97926405D01*
X160394722Y-97746046D01*
X160394722Y-97746045D01*
X160396032Y-97740589D01*
X160404710Y-97590083D01*
X160408640Y-97521917D01*
X160408640Y-97521914D01*
X160408963Y-97516310D01*
X160381975Y-97293285D01*
X160315918Y-97078565D01*
X160250798Y-96952396D01*
X160215454Y-96883919D01*
X160215454Y-96883918D01*
X160212882Y-96878936D01*
X160076123Y-96700708D01*
X159909964Y-96549515D01*
X159905217Y-96546537D01*
X159905214Y-96546535D01*
X159724405Y-96433115D01*
X159719656Y-96430136D01*
X159511217Y-96346344D01*
X159291233Y-96300787D01*
X159286622Y-96300521D01*
X159286621Y-96300521D01*
X159236048Y-96297605D01*
X159236044Y-96297605D01*
X159234225Y-96297500D01*
X158569001Y-96297500D01*
X158566214Y-96297749D01*
X158566208Y-96297749D01*
X158496071Y-96304009D01*
X158402238Y-96312383D01*
X158396824Y-96313864D01*
X158396819Y-96313865D01*
X158282262Y-96345205D01*
X158185549Y-96371663D01*
X158180491Y-96374075D01*
X158180487Y-96374077D01*
X158084165Y-96420021D01*
X157982782Y-96468378D01*
X157800346Y-96599471D01*
X157796439Y-96603503D01*
X157666137Y-96737964D01*
X157644008Y-96760799D01*
X157518710Y-96947262D01*
X157428412Y-97152967D01*
X157375968Y-97371411D01*
X157375645Y-97377016D01*
X157364679Y-97567218D01*
X157363037Y-97595690D01*
X151338046Y-97595690D01*
X151337984Y-97595585D01*
X151337981Y-97595579D01*
X151331706Y-97584968D01*
X151323010Y-97567218D01*
X151318472Y-97555756D01*
X151318469Y-97555751D01*
X151315552Y-97548383D01*
X151289573Y-97512625D01*
X151283057Y-97502707D01*
X151264575Y-97471457D01*
X151260542Y-97464637D01*
X151246218Y-97450313D01*
X151233376Y-97435278D01*
X151221472Y-97418893D01*
X151187406Y-97390711D01*
X151178627Y-97382722D01*
X150059652Y-96263747D01*
X150052112Y-96255461D01*
X150048000Y-96248982D01*
X149998348Y-96202356D01*
X149995507Y-96199602D01*
X149975770Y-96179865D01*
X149972573Y-96177385D01*
X149963551Y-96169680D01*
X149937100Y-96144841D01*
X149931321Y-96139414D01*
X149924375Y-96135595D01*
X149924372Y-96135593D01*
X149913566Y-96129652D01*
X149897047Y-96118801D01*
X149896583Y-96118441D01*
X149881041Y-96106386D01*
X149873772Y-96103241D01*
X149873768Y-96103238D01*
X149840463Y-96088826D01*
X149829813Y-96083609D01*
X149791060Y-96062305D01*
X149771437Y-96057267D01*
X149752734Y-96050863D01*
X149741420Y-96045967D01*
X149741419Y-96045967D01*
X149734145Y-96042819D01*
X149726322Y-96041580D01*
X149726312Y-96041577D01*
X149690476Y-96035901D01*
X149678856Y-96033495D01*
X149643711Y-96024472D01*
X149643710Y-96024472D01*
X149636030Y-96022500D01*
X149615776Y-96022500D01*
X149596065Y-96020949D01*
X149583886Y-96019020D01*
X149576057Y-96017780D01*
X149568165Y-96018526D01*
X149532039Y-96021941D01*
X149520181Y-96022500D01*
X147470595Y-96022500D01*
X147402474Y-96002498D01*
X147381499Y-95985595D01*
X146526404Y-95130499D01*
X146492379Y-95068187D01*
X146489500Y-95041404D01*
X146489500Y-94056000D01*
X147592835Y-94056000D01*
X147593223Y-94060931D01*
X147593223Y-94060935D01*
X147594173Y-94073012D01*
X147594431Y-94088604D01*
X147593743Y-94103759D01*
X147593743Y-94103766D01*
X147593514Y-94108817D01*
X147594095Y-94113837D01*
X147594095Y-94113843D01*
X147604122Y-94200504D01*
X147604569Y-94205098D01*
X147610440Y-94279684D01*
X147611465Y-94292711D01*
X147612619Y-94297517D01*
X147616113Y-94312072D01*
X147618759Y-94327002D01*
X147621415Y-94349956D01*
X147622791Y-94354818D01*
X147645755Y-94435975D01*
X147647033Y-94440866D01*
X147666895Y-94523594D01*
X147675610Y-94544634D01*
X147680436Y-94558532D01*
X147687510Y-94583532D01*
X147689646Y-94588113D01*
X147689648Y-94588118D01*
X147724047Y-94661887D01*
X147726261Y-94666918D01*
X147734965Y-94687930D01*
X147757760Y-94742963D01*
X147769950Y-94762855D01*
X147771142Y-94764800D01*
X147777904Y-94777384D01*
X147790099Y-94803536D01*
X147792941Y-94807717D01*
X147792945Y-94807725D01*
X147837070Y-94872653D01*
X147840285Y-94877632D01*
X147881824Y-94945416D01*
X147885038Y-94949179D01*
X147900318Y-94967070D01*
X147908717Y-94978076D01*
X147926544Y-95004307D01*
X147930023Y-95007985D01*
X147930023Y-95007986D01*
X147981946Y-95062893D01*
X147986209Y-95067636D01*
X148032817Y-95122207D01*
X148032824Y-95122214D01*
X148036031Y-95125969D01*
X148059855Y-95146317D01*
X148069556Y-95155539D01*
X148093332Y-95180681D01*
X148097358Y-95183759D01*
X148097359Y-95183760D01*
X148155092Y-95227900D01*
X148160394Y-95232185D01*
X148216584Y-95280176D01*
X148220798Y-95282758D01*
X148220803Y-95282762D01*
X148245720Y-95298031D01*
X148256416Y-95305368D01*
X148282158Y-95325050D01*
X148282162Y-95325053D01*
X148286174Y-95328120D01*
X148290624Y-95330506D01*
X148290627Y-95330508D01*
X148352151Y-95363496D01*
X148358446Y-95367109D01*
X148419037Y-95404240D01*
X148453253Y-95418413D01*
X148464547Y-95423763D01*
X148500109Y-95442831D01*
X148568188Y-95466272D01*
X148575333Y-95468979D01*
X148638406Y-95495105D01*
X148677182Y-95504415D01*
X148688767Y-95507792D01*
X148724842Y-95520214D01*
X148724853Y-95520217D01*
X148729631Y-95521862D01*
X148797739Y-95533626D01*
X148805673Y-95535262D01*
X148864476Y-95549380D01*
X148864482Y-95549381D01*
X148869289Y-95550535D01*
X148911884Y-95553887D01*
X148923435Y-95555337D01*
X148968836Y-95563179D01*
X148972797Y-95563359D01*
X148972798Y-95563359D01*
X148996506Y-95564436D01*
X148996525Y-95564436D01*
X148997925Y-95564500D01*
X149041771Y-95564500D01*
X149051657Y-95564888D01*
X149082736Y-95567334D01*
X149106000Y-95569165D01*
X149129265Y-95567334D01*
X149160343Y-95564888D01*
X149170229Y-95564500D01*
X152581984Y-95564500D01*
X152585502Y-95564549D01*
X152680150Y-95567193D01*
X152680153Y-95567193D01*
X152685205Y-95567334D01*
X152763098Y-95556941D01*
X152769639Y-95556242D01*
X152798908Y-95553887D01*
X152842923Y-95550346D01*
X152842927Y-95550345D01*
X152847965Y-95549940D01*
X152879878Y-95542101D01*
X152893258Y-95539574D01*
X152925820Y-95535229D01*
X152930661Y-95533768D01*
X152930663Y-95533767D01*
X153001029Y-95512522D01*
X153007392Y-95510781D01*
X153018104Y-95508150D01*
X153083706Y-95492037D01*
X153113952Y-95479199D01*
X153126763Y-95474561D01*
X153153362Y-95466530D01*
X153158208Y-95465067D01*
X153162756Y-95462849D01*
X153162763Y-95462846D01*
X153228818Y-95430629D01*
X153234820Y-95427893D01*
X153290542Y-95404240D01*
X153307156Y-95397188D01*
X153334956Y-95379681D01*
X153346860Y-95373055D01*
X153376388Y-95358654D01*
X153387328Y-95350937D01*
X153440597Y-95313359D01*
X153446086Y-95309699D01*
X153508286Y-95270529D01*
X153508287Y-95270528D01*
X153512567Y-95267833D01*
X153516356Y-95264492D01*
X153516362Y-95264488D01*
X153537217Y-95246102D01*
X153547912Y-95237656D01*
X153550863Y-95235574D01*
X153574747Y-95218726D01*
X153596250Y-95199091D01*
X153635966Y-95159375D01*
X153641736Y-95153956D01*
X153690858Y-95110650D01*
X153690861Y-95110647D01*
X153694655Y-95107302D01*
X153700159Y-95100602D01*
X153721179Y-95075011D01*
X153729449Y-95065892D01*
X154309608Y-94485733D01*
X161193822Y-94485733D01*
X161193975Y-94490121D01*
X161193975Y-94490127D01*
X161202952Y-94747182D01*
X161203625Y-94766458D01*
X161204387Y-94770781D01*
X161204388Y-94770788D01*
X161227847Y-94903827D01*
X161252402Y-95043087D01*
X161339203Y-95310235D01*
X161341131Y-95314188D01*
X161341133Y-95314193D01*
X161390959Y-95416350D01*
X161462340Y-95562702D01*
X161464795Y-95566341D01*
X161464798Y-95566347D01*
X161480592Y-95589762D01*
X161619415Y-95795576D01*
X161807371Y-96004322D01*
X161810733Y-96007143D01*
X161810734Y-96007144D01*
X161824299Y-96018526D01*
X162022550Y-96184879D01*
X162260764Y-96333731D01*
X162517375Y-96447982D01*
X162787390Y-96525407D01*
X162791740Y-96526018D01*
X162791743Y-96526019D01*
X162894690Y-96540487D01*
X163065552Y-96564500D01*
X163276146Y-96564500D01*
X163278332Y-96564347D01*
X163278336Y-96564347D01*
X163481827Y-96550118D01*
X163481832Y-96550117D01*
X163486212Y-96549811D01*
X163760970Y-96491409D01*
X163765099Y-96489906D01*
X163765103Y-96489905D01*
X164020781Y-96396846D01*
X164020785Y-96396844D01*
X164024926Y-96395337D01*
X164272942Y-96263464D01*
X164377896Y-96187211D01*
X164496629Y-96100947D01*
X164496632Y-96100944D01*
X164500192Y-96098358D01*
X164507404Y-96091394D01*
X164600947Y-96001060D01*
X164702252Y-95903231D01*
X164875188Y-95681882D01*
X164877384Y-95678078D01*
X164877389Y-95678071D01*
X165000366Y-95465067D01*
X165015636Y-95438619D01*
X165120862Y-95178176D01*
X165132749Y-95130499D01*
X165187753Y-94909893D01*
X165187754Y-94909888D01*
X165188817Y-94905624D01*
X165191759Y-94877639D01*
X165217719Y-94630636D01*
X165217719Y-94630633D01*
X165218178Y-94626267D01*
X165216676Y-94583247D01*
X165208529Y-94349939D01*
X165208528Y-94349933D01*
X165208375Y-94345542D01*
X165202474Y-94312072D01*
X165160360Y-94073236D01*
X165159598Y-94068913D01*
X165072797Y-93801765D01*
X165061976Y-93779577D01*
X164974112Y-93599432D01*
X164949660Y-93549298D01*
X164947205Y-93545659D01*
X164947202Y-93545653D01*
X164843586Y-93392036D01*
X164792585Y-93316424D01*
X164604629Y-93107678D01*
X164581935Y-93088635D01*
X164470236Y-92994909D01*
X164389450Y-92927121D01*
X164151236Y-92778269D01*
X163900229Y-92666513D01*
X163898639Y-92665805D01*
X163898637Y-92665804D01*
X163894625Y-92664018D01*
X163624610Y-92586593D01*
X163620260Y-92585982D01*
X163620257Y-92585981D01*
X163517310Y-92571513D01*
X163346448Y-92547500D01*
X163135854Y-92547500D01*
X163133668Y-92547653D01*
X163133664Y-92547653D01*
X162930173Y-92561882D01*
X162930168Y-92561883D01*
X162925788Y-92562189D01*
X162651030Y-92620591D01*
X162646901Y-92622094D01*
X162646897Y-92622095D01*
X162391219Y-92715154D01*
X162391215Y-92715156D01*
X162387074Y-92716663D01*
X162139058Y-92848536D01*
X162135499Y-92851122D01*
X162135497Y-92851123D01*
X161918730Y-93008613D01*
X161911808Y-93013642D01*
X161908644Y-93016698D01*
X161908641Y-93016700D01*
X161856162Y-93067379D01*
X161709748Y-93208769D01*
X161536812Y-93430118D01*
X161534616Y-93433922D01*
X161534611Y-93433929D01*
X161456822Y-93568664D01*
X161396364Y-93673381D01*
X161291138Y-93933824D01*
X161290073Y-93938097D01*
X161290072Y-93938099D01*
X161224732Y-94200165D01*
X161223183Y-94206376D01*
X161222724Y-94210744D01*
X161222723Y-94210749D01*
X161196850Y-94456922D01*
X161193822Y-94485733D01*
X154309608Y-94485733D01*
X155693936Y-93101405D01*
X155756248Y-93067379D01*
X155783031Y-93064500D01*
X158947001Y-93064500D01*
X158949509Y-93064298D01*
X158949514Y-93064298D01*
X159122924Y-93050346D01*
X159122929Y-93050345D01*
X159127965Y-93049940D01*
X159132873Y-93048734D01*
X159132876Y-93048734D01*
X159358792Y-92993244D01*
X159363706Y-92992037D01*
X159368358Y-92990062D01*
X159368362Y-92990061D01*
X159582498Y-92899165D01*
X159587156Y-92897188D01*
X159631191Y-92869458D01*
X159697928Y-92827431D01*
X159752067Y-92808724D01*
X159761398Y-92807756D01*
X159802165Y-92803526D01*
X159969945Y-92747550D01*
X160120348Y-92654478D01*
X160245305Y-92529303D01*
X160338115Y-92378738D01*
X160393797Y-92210861D01*
X160395165Y-92197515D01*
X160404172Y-92109598D01*
X160404500Y-92106400D01*
X160404500Y-91005600D01*
X160404163Y-91002350D01*
X160394238Y-90906693D01*
X160394237Y-90906689D01*
X160393526Y-90899835D01*
X160337550Y-90732055D01*
X160244478Y-90581652D01*
X160119303Y-90456695D01*
X160084703Y-90435367D01*
X159974968Y-90367725D01*
X159974966Y-90367724D01*
X159968738Y-90363885D01*
X159838635Y-90320732D01*
X159807389Y-90310368D01*
X159807387Y-90310368D01*
X159800861Y-90308203D01*
X159794025Y-90307503D01*
X159794022Y-90307502D01*
X159761880Y-90304209D01*
X159707451Y-90285122D01*
X159705826Y-90283880D01*
X159677087Y-90268470D01*
X159496352Y-90171561D01*
X159491891Y-90169169D01*
X159262369Y-90090138D01*
X159145184Y-90069897D01*
X159027074Y-90049496D01*
X159027068Y-90049495D01*
X159023164Y-90048821D01*
X159019203Y-90048641D01*
X159019202Y-90048641D01*
X158995494Y-90047564D01*
X158995475Y-90047564D01*
X158994075Y-90047500D01*
X155130016Y-90047500D01*
X155126498Y-90047451D01*
X155031850Y-90044807D01*
X155031847Y-90044807D01*
X155026795Y-90044666D01*
X154948902Y-90055059D01*
X154942361Y-90055758D01*
X154913668Y-90058067D01*
X154869077Y-90061654D01*
X154869073Y-90061655D01*
X154864035Y-90062060D01*
X154832122Y-90069899D01*
X154818742Y-90072426D01*
X154786180Y-90076771D01*
X154781339Y-90078232D01*
X154781337Y-90078233D01*
X154710971Y-90099478D01*
X154704610Y-90101219D01*
X154628294Y-90119963D01*
X154623634Y-90121941D01*
X154598049Y-90132801D01*
X154585239Y-90137438D01*
X154553792Y-90146933D01*
X154549244Y-90149151D01*
X154549237Y-90149154D01*
X154483182Y-90181371D01*
X154477180Y-90184107D01*
X154432496Y-90203075D01*
X154404844Y-90214812D01*
X154380532Y-90230123D01*
X154377044Y-90232319D01*
X154365140Y-90238945D01*
X154335612Y-90253346D01*
X154331475Y-90256265D01*
X154331474Y-90256265D01*
X154271403Y-90298641D01*
X154265914Y-90302301D01*
X154226106Y-90327370D01*
X154199433Y-90344167D01*
X154195644Y-90347508D01*
X154195638Y-90347512D01*
X154174783Y-90365898D01*
X154164088Y-90374344D01*
X154137253Y-90393274D01*
X154115750Y-90412909D01*
X154076034Y-90452625D01*
X154070264Y-90458044D01*
X154021142Y-90501350D01*
X154021139Y-90501353D01*
X154017345Y-90504698D01*
X154014135Y-90508606D01*
X154014134Y-90508607D01*
X153990821Y-90536989D01*
X153982551Y-90546108D01*
X152018064Y-92510595D01*
X151955752Y-92544621D01*
X151928969Y-92547500D01*
X150824979Y-92547500D01*
X150756858Y-92527498D01*
X150710365Y-92473842D01*
X150700261Y-92403568D01*
X150705146Y-92382564D01*
X150747502Y-92252206D01*
X150747503Y-92252203D01*
X150749542Y-92245928D01*
X150753947Y-92204022D01*
X150768814Y-92062565D01*
X150769504Y-92056000D01*
X150749542Y-91866072D01*
X150690527Y-91684444D01*
X150680081Y-91666350D01*
X150641602Y-91599703D01*
X150595040Y-91519056D01*
X150521863Y-91437785D01*
X150491147Y-91373779D01*
X150489500Y-91353476D01*
X150489500Y-83258524D01*
X150509502Y-83190403D01*
X150521858Y-83174221D01*
X150595040Y-83092944D01*
X150669388Y-82964170D01*
X150687223Y-82933279D01*
X150687224Y-82933278D01*
X150690527Y-82927556D01*
X150730023Y-82806000D01*
X152192496Y-82806000D01*
X152193186Y-82812565D01*
X152209011Y-82963128D01*
X152212458Y-82995928D01*
X152271473Y-83177556D01*
X152274776Y-83183278D01*
X152274777Y-83183279D01*
X152278890Y-83190403D01*
X152366960Y-83342944D01*
X152371378Y-83347851D01*
X152371379Y-83347852D01*
X152490325Y-83479955D01*
X152494747Y-83484866D01*
X152553276Y-83527390D01*
X152605682Y-83565465D01*
X152649248Y-83597118D01*
X152655276Y-83599802D01*
X152655278Y-83599803D01*
X152817681Y-83672109D01*
X152823712Y-83674794D01*
X152917113Y-83694647D01*
X153004056Y-83713128D01*
X153004061Y-83713128D01*
X153010513Y-83714500D01*
X153201487Y-83714500D01*
X153207939Y-83713128D01*
X153207944Y-83713128D01*
X153294887Y-83694647D01*
X153388288Y-83674794D01*
X153394319Y-83672109D01*
X153556722Y-83599803D01*
X153556724Y-83599802D01*
X153562752Y-83597118D01*
X153606319Y-83565465D01*
X153658724Y-83527390D01*
X153717253Y-83484866D01*
X153721675Y-83479955D01*
X153840621Y-83347852D01*
X153840622Y-83347851D01*
X153845040Y-83342944D01*
X153933110Y-83190403D01*
X153937223Y-83183279D01*
X153937224Y-83183278D01*
X153940527Y-83177556D01*
X153999542Y-82995928D01*
X154001734Y-82975079D01*
X154016836Y-82831385D01*
X154043849Y-82765729D01*
X154050295Y-82758305D01*
X154059644Y-82748349D01*
X154062400Y-82745505D01*
X154082135Y-82725770D01*
X154084615Y-82722573D01*
X154092320Y-82713551D01*
X154117159Y-82687100D01*
X154122586Y-82681321D01*
X154126405Y-82674375D01*
X154126407Y-82674372D01*
X154132348Y-82663566D01*
X154143199Y-82647047D01*
X154143559Y-82646583D01*
X154155614Y-82631041D01*
X154158759Y-82623772D01*
X154158762Y-82623768D01*
X154170912Y-82595690D01*
X157363037Y-82595690D01*
X157390025Y-82818715D01*
X157456082Y-83033435D01*
X157458652Y-83038415D01*
X157458654Y-83038419D01*
X157546589Y-83208789D01*
X157559118Y-83233064D01*
X157695877Y-83411292D01*
X157862036Y-83562485D01*
X157866783Y-83565463D01*
X157866786Y-83565465D01*
X158047595Y-83678885D01*
X158052344Y-83681864D01*
X158260783Y-83765656D01*
X158480767Y-83811213D01*
X158485378Y-83811479D01*
X158485379Y-83811479D01*
X158535952Y-83814395D01*
X158535956Y-83814395D01*
X158537775Y-83814500D01*
X159202999Y-83814500D01*
X159205786Y-83814251D01*
X159205792Y-83814251D01*
X159275929Y-83807991D01*
X159369762Y-83799617D01*
X159375176Y-83798136D01*
X159375181Y-83798135D01*
X159510690Y-83761063D01*
X159586451Y-83740337D01*
X159591509Y-83737925D01*
X159591513Y-83737923D01*
X159709042Y-83681864D01*
X159789218Y-83643622D01*
X159971654Y-83512529D01*
X160094663Y-83385594D01*
X160124089Y-83355229D01*
X160124091Y-83355226D01*
X160127992Y-83351201D01*
X160253290Y-83164738D01*
X160343588Y-82959033D01*
X160351493Y-82926109D01*
X160394722Y-82746046D01*
X160394722Y-82746045D01*
X160396032Y-82740589D01*
X160404796Y-82588579D01*
X160408640Y-82521917D01*
X160408640Y-82521914D01*
X160408963Y-82516310D01*
X160381975Y-82293285D01*
X160315918Y-82078565D01*
X160288155Y-82024774D01*
X160215454Y-81883919D01*
X160215454Y-81883918D01*
X160212882Y-81878936D01*
X160076123Y-81700708D01*
X159909964Y-81549515D01*
X159905217Y-81546537D01*
X159905214Y-81546535D01*
X159724405Y-81433115D01*
X159719656Y-81430136D01*
X159511217Y-81346344D01*
X159291233Y-81300787D01*
X159286622Y-81300521D01*
X159286621Y-81300521D01*
X159236048Y-81297605D01*
X159236044Y-81297605D01*
X159234225Y-81297500D01*
X158569001Y-81297500D01*
X158566214Y-81297749D01*
X158566208Y-81297749D01*
X158496071Y-81304009D01*
X158402238Y-81312383D01*
X158396824Y-81313864D01*
X158396819Y-81313865D01*
X158286506Y-81344044D01*
X158185549Y-81371663D01*
X158180491Y-81374075D01*
X158180487Y-81374077D01*
X158109021Y-81408165D01*
X157982782Y-81468378D01*
X157800346Y-81599471D01*
X157644008Y-81760799D01*
X157518710Y-81947262D01*
X157428412Y-82152967D01*
X157427103Y-82158418D01*
X157427102Y-82158422D01*
X157384977Y-82333886D01*
X157375968Y-82371411D01*
X157375645Y-82377016D01*
X157363653Y-82585011D01*
X157363037Y-82595690D01*
X154170912Y-82595690D01*
X154173174Y-82590463D01*
X154178391Y-82579813D01*
X154199695Y-82541060D01*
X154204733Y-82521437D01*
X154211137Y-82502734D01*
X154216033Y-82491420D01*
X154216033Y-82491419D01*
X154219181Y-82484145D01*
X154220420Y-82476322D01*
X154220423Y-82476312D01*
X154226099Y-82440476D01*
X154228505Y-82428856D01*
X154237528Y-82393711D01*
X154237528Y-82393710D01*
X154239500Y-82386030D01*
X154239500Y-82365776D01*
X154241051Y-82346065D01*
X154242980Y-82333886D01*
X154244220Y-82326057D01*
X154240059Y-82282038D01*
X154239500Y-82270181D01*
X154239500Y-79485733D01*
X161193822Y-79485733D01*
X161193975Y-79490121D01*
X161193975Y-79490127D01*
X161202780Y-79742254D01*
X161203625Y-79766458D01*
X161204387Y-79770781D01*
X161204388Y-79770788D01*
X161228164Y-79905624D01*
X161252402Y-80043087D01*
X161339203Y-80310235D01*
X161341131Y-80314188D01*
X161341133Y-80314193D01*
X161382111Y-80398209D01*
X161462340Y-80562702D01*
X161464795Y-80566341D01*
X161464798Y-80566347D01*
X161537890Y-80674710D01*
X161619415Y-80795576D01*
X161622360Y-80798847D01*
X161622361Y-80798848D01*
X161633302Y-80810999D01*
X161807371Y-81004322D01*
X162022550Y-81184879D01*
X162260764Y-81333731D01*
X162369279Y-81382045D01*
X162464769Y-81424560D01*
X162517375Y-81447982D01*
X162787390Y-81525407D01*
X162791740Y-81526018D01*
X162791743Y-81526019D01*
X162894690Y-81540487D01*
X163065552Y-81564500D01*
X163276146Y-81564500D01*
X163278332Y-81564347D01*
X163278336Y-81564347D01*
X163481827Y-81550118D01*
X163481832Y-81550117D01*
X163486212Y-81549811D01*
X163760970Y-81491409D01*
X163765099Y-81489906D01*
X163765103Y-81489905D01*
X164020781Y-81396846D01*
X164020785Y-81396844D01*
X164024926Y-81395337D01*
X164272942Y-81263464D01*
X164283063Y-81256111D01*
X164496629Y-81100947D01*
X164496632Y-81100944D01*
X164500192Y-81098358D01*
X164702252Y-80903231D01*
X164875188Y-80681882D01*
X164877384Y-80678078D01*
X164877389Y-80678071D01*
X165012268Y-80444453D01*
X165015636Y-80438619D01*
X165120862Y-80178176D01*
X165142113Y-80092944D01*
X165187753Y-79909893D01*
X165187754Y-79909888D01*
X165188817Y-79905624D01*
X165189899Y-79895337D01*
X165217719Y-79630636D01*
X165217719Y-79630633D01*
X165218178Y-79626267D01*
X165217836Y-79616459D01*
X165208529Y-79349939D01*
X165208528Y-79349933D01*
X165208375Y-79345542D01*
X165200761Y-79302357D01*
X165171246Y-79134973D01*
X165159598Y-79068913D01*
X165072797Y-78801765D01*
X165041805Y-78738221D01*
X164973339Y-78597847D01*
X164949660Y-78549298D01*
X164947205Y-78545659D01*
X164947202Y-78545653D01*
X164863305Y-78421271D01*
X164792585Y-78316424D01*
X164604629Y-78107678D01*
X164389450Y-77927121D01*
X164151236Y-77778269D01*
X163942214Y-77685206D01*
X163898639Y-77665805D01*
X163898637Y-77665804D01*
X163894625Y-77664018D01*
X163624610Y-77586593D01*
X163620260Y-77585982D01*
X163620257Y-77585981D01*
X163517310Y-77571513D01*
X163346448Y-77547500D01*
X163135854Y-77547500D01*
X163133668Y-77547653D01*
X163133664Y-77547653D01*
X162930173Y-77561882D01*
X162930168Y-77561883D01*
X162925788Y-77562189D01*
X162651030Y-77620591D01*
X162646901Y-77622094D01*
X162646897Y-77622095D01*
X162391219Y-77715154D01*
X162391215Y-77715156D01*
X162387074Y-77716663D01*
X162139058Y-77848536D01*
X162135499Y-77851122D01*
X162135497Y-77851123D01*
X161944174Y-77990127D01*
X161911808Y-78013642D01*
X161709748Y-78208769D01*
X161536812Y-78430118D01*
X161534616Y-78433922D01*
X161534611Y-78433929D01*
X161420794Y-78631067D01*
X161396364Y-78673381D01*
X161291138Y-78933824D01*
X161290073Y-78938097D01*
X161290072Y-78938099D01*
X161227559Y-79188826D01*
X161223183Y-79206376D01*
X161222724Y-79210744D01*
X161222723Y-79210749D01*
X161194281Y-79481364D01*
X161193822Y-79485733D01*
X154239500Y-79485733D01*
X154239500Y-77808453D01*
X154259502Y-77740332D01*
X154313158Y-77693839D01*
X154339302Y-77685206D01*
X154388288Y-77674794D01*
X154408478Y-77665805D01*
X154556722Y-77599803D01*
X154556724Y-77599802D01*
X154562752Y-77597118D01*
X154577239Y-77586593D01*
X154631045Y-77547500D01*
X154717253Y-77484866D01*
X154759362Y-77438099D01*
X154840621Y-77347852D01*
X154840622Y-77347851D01*
X154845040Y-77342944D01*
X154917529Y-77217389D01*
X154937223Y-77183279D01*
X154937224Y-77183278D01*
X154940527Y-77177556D01*
X154963647Y-77106400D01*
X157367500Y-77106400D01*
X157367837Y-77109646D01*
X157367837Y-77109650D01*
X157376163Y-77189891D01*
X157378474Y-77212165D01*
X157380655Y-77218701D01*
X157380655Y-77218703D01*
X157400476Y-77278114D01*
X157434450Y-77379945D01*
X157527522Y-77530348D01*
X157652697Y-77655305D01*
X157658927Y-77659145D01*
X157658928Y-77659146D01*
X157796090Y-77743694D01*
X157803262Y-77748115D01*
X157883005Y-77774564D01*
X157964611Y-77801632D01*
X157964613Y-77801632D01*
X157971139Y-77803797D01*
X157977975Y-77804497D01*
X157977978Y-77804498D01*
X158016581Y-77808453D01*
X158075600Y-77814500D01*
X159696400Y-77814500D01*
X159699646Y-77814163D01*
X159699650Y-77814163D01*
X159795307Y-77804238D01*
X159795311Y-77804237D01*
X159802165Y-77803526D01*
X159808701Y-77801345D01*
X159808703Y-77801345D01*
X159940805Y-77757272D01*
X159969945Y-77747550D01*
X160120348Y-77654478D01*
X160245305Y-77529303D01*
X160249146Y-77523072D01*
X160334275Y-77384968D01*
X160334276Y-77384966D01*
X160338115Y-77378738D01*
X160393797Y-77210861D01*
X160397210Y-77177556D01*
X160404172Y-77109598D01*
X160404500Y-77106400D01*
X160404500Y-76005600D01*
X160399717Y-75959502D01*
X160394238Y-75906693D01*
X160394237Y-75906689D01*
X160393526Y-75899835D01*
X160380789Y-75861656D01*
X160339868Y-75739003D01*
X160337550Y-75732055D01*
X160244478Y-75581652D01*
X160119303Y-75456695D01*
X160086797Y-75436658D01*
X159974968Y-75367725D01*
X159974966Y-75367724D01*
X159968738Y-75363885D01*
X159808254Y-75310655D01*
X159807389Y-75310368D01*
X159807387Y-75310368D01*
X159800861Y-75308203D01*
X159794025Y-75307503D01*
X159794022Y-75307502D01*
X159743765Y-75302353D01*
X159696400Y-75297500D01*
X158075600Y-75297500D01*
X158072354Y-75297837D01*
X158072350Y-75297837D01*
X157976693Y-75307762D01*
X157976689Y-75307763D01*
X157969835Y-75308474D01*
X157963299Y-75310655D01*
X157963297Y-75310655D01*
X157860758Y-75344865D01*
X157802055Y-75364450D01*
X157651652Y-75457522D01*
X157526695Y-75582697D01*
X157522855Y-75588927D01*
X157522854Y-75588928D01*
X157438112Y-75726405D01*
X157433885Y-75733262D01*
X157419008Y-75778114D01*
X157392091Y-75859269D01*
X157378203Y-75901139D01*
X157377503Y-75907975D01*
X157377502Y-75907978D01*
X157374232Y-75939891D01*
X157367500Y-76005600D01*
X157367500Y-77106400D01*
X154963647Y-77106400D01*
X154999542Y-76995928D01*
X155010737Y-76889419D01*
X155018814Y-76812565D01*
X155019504Y-76806000D01*
X155013190Y-76745928D01*
X155000232Y-76622635D01*
X155000232Y-76622633D01*
X154999542Y-76616072D01*
X154940527Y-76434444D01*
X154845040Y-76269056D01*
X154796507Y-76215154D01*
X154721675Y-76132045D01*
X154721674Y-76132044D01*
X154717253Y-76127134D01*
X154562752Y-76014882D01*
X154556724Y-76012198D01*
X154556722Y-76012197D01*
X154394319Y-75939891D01*
X154394318Y-75939891D01*
X154388288Y-75937206D01*
X154294887Y-75917353D01*
X154207944Y-75898872D01*
X154207939Y-75898872D01*
X154201487Y-75897500D01*
X154010513Y-75897500D01*
X154004061Y-75898872D01*
X154004056Y-75898872D01*
X153917113Y-75917353D01*
X153823712Y-75937206D01*
X153817682Y-75939891D01*
X153817681Y-75939891D01*
X153655278Y-76012197D01*
X153655276Y-76012198D01*
X153649248Y-76014882D01*
X153494747Y-76127134D01*
X153490326Y-76132044D01*
X153490325Y-76132045D01*
X153415494Y-76215154D01*
X153366960Y-76269056D01*
X153271473Y-76434444D01*
X153212458Y-76616072D01*
X153211769Y-76622631D01*
X153211768Y-76622634D01*
X153195164Y-76780615D01*
X153168151Y-76846271D01*
X153161705Y-76853695D01*
X153152356Y-76863651D01*
X153149600Y-76866495D01*
X153129865Y-76886230D01*
X153127385Y-76889427D01*
X153119682Y-76898447D01*
X153089414Y-76930679D01*
X153085595Y-76937625D01*
X153085593Y-76937628D01*
X153079652Y-76948434D01*
X153068801Y-76964953D01*
X153056386Y-76980959D01*
X153053241Y-76988228D01*
X153053238Y-76988232D01*
X153038826Y-77021537D01*
X153033609Y-77032187D01*
X153012305Y-77070940D01*
X153010334Y-77078615D01*
X153010334Y-77078616D01*
X153007267Y-77090562D01*
X153000863Y-77109266D01*
X152992819Y-77127855D01*
X152991580Y-77135678D01*
X152991577Y-77135688D01*
X152985901Y-77171524D01*
X152983495Y-77183144D01*
X152978135Y-77204022D01*
X152972500Y-77225970D01*
X152972500Y-77246224D01*
X152970949Y-77265934D01*
X152967780Y-77285943D01*
X152968526Y-77293835D01*
X152971941Y-77329961D01*
X152972500Y-77341819D01*
X152972500Y-81803547D01*
X152952498Y-81871668D01*
X152898842Y-81918161D01*
X152872698Y-81926794D01*
X152823712Y-81937206D01*
X152817682Y-81939891D01*
X152817681Y-81939891D01*
X152655278Y-82012197D01*
X152655276Y-82012198D01*
X152649248Y-82014882D01*
X152494747Y-82127134D01*
X152366960Y-82269056D01*
X152271473Y-82434444D01*
X152212458Y-82616072D01*
X152211768Y-82622633D01*
X152211768Y-82622635D01*
X152199391Y-82740393D01*
X152192496Y-82806000D01*
X150730023Y-82806000D01*
X150749542Y-82745928D01*
X150751221Y-82729958D01*
X150768814Y-82562565D01*
X150769504Y-82556000D01*
X150765871Y-82521438D01*
X150750232Y-82372635D01*
X150750232Y-82372633D01*
X150749542Y-82366072D01*
X150690527Y-82184444D01*
X150595040Y-82019056D01*
X150521863Y-81937785D01*
X150491147Y-81873779D01*
X150489500Y-81853476D01*
X150489500Y-77258524D01*
X150509502Y-77190403D01*
X150521858Y-77174221D01*
X150595040Y-77092944D01*
X150690527Y-76927556D01*
X150749542Y-76745928D01*
X150762501Y-76622635D01*
X150768814Y-76562565D01*
X150769504Y-76556000D01*
X150761922Y-76483861D01*
X150750232Y-76372635D01*
X150750232Y-76372633D01*
X150749542Y-76366072D01*
X150719877Y-76274774D01*
X150697940Y-76207257D01*
X150695913Y-76136289D01*
X150728678Y-76079226D01*
X151081499Y-75726405D01*
X151143811Y-75692379D01*
X151170594Y-75689500D01*
X152147800Y-75689500D01*
X152215921Y-75709502D01*
X152235147Y-75725843D01*
X152235420Y-75725540D01*
X152240332Y-75729963D01*
X152244747Y-75734866D01*
X152250441Y-75739003D01*
X152391955Y-75841819D01*
X152399248Y-75847118D01*
X152405276Y-75849802D01*
X152405278Y-75849803D01*
X152567681Y-75922109D01*
X152573712Y-75924794D01*
X152645528Y-75940059D01*
X152754056Y-75963128D01*
X152754061Y-75963128D01*
X152760513Y-75964500D01*
X152951487Y-75964500D01*
X152957939Y-75963128D01*
X152957944Y-75963128D01*
X153066472Y-75940059D01*
X153138288Y-75924794D01*
X153144319Y-75922109D01*
X153306722Y-75849803D01*
X153306724Y-75849802D01*
X153312752Y-75847118D01*
X153320046Y-75841819D01*
X153398784Y-75784612D01*
X153467253Y-75734866D01*
X153475377Y-75725843D01*
X153590621Y-75597852D01*
X153590622Y-75597851D01*
X153595040Y-75592944D01*
X153690527Y-75427556D01*
X153749542Y-75245928D01*
X153759592Y-75150313D01*
X153768814Y-75062565D01*
X153769504Y-75056000D01*
X153759743Y-74963128D01*
X153750232Y-74872635D01*
X153750232Y-74872633D01*
X153749542Y-74866072D01*
X153690527Y-74684444D01*
X153683406Y-74672109D01*
X153640109Y-74597118D01*
X153595040Y-74519056D01*
X153578881Y-74501109D01*
X153471675Y-74382045D01*
X153471674Y-74382044D01*
X153467253Y-74377134D01*
X153312752Y-74264882D01*
X153306724Y-74262198D01*
X153306722Y-74262197D01*
X153144319Y-74189891D01*
X153144318Y-74189891D01*
X153138288Y-74187206D01*
X153044887Y-74167353D01*
X152957944Y-74148872D01*
X152957939Y-74148872D01*
X152951487Y-74147500D01*
X152760513Y-74147500D01*
X152754061Y-74148872D01*
X152754056Y-74148872D01*
X152667113Y-74167353D01*
X152573712Y-74187206D01*
X152567682Y-74189891D01*
X152567681Y-74189891D01*
X152405278Y-74262197D01*
X152405276Y-74262198D01*
X152399248Y-74264882D01*
X152393907Y-74268762D01*
X152393906Y-74268763D01*
X152301543Y-74335869D01*
X152244747Y-74377134D01*
X152240332Y-74382037D01*
X152235420Y-74386460D01*
X152234295Y-74385211D01*
X152180986Y-74418051D01*
X152147800Y-74422500D01*
X150934768Y-74422500D01*
X150923585Y-74421973D01*
X150916092Y-74420298D01*
X150908166Y-74420547D01*
X150908165Y-74420547D01*
X150848002Y-74422438D01*
X150844044Y-74422500D01*
X150816144Y-74422500D01*
X150812154Y-74423004D01*
X150800320Y-74423936D01*
X150756111Y-74425326D01*
X150748495Y-74427539D01*
X150748493Y-74427539D01*
X150736652Y-74430979D01*
X150717293Y-74434988D01*
X150715983Y-74435154D01*
X150697203Y-74437526D01*
X150689837Y-74440442D01*
X150689831Y-74440444D01*
X150656098Y-74453800D01*
X150644868Y-74457645D01*
X150610017Y-74467770D01*
X150602407Y-74469981D01*
X150595584Y-74474016D01*
X150584966Y-74480295D01*
X150567213Y-74488992D01*
X150559568Y-74492019D01*
X150548383Y-74496448D01*
X150541968Y-74501109D01*
X150512612Y-74522437D01*
X150502695Y-74528951D01*
X150464638Y-74551458D01*
X150450317Y-74565779D01*
X150435284Y-74578619D01*
X150418893Y-74590528D01*
X150413843Y-74596632D01*
X150413838Y-74596637D01*
X150390707Y-74624598D01*
X150382717Y-74633379D01*
X149463742Y-75552353D01*
X149455463Y-75559887D01*
X149448982Y-75564000D01*
X149424039Y-75590562D01*
X149402357Y-75613651D01*
X149399602Y-75616493D01*
X149379865Y-75636230D01*
X149377385Y-75639427D01*
X149369682Y-75648447D01*
X149339414Y-75680679D01*
X149335595Y-75687625D01*
X149335593Y-75687628D01*
X149329652Y-75698434D01*
X149318801Y-75714953D01*
X149306386Y-75730959D01*
X149303241Y-75738228D01*
X149303238Y-75738232D01*
X149288826Y-75771537D01*
X149283609Y-75782187D01*
X149262305Y-75820940D01*
X149260334Y-75828615D01*
X149260334Y-75828616D01*
X149257267Y-75840562D01*
X149250862Y-75859269D01*
X149249829Y-75861656D01*
X149227829Y-75895923D01*
X149222657Y-75901667D01*
X149122271Y-76013158D01*
X149116960Y-76019056D01*
X149021473Y-76184444D01*
X148962458Y-76366072D01*
X148961768Y-76372633D01*
X148961768Y-76372635D01*
X148950078Y-76483861D01*
X148942496Y-76556000D01*
X148943186Y-76562565D01*
X148949500Y-76622635D01*
X148962458Y-76745928D01*
X149021473Y-76927556D01*
X149116960Y-77092944D01*
X149190137Y-77174215D01*
X149220853Y-77238221D01*
X149222500Y-77258524D01*
X149222500Y-81853476D01*
X149202498Y-81921597D01*
X149190142Y-81937779D01*
X149116960Y-82019056D01*
X149021473Y-82184444D01*
X148962458Y-82366072D01*
X148961768Y-82372633D01*
X148961768Y-82372635D01*
X148946129Y-82521438D01*
X148942496Y-82556000D01*
X148943186Y-82562565D01*
X148960780Y-82729958D01*
X148962458Y-82745928D01*
X149021473Y-82927556D01*
X149024776Y-82933278D01*
X149024777Y-82933279D01*
X149042612Y-82964170D01*
X149116960Y-83092944D01*
X149190137Y-83174215D01*
X149220853Y-83238221D01*
X149222500Y-83258524D01*
X149222500Y-91353476D01*
X149202498Y-91421597D01*
X149190142Y-91437779D01*
X149116960Y-91519056D01*
X149070398Y-91599703D01*
X149031920Y-91666350D01*
X149021473Y-91684444D01*
X148962458Y-91866072D01*
X148942496Y-92056000D01*
X148943186Y-92062565D01*
X148958054Y-92204022D01*
X148962458Y-92245928D01*
X149007636Y-92384968D01*
X149010713Y-92394439D01*
X149012741Y-92465407D01*
X148976078Y-92526205D01*
X148912366Y-92557531D01*
X148900769Y-92558987D01*
X148869289Y-92561465D01*
X148868210Y-92561724D01*
X148864035Y-92562060D01*
X148743922Y-92591563D01*
X148743688Y-92591619D01*
X148638406Y-92616895D01*
X148635926Y-92617922D01*
X148634457Y-92618341D01*
X148633209Y-92618756D01*
X148628294Y-92619963D01*
X148623638Y-92621939D01*
X148623636Y-92621940D01*
X148623271Y-92622095D01*
X148519536Y-92666128D01*
X148518720Y-92666471D01*
X148419037Y-92707760D01*
X148415163Y-92710134D01*
X148410592Y-92712266D01*
X148409512Y-92712831D01*
X148404844Y-92714812D01*
X148308227Y-92775655D01*
X148307042Y-92776391D01*
X148216584Y-92831824D01*
X148212816Y-92835042D01*
X148208990Y-92837822D01*
X148204813Y-92840650D01*
X148203721Y-92841467D01*
X148199433Y-92844167D01*
X148195639Y-92847512D01*
X148116422Y-92917350D01*
X148114928Y-92918646D01*
X148036031Y-92986031D01*
X148032822Y-92989788D01*
X148029317Y-92993293D01*
X148029236Y-92993212D01*
X148021764Y-93000802D01*
X148017345Y-93004698D01*
X148014130Y-93008612D01*
X148014129Y-93008613D01*
X147949189Y-93087672D01*
X147947637Y-93089526D01*
X147881824Y-93166584D01*
X147878886Y-93171379D01*
X147868821Y-93185514D01*
X147866480Y-93188364D01*
X147866475Y-93188372D01*
X147863266Y-93192278D01*
X147860724Y-93196646D01*
X147810792Y-93282437D01*
X147809361Y-93284832D01*
X147757760Y-93369037D01*
X147755868Y-93373606D01*
X147755867Y-93373607D01*
X147754514Y-93376874D01*
X147747006Y-93392033D01*
X147741159Y-93402078D01*
X147704881Y-93496586D01*
X147703659Y-93499648D01*
X147666895Y-93588406D01*
X147665739Y-93593220D01*
X147665739Y-93593221D01*
X147664248Y-93599432D01*
X147659360Y-93615174D01*
X147654167Y-93628702D01*
X147653133Y-93633652D01*
X147634085Y-93724829D01*
X147633267Y-93728476D01*
X147624241Y-93766072D01*
X147611465Y-93819289D01*
X147611077Y-93824222D01*
X147610351Y-93833440D01*
X147608078Y-93849315D01*
X147604526Y-93866320D01*
X147604297Y-93871370D01*
X147604296Y-93871375D01*
X147603414Y-93890804D01*
X147600388Y-93957453D01*
X147600206Y-93961455D01*
X147599949Y-93965608D01*
X147592835Y-94056000D01*
X146489500Y-94056000D01*
X146489500Y-85070594D01*
X146509502Y-85002473D01*
X146526405Y-84981499D01*
X147148247Y-84359657D01*
X147156537Y-84352113D01*
X147163018Y-84348000D01*
X147209659Y-84298332D01*
X147212413Y-84295491D01*
X147232134Y-84275770D01*
X147234612Y-84272575D01*
X147242318Y-84263553D01*
X147267158Y-84237101D01*
X147272586Y-84231321D01*
X147278732Y-84220142D01*
X147282346Y-84213568D01*
X147293199Y-84197045D01*
X147294356Y-84195553D01*
X147305613Y-84181041D01*
X147323176Y-84140457D01*
X147328383Y-84129827D01*
X147349695Y-84091060D01*
X147351666Y-84083383D01*
X147351668Y-84083378D01*
X147354732Y-84071442D01*
X147361138Y-84052730D01*
X147366033Y-84041419D01*
X147369181Y-84034145D01*
X147370421Y-84026317D01*
X147370423Y-84026310D01*
X147376099Y-83990476D01*
X147378505Y-83978856D01*
X147387528Y-83943711D01*
X147387528Y-83943710D01*
X147389500Y-83936030D01*
X147389500Y-83915776D01*
X147391051Y-83896065D01*
X147392980Y-83883886D01*
X147394220Y-83876057D01*
X147390059Y-83832038D01*
X147389500Y-83820181D01*
X147389500Y-81434768D01*
X147390027Y-81423585D01*
X147391702Y-81416092D01*
X147389562Y-81348001D01*
X147389500Y-81344044D01*
X147389500Y-81316144D01*
X147388996Y-81312153D01*
X147388063Y-81300311D01*
X147388035Y-81299404D01*
X147386674Y-81256111D01*
X147384462Y-81248497D01*
X147384461Y-81248492D01*
X147381023Y-81236659D01*
X147377012Y-81217295D01*
X147375467Y-81205064D01*
X147374474Y-81197203D01*
X147371557Y-81189836D01*
X147371556Y-81189831D01*
X147358198Y-81156092D01*
X147354354Y-81144865D01*
X147344230Y-81110022D01*
X147342018Y-81102407D01*
X147331707Y-81084972D01*
X147323012Y-81067224D01*
X147315552Y-81048383D01*
X147289564Y-81012613D01*
X147283048Y-81002693D01*
X147264580Y-80971465D01*
X147264578Y-80971462D01*
X147260542Y-80964638D01*
X147246221Y-80950317D01*
X147233380Y-80935283D01*
X147226131Y-80925306D01*
X147221472Y-80918893D01*
X147187395Y-80890702D01*
X147178616Y-80882712D01*
X145659652Y-79363747D01*
X145652112Y-79355461D01*
X145648000Y-79348982D01*
X145598348Y-79302356D01*
X145595507Y-79299602D01*
X145575770Y-79279865D01*
X145572573Y-79277385D01*
X145563551Y-79269680D01*
X145537100Y-79244841D01*
X145531321Y-79239414D01*
X145524375Y-79235595D01*
X145524372Y-79235593D01*
X145513566Y-79229652D01*
X145497047Y-79218801D01*
X145496583Y-79218441D01*
X145481041Y-79206386D01*
X145473772Y-79203241D01*
X145473768Y-79203238D01*
X145440463Y-79188826D01*
X145429813Y-79183609D01*
X145391060Y-79162305D01*
X145371437Y-79157267D01*
X145352734Y-79150863D01*
X145341420Y-79145967D01*
X145341419Y-79145967D01*
X145334145Y-79142819D01*
X145326322Y-79141580D01*
X145326312Y-79141577D01*
X145290476Y-79135901D01*
X145278856Y-79133495D01*
X145243711Y-79124472D01*
X145243710Y-79124472D01*
X145236030Y-79122500D01*
X145215776Y-79122500D01*
X145196065Y-79120949D01*
X145183886Y-79119020D01*
X145176057Y-79117780D01*
X145168165Y-79118526D01*
X145132039Y-79121941D01*
X145120181Y-79122500D01*
X144615500Y-79122500D01*
X144547379Y-79102498D01*
X144500886Y-79048842D01*
X144489500Y-78996500D01*
X144489500Y-74808453D01*
X144509502Y-74740332D01*
X144563158Y-74693839D01*
X144589302Y-74685206D01*
X144638288Y-74674794D01*
X144644319Y-74672109D01*
X144806722Y-74599803D01*
X144806724Y-74599802D01*
X144812752Y-74597118D01*
X144821823Y-74590528D01*
X144881152Y-74547422D01*
X144967253Y-74484866D01*
X144977022Y-74474016D01*
X145090621Y-74347852D01*
X145090622Y-74347851D01*
X145095040Y-74342944D01*
X145160078Y-74230295D01*
X145187223Y-74183279D01*
X145187224Y-74183278D01*
X145190527Y-74177556D01*
X145249542Y-73995928D01*
X145252990Y-73963128D01*
X145269504Y-73806000D01*
X145271541Y-73806214D01*
X145288816Y-73747379D01*
X145342472Y-73700886D01*
X145394814Y-73689500D01*
X147647800Y-73689500D01*
X147715921Y-73709502D01*
X147735147Y-73725843D01*
X147735420Y-73725540D01*
X147740332Y-73729963D01*
X147744747Y-73734866D01*
X147899248Y-73847118D01*
X147905276Y-73849802D01*
X147905278Y-73849803D01*
X147952625Y-73870883D01*
X148073712Y-73924794D01*
X148167112Y-73944647D01*
X148254056Y-73963128D01*
X148254061Y-73963128D01*
X148260513Y-73964500D01*
X148451487Y-73964500D01*
X148457939Y-73963128D01*
X148457944Y-73963128D01*
X148544888Y-73944647D01*
X148638288Y-73924794D01*
X148759375Y-73870883D01*
X148806722Y-73849803D01*
X148806724Y-73849802D01*
X148812752Y-73847118D01*
X148967253Y-73734866D01*
X149095040Y-73592944D01*
X149190527Y-73427556D01*
X149249542Y-73245928D01*
X149251137Y-73230759D01*
X149268814Y-73062565D01*
X149269504Y-73056000D01*
X149259754Y-72963233D01*
X149272526Y-72893396D01*
X149314264Y-72849199D01*
X149312752Y-72847118D01*
X149327113Y-72836684D01*
X149467253Y-72734866D01*
X149542699Y-72651075D01*
X149590621Y-72597852D01*
X149590622Y-72597851D01*
X149595040Y-72592944D01*
X149670824Y-72461683D01*
X149687223Y-72433279D01*
X149687224Y-72433278D01*
X149690527Y-72427556D01*
X149749542Y-72245928D01*
X149753317Y-72210017D01*
X149768814Y-72062565D01*
X149769504Y-72056000D01*
X149749542Y-71866072D01*
X149690527Y-71684444D01*
X149595040Y-71519056D01*
X149573927Y-71495607D01*
X149471675Y-71382045D01*
X149471674Y-71382044D01*
X149467253Y-71377134D01*
X149312752Y-71264882D01*
X149306724Y-71262198D01*
X149306722Y-71262197D01*
X149144319Y-71189891D01*
X149144318Y-71189891D01*
X149138288Y-71187206D01*
X149044887Y-71167353D01*
X148957944Y-71148872D01*
X148957939Y-71148872D01*
X148951487Y-71147500D01*
X148760513Y-71147500D01*
X148754061Y-71148872D01*
X148754056Y-71148872D01*
X148667113Y-71167353D01*
X148573712Y-71187206D01*
X148567682Y-71189891D01*
X148567681Y-71189891D01*
X148405278Y-71262197D01*
X148405276Y-71262198D01*
X148399248Y-71264882D01*
X148306060Y-71332587D01*
X148239194Y-71356445D01*
X148170042Y-71340365D01*
X148120562Y-71289452D01*
X148106000Y-71230651D01*
X148106000Y-69688703D01*
X161746743Y-69688703D01*
X161784268Y-69973734D01*
X161860129Y-70251036D01*
X161972923Y-70515476D01*
X162120561Y-70762161D01*
X162300313Y-70986528D01*
X162508851Y-71184423D01*
X162742317Y-71352186D01*
X162746112Y-71354195D01*
X162746113Y-71354196D01*
X162767869Y-71365715D01*
X162996392Y-71486712D01*
X163266373Y-71585511D01*
X163547264Y-71646755D01*
X163575841Y-71649004D01*
X163770282Y-71664307D01*
X163770291Y-71664307D01*
X163772739Y-71664500D01*
X163928271Y-71664500D01*
X163930407Y-71664354D01*
X163930418Y-71664354D01*
X164138548Y-71650165D01*
X164138554Y-71650164D01*
X164142825Y-71649873D01*
X164147020Y-71649004D01*
X164147022Y-71649004D01*
X164283584Y-71620723D01*
X164424342Y-71591574D01*
X164695343Y-71495607D01*
X164950812Y-71363750D01*
X164954313Y-71361289D01*
X164954317Y-71361287D01*
X165095307Y-71262197D01*
X165186023Y-71198441D01*
X165396622Y-71002740D01*
X165578713Y-70780268D01*
X165728927Y-70535142D01*
X165844483Y-70271898D01*
X165923244Y-69995406D01*
X165963751Y-69710784D01*
X165963845Y-69692951D01*
X165965235Y-69427583D01*
X165965235Y-69427576D01*
X165965257Y-69423297D01*
X165927732Y-69138266D01*
X165851871Y-68860964D01*
X165739077Y-68596524D01*
X165591439Y-68349839D01*
X165411687Y-68125472D01*
X165203149Y-67927577D01*
X164969683Y-67759814D01*
X164947843Y-67748250D01*
X164875899Y-67710158D01*
X164715608Y-67625288D01*
X164445627Y-67526489D01*
X164164736Y-67465245D01*
X164133685Y-67462801D01*
X163941718Y-67447693D01*
X163941709Y-67447693D01*
X163939261Y-67447500D01*
X163783729Y-67447500D01*
X163781593Y-67447646D01*
X163781582Y-67447646D01*
X163573452Y-67461835D01*
X163573446Y-67461836D01*
X163569175Y-67462127D01*
X163564980Y-67462996D01*
X163564978Y-67462996D01*
X163428416Y-67491277D01*
X163287658Y-67520426D01*
X163016657Y-67616393D01*
X162761188Y-67748250D01*
X162757687Y-67750711D01*
X162757683Y-67750713D01*
X162744734Y-67759814D01*
X162525977Y-67913559D01*
X162315378Y-68109260D01*
X162133287Y-68331732D01*
X161983073Y-68576858D01*
X161867517Y-68840102D01*
X161788756Y-69116594D01*
X161748249Y-69401216D01*
X161748227Y-69405505D01*
X161748226Y-69405512D01*
X161746765Y-69684417D01*
X161746743Y-69688703D01*
X148106000Y-69688703D01*
X148106000Y-66190000D01*
X148126002Y-66121879D01*
X148179658Y-66075386D01*
X148232000Y-66064000D01*
X167222000Y-66064000D01*
X167290121Y-66084002D01*
G37*
%TD.AperFunction*%
%TA.AperFunction,Conductor*%
G36*
X150998012Y-101494370D02*
G01*
X151004595Y-101500499D01*
X151252343Y-101748247D01*
X151259887Y-101756537D01*
X151264000Y-101763018D01*
X151269777Y-101768443D01*
X151313667Y-101809658D01*
X151316509Y-101812413D01*
X151336231Y-101832135D01*
X151339355Y-101834558D01*
X151339359Y-101834562D01*
X151339424Y-101834612D01*
X151348445Y-101842317D01*
X151380679Y-101872586D01*
X151387627Y-101876405D01*
X151387629Y-101876407D01*
X151398432Y-101882346D01*
X151414959Y-101893202D01*
X151424698Y-101900757D01*
X151424700Y-101900758D01*
X151430960Y-101905614D01*
X151471540Y-101923174D01*
X151482188Y-101928391D01*
X151520940Y-101949695D01*
X151528616Y-101951666D01*
X151528619Y-101951667D01*
X151540562Y-101954733D01*
X151559267Y-101961137D01*
X151577855Y-101969181D01*
X151585678Y-101970420D01*
X151585688Y-101970423D01*
X151621524Y-101976099D01*
X151633144Y-101978505D01*
X151668289Y-101987528D01*
X151675970Y-101989500D01*
X151696224Y-101989500D01*
X151715934Y-101991051D01*
X151735943Y-101994220D01*
X151743835Y-101993474D01*
X151779961Y-101990059D01*
X151791819Y-101989500D01*
X152215373Y-101989500D01*
X152283494Y-102009502D01*
X152329987Y-102063158D01*
X152340091Y-102133432D01*
X152336791Y-102149167D01*
X152316989Y-102220570D01*
X152316441Y-102225700D01*
X152316440Y-102225704D01*
X152312933Y-102258522D01*
X152293251Y-102442695D01*
X152293548Y-102447848D01*
X152293548Y-102447851D01*
X152299427Y-102549811D01*
X152306110Y-102665715D01*
X152307247Y-102670761D01*
X152307248Y-102670767D01*
X152327119Y-102758939D01*
X152355222Y-102883639D01*
X152439266Y-103090616D01*
X152441965Y-103095020D01*
X152500085Y-103189864D01*
X152518623Y-103258398D01*
X152497166Y-103326075D01*
X152442527Y-103371408D01*
X152372053Y-103380004D01*
X152339470Y-103368718D01*
X152339342Y-103369042D01*
X152331968Y-103366122D01*
X152325024Y-103362305D01*
X152314057Y-103359489D01*
X152305402Y-103357267D01*
X152286698Y-103350863D01*
X152275384Y-103345967D01*
X152275383Y-103345967D01*
X152268109Y-103342819D01*
X152260286Y-103341580D01*
X152260276Y-103341577D01*
X152224440Y-103335901D01*
X152212820Y-103333495D01*
X152177675Y-103324472D01*
X152177674Y-103324472D01*
X152169994Y-103322500D01*
X152149740Y-103322500D01*
X152130029Y-103320949D01*
X152117850Y-103319020D01*
X152110021Y-103317780D01*
X152102129Y-103318526D01*
X152066003Y-103321941D01*
X152054145Y-103322500D01*
X150970595Y-103322500D01*
X150902474Y-103302498D01*
X150881499Y-103285595D01*
X150826404Y-103230499D01*
X150792379Y-103168186D01*
X150789500Y-103141404D01*
X150789500Y-101589594D01*
X150809502Y-101521473D01*
X150863158Y-101474980D01*
X150933432Y-101464876D01*
X150998012Y-101494370D01*
G37*
%TD.AperFunction*%
%TA.AperFunction,Conductor*%
G36*
X128106072Y-66084002D02*
G01*
X128152565Y-66137658D01*
X128162669Y-66207932D01*
X128133175Y-66272512D01*
X128112014Y-66291934D01*
X127994747Y-66377134D01*
X127866960Y-66519056D01*
X127771473Y-66684444D01*
X127712458Y-66866072D01*
X127692496Y-67056000D01*
X127712458Y-67245928D01*
X127771473Y-67427556D01*
X127866960Y-67592944D01*
X127940137Y-67674215D01*
X127970853Y-67738221D01*
X127972500Y-67758524D01*
X127972500Y-71977233D01*
X127971973Y-71988416D01*
X127970298Y-71995909D01*
X127970547Y-72003835D01*
X127970547Y-72003836D01*
X127972438Y-72063986D01*
X127972500Y-72067945D01*
X127972500Y-72095856D01*
X127972997Y-72099790D01*
X127972997Y-72099791D01*
X127973005Y-72099856D01*
X127973938Y-72111693D01*
X127975327Y-72155889D01*
X127980978Y-72175339D01*
X127984987Y-72194700D01*
X127985961Y-72202406D01*
X127987526Y-72214797D01*
X127990445Y-72222168D01*
X127990445Y-72222170D01*
X128003804Y-72255912D01*
X128007649Y-72267142D01*
X128019982Y-72309593D01*
X128024015Y-72316412D01*
X128024017Y-72316417D01*
X128030293Y-72327028D01*
X128038988Y-72344776D01*
X128046448Y-72363617D01*
X128051110Y-72370033D01*
X128051110Y-72370034D01*
X128072436Y-72399387D01*
X128078952Y-72409307D01*
X128089745Y-72427556D01*
X128101458Y-72447362D01*
X128115779Y-72461683D01*
X128128619Y-72476716D01*
X128140528Y-72493107D01*
X128146632Y-72498157D01*
X128146637Y-72498162D01*
X128174562Y-72521263D01*
X128214300Y-72580097D01*
X128215923Y-72651075D01*
X128197762Y-72687955D01*
X128198740Y-72688597D01*
X128118774Y-72810334D01*
X128116869Y-72814391D01*
X128116867Y-72814395D01*
X128086226Y-72879658D01*
X128057905Y-72939979D01*
X128056596Y-72944262D01*
X128056594Y-72944266D01*
X128035118Y-73014512D01*
X128015317Y-73079277D01*
X127993283Y-73220795D01*
X127993228Y-73225262D01*
X127993228Y-73225267D01*
X127992329Y-73298831D01*
X127991503Y-73366438D01*
X127992063Y-73370723D01*
X127992271Y-73377760D01*
X127992271Y-73767047D01*
X127992273Y-73767047D01*
X127992682Y-73770014D01*
X127991504Y-73866438D01*
X127992085Y-73870880D01*
X127992085Y-73870883D01*
X127999135Y-73924794D01*
X128010074Y-74008452D01*
X128011279Y-74012768D01*
X128012176Y-74017168D01*
X128011171Y-74017373D01*
X128010293Y-74083596D01*
X127971122Y-74142809D01*
X127906157Y-74171444D01*
X127889878Y-74172500D01*
X125934768Y-74172500D01*
X125923585Y-74171973D01*
X125916092Y-74170298D01*
X125908166Y-74170547D01*
X125908165Y-74170547D01*
X125848002Y-74172438D01*
X125844044Y-74172500D01*
X125816144Y-74172500D01*
X125812154Y-74173004D01*
X125800320Y-74173936D01*
X125756111Y-74175326D01*
X125748495Y-74177539D01*
X125748493Y-74177539D01*
X125736652Y-74180979D01*
X125717293Y-74184988D01*
X125715983Y-74185154D01*
X125697203Y-74187526D01*
X125689837Y-74190442D01*
X125689831Y-74190444D01*
X125656098Y-74203800D01*
X125644868Y-74207645D01*
X125610017Y-74217770D01*
X125602407Y-74219981D01*
X125595584Y-74224016D01*
X125584966Y-74230295D01*
X125567213Y-74238992D01*
X125559568Y-74242019D01*
X125548383Y-74246448D01*
X125541968Y-74251109D01*
X125512612Y-74272437D01*
X125502695Y-74278951D01*
X125464638Y-74301458D01*
X125450317Y-74315779D01*
X125435284Y-74328619D01*
X125418893Y-74340528D01*
X125413843Y-74346632D01*
X125413838Y-74346637D01*
X125390707Y-74374598D01*
X125382717Y-74383379D01*
X124463742Y-75302353D01*
X124455463Y-75309887D01*
X124448982Y-75314000D01*
X124419998Y-75344865D01*
X124402357Y-75363651D01*
X124399602Y-75366493D01*
X124379865Y-75386230D01*
X124377385Y-75389427D01*
X124369682Y-75398447D01*
X124339414Y-75430679D01*
X124335595Y-75437625D01*
X124335593Y-75437628D01*
X124329652Y-75448434D01*
X124318801Y-75464953D01*
X124306386Y-75480959D01*
X124303241Y-75488228D01*
X124303238Y-75488232D01*
X124288826Y-75521537D01*
X124283609Y-75532187D01*
X124262305Y-75570940D01*
X124257687Y-75588928D01*
X124257267Y-75590562D01*
X124250863Y-75609266D01*
X124248348Y-75615079D01*
X124242819Y-75627855D01*
X124241580Y-75635678D01*
X124241577Y-75635688D01*
X124235901Y-75671524D01*
X124233495Y-75683144D01*
X124224472Y-75718289D01*
X124222500Y-75725970D01*
X124222500Y-75746224D01*
X124220949Y-75765934D01*
X124217780Y-75785943D01*
X124218526Y-75793835D01*
X124221941Y-75829961D01*
X124222500Y-75841819D01*
X124222500Y-76369247D01*
X124202498Y-76437368D01*
X124148842Y-76483861D01*
X124078568Y-76493965D01*
X124015509Y-76465769D01*
X123972821Y-76429949D01*
X123972816Y-76429945D01*
X123969450Y-76427121D01*
X123731236Y-76278269D01*
X123534619Y-76190729D01*
X123478639Y-76165805D01*
X123478637Y-76165804D01*
X123474625Y-76164018D01*
X123204610Y-76086593D01*
X123200260Y-76085982D01*
X123200257Y-76085981D01*
X123097310Y-76071513D01*
X122926448Y-76047500D01*
X122715854Y-76047500D01*
X122713668Y-76047653D01*
X122713664Y-76047653D01*
X122510173Y-76061882D01*
X122510168Y-76061883D01*
X122505788Y-76062189D01*
X122231030Y-76120591D01*
X122226901Y-76122094D01*
X122226897Y-76122095D01*
X121971219Y-76215154D01*
X121971215Y-76215156D01*
X121967074Y-76216663D01*
X121719058Y-76348536D01*
X121715499Y-76351122D01*
X121715497Y-76351123D01*
X121557700Y-76465769D01*
X121491808Y-76513642D01*
X121289748Y-76708769D01*
X121116812Y-76930118D01*
X121114616Y-76933922D01*
X121114611Y-76933929D01*
X121013381Y-77109266D01*
X120976364Y-77173381D01*
X120871138Y-77433824D01*
X120870073Y-77438097D01*
X120870072Y-77438099D01*
X120806309Y-77693839D01*
X120803183Y-77706376D01*
X120802724Y-77710744D01*
X120802723Y-77710749D01*
X120785709Y-77872635D01*
X120773822Y-77985733D01*
X120773975Y-77990121D01*
X120773975Y-77990127D01*
X120782679Y-78239365D01*
X120783625Y-78266458D01*
X120832402Y-78543087D01*
X120919203Y-78810235D01*
X120921131Y-78814188D01*
X120921133Y-78814193D01*
X120963883Y-78901842D01*
X121042340Y-79062702D01*
X121044795Y-79066341D01*
X121044798Y-79066347D01*
X121080327Y-79119020D01*
X121199415Y-79295576D01*
X121202360Y-79298847D01*
X121202361Y-79298848D01*
X121262890Y-79366072D01*
X121387371Y-79504322D01*
X121390733Y-79507143D01*
X121390734Y-79507144D01*
X121439389Y-79547970D01*
X121602550Y-79684879D01*
X121840764Y-79833731D01*
X121974124Y-79893107D01*
X122077215Y-79939006D01*
X122097375Y-79947982D01*
X122367390Y-80025407D01*
X122371740Y-80026018D01*
X122371743Y-80026019D01*
X122462430Y-80038764D01*
X122645552Y-80064500D01*
X122856146Y-80064500D01*
X122858332Y-80064347D01*
X122858336Y-80064347D01*
X123061827Y-80050118D01*
X123061832Y-80050117D01*
X123066212Y-80049811D01*
X123340970Y-79991409D01*
X123345099Y-79989906D01*
X123345103Y-79989905D01*
X123600781Y-79896846D01*
X123600785Y-79896844D01*
X123604926Y-79895337D01*
X123852942Y-79763464D01*
X123868438Y-79752206D01*
X124022439Y-79640318D01*
X124089307Y-79616459D01*
X124158459Y-79632540D01*
X124207939Y-79683454D01*
X124222500Y-79742254D01*
X124222500Y-87869247D01*
X124202498Y-87937368D01*
X124148842Y-87983861D01*
X124078568Y-87993965D01*
X124015509Y-87965769D01*
X123972821Y-87929949D01*
X123972816Y-87929945D01*
X123969450Y-87927121D01*
X123731236Y-87778269D01*
X123474625Y-87664018D01*
X123204610Y-87586593D01*
X123200260Y-87585982D01*
X123200257Y-87585981D01*
X123049359Y-87564774D01*
X122984685Y-87535486D01*
X122946112Y-87475882D01*
X122945887Y-87404886D01*
X122984081Y-87345038D01*
X123048568Y-87315340D01*
X123066895Y-87314000D01*
X123230000Y-87314000D01*
X123337980Y-87302391D01*
X123341264Y-87301677D01*
X123341268Y-87301676D01*
X123366339Y-87296222D01*
X123390322Y-87291005D01*
X123493372Y-87256707D01*
X123615010Y-87178535D01*
X123668666Y-87132042D01*
X123763355Y-87022766D01*
X123823421Y-86891240D01*
X123843423Y-86823119D01*
X123844064Y-86818664D01*
X123863361Y-86684448D01*
X123863362Y-86684441D01*
X123864000Y-86680000D01*
X123864000Y-83182000D01*
X123863598Y-83178256D01*
X123859939Y-83144229D01*
X123852391Y-83074020D01*
X123841005Y-83021678D01*
X123811583Y-82933279D01*
X123809197Y-82926109D01*
X123809197Y-82926108D01*
X123806707Y-82918628D01*
X123728535Y-82796990D01*
X123682042Y-82743334D01*
X123672270Y-82734866D01*
X123617145Y-82687100D01*
X123572766Y-82648645D01*
X123441240Y-82588579D01*
X123411348Y-82579802D01*
X123377442Y-82569846D01*
X123377438Y-82569845D01*
X123373119Y-82568577D01*
X123368671Y-82567937D01*
X123368664Y-82567936D01*
X123234448Y-82548639D01*
X123234441Y-82548638D01*
X123230000Y-82548000D01*
X119232000Y-82548000D01*
X119124020Y-82559609D01*
X119120736Y-82560323D01*
X119120732Y-82560324D01*
X119103834Y-82564000D01*
X119071678Y-82570995D01*
X118968628Y-82605293D01*
X118846990Y-82683465D01*
X118793334Y-82729958D01*
X118790393Y-82733352D01*
X118781542Y-82743567D01*
X118698645Y-82839234D01*
X118638579Y-82970760D01*
X118637311Y-82975079D01*
X118623689Y-83021472D01*
X118618577Y-83038881D01*
X118615463Y-83060542D01*
X118614718Y-83065722D01*
X118585224Y-83130302D01*
X118525498Y-83168686D01*
X118454502Y-83168686D01*
X118394776Y-83130302D01*
X118365283Y-83065722D01*
X118364000Y-83047790D01*
X118364000Y-69688703D01*
X119746743Y-69688703D01*
X119784268Y-69973734D01*
X119860129Y-70251036D01*
X119972923Y-70515476D01*
X120120561Y-70762161D01*
X120300313Y-70986528D01*
X120508851Y-71184423D01*
X120742317Y-71352186D01*
X120746112Y-71354195D01*
X120746113Y-71354196D01*
X120767869Y-71365715D01*
X120996392Y-71486712D01*
X121266373Y-71585511D01*
X121547264Y-71646755D01*
X121575841Y-71649004D01*
X121770282Y-71664307D01*
X121770291Y-71664307D01*
X121772739Y-71664500D01*
X121928271Y-71664500D01*
X121930407Y-71664354D01*
X121930418Y-71664354D01*
X122138548Y-71650165D01*
X122138554Y-71650164D01*
X122142825Y-71649873D01*
X122147020Y-71649004D01*
X122147022Y-71649004D01*
X122283584Y-71620723D01*
X122424342Y-71591574D01*
X122695343Y-71495607D01*
X122950812Y-71363750D01*
X122954313Y-71361289D01*
X122954317Y-71361287D01*
X123095307Y-71262197D01*
X123186023Y-71198441D01*
X123396622Y-71002740D01*
X123578713Y-70780268D01*
X123728927Y-70535142D01*
X123844483Y-70271898D01*
X123923244Y-69995406D01*
X123963751Y-69710784D01*
X123963845Y-69692951D01*
X123965235Y-69427583D01*
X123965235Y-69427576D01*
X123965257Y-69423297D01*
X123927732Y-69138266D01*
X123851871Y-68860964D01*
X123739077Y-68596524D01*
X123591439Y-68349839D01*
X123411687Y-68125472D01*
X123203149Y-67927577D01*
X122969683Y-67759814D01*
X122947843Y-67748250D01*
X122875899Y-67710158D01*
X122715608Y-67625288D01*
X122445627Y-67526489D01*
X122164736Y-67465245D01*
X122133685Y-67462801D01*
X121941718Y-67447693D01*
X121941709Y-67447693D01*
X121939261Y-67447500D01*
X121783729Y-67447500D01*
X121781593Y-67447646D01*
X121781582Y-67447646D01*
X121573452Y-67461835D01*
X121573446Y-67461836D01*
X121569175Y-67462127D01*
X121564980Y-67462996D01*
X121564978Y-67462996D01*
X121428416Y-67491277D01*
X121287658Y-67520426D01*
X121016657Y-67616393D01*
X120761188Y-67748250D01*
X120757687Y-67750711D01*
X120757683Y-67750713D01*
X120744734Y-67759814D01*
X120525977Y-67913559D01*
X120315378Y-68109260D01*
X120133287Y-68331732D01*
X119983073Y-68576858D01*
X119867517Y-68840102D01*
X119788756Y-69116594D01*
X119748249Y-69401216D01*
X119748227Y-69405505D01*
X119748226Y-69405512D01*
X119746765Y-69684417D01*
X119746743Y-69688703D01*
X118364000Y-69688703D01*
X118364000Y-66190000D01*
X118384002Y-66121879D01*
X118437658Y-66075386D01*
X118490000Y-66064000D01*
X128037951Y-66064000D01*
X128106072Y-66084002D01*
G37*
%TD.AperFunction*%
%TD*%
%TA.AperFunction,Conductor*%
%TO.N,/Q1_Drain*%
G36*
X128798121Y-86326002D02*
G01*
X128844614Y-86379658D01*
X128856000Y-86432000D01*
X128856000Y-89306000D01*
X131280000Y-89306000D01*
X131348121Y-89326002D01*
X131394614Y-89379658D01*
X131406000Y-89432000D01*
X131406000Y-93430000D01*
X131385998Y-93498121D01*
X131332342Y-93544614D01*
X131280000Y-93556000D01*
X125615500Y-93556000D01*
X125547379Y-93535998D01*
X125500886Y-93482342D01*
X125489500Y-93430000D01*
X125489500Y-92056449D01*
X125509502Y-91988328D01*
X125563158Y-91941835D01*
X125633432Y-91931731D01*
X125698012Y-91961225D01*
X125722644Y-91990146D01*
X125747522Y-92030348D01*
X125872697Y-92155305D01*
X125878927Y-92159145D01*
X125878928Y-92159146D01*
X126016090Y-92243694D01*
X126023262Y-92248115D01*
X126103005Y-92274564D01*
X126184611Y-92301632D01*
X126184613Y-92301632D01*
X126191139Y-92303797D01*
X126197975Y-92304497D01*
X126197978Y-92304498D01*
X126241031Y-92308909D01*
X126295600Y-92314500D01*
X127916400Y-92314500D01*
X127919646Y-92314163D01*
X127919650Y-92314163D01*
X128015307Y-92304238D01*
X128015311Y-92304237D01*
X128022165Y-92303526D01*
X128028701Y-92301345D01*
X128028703Y-92301345D01*
X128160805Y-92257272D01*
X128189945Y-92247550D01*
X128340348Y-92154478D01*
X128465305Y-92029303D01*
X128489442Y-91990146D01*
X128554275Y-91884968D01*
X128554276Y-91884966D01*
X128558115Y-91878738D01*
X128613797Y-91710861D01*
X128624500Y-91606400D01*
X128624500Y-90505600D01*
X128613526Y-90399835D01*
X128557550Y-90232055D01*
X128464478Y-90081652D01*
X128339303Y-89956695D01*
X128333072Y-89952854D01*
X128194968Y-89867725D01*
X128194966Y-89867724D01*
X128188738Y-89863885D01*
X128028254Y-89810655D01*
X128027389Y-89810368D01*
X128027387Y-89810368D01*
X128020861Y-89808203D01*
X128014025Y-89807503D01*
X128014022Y-89807502D01*
X127970969Y-89803091D01*
X127916400Y-89797500D01*
X126295600Y-89797500D01*
X126292354Y-89797837D01*
X126292350Y-89797837D01*
X126196693Y-89807762D01*
X126196689Y-89807763D01*
X126189835Y-89808474D01*
X126183299Y-89810655D01*
X126183297Y-89810655D01*
X126051195Y-89854728D01*
X126022055Y-89864450D01*
X125871652Y-89957522D01*
X125746695Y-90082697D01*
X125742855Y-90088927D01*
X125742854Y-90088928D01*
X125722760Y-90121527D01*
X125669988Y-90169020D01*
X125599917Y-90180444D01*
X125534793Y-90152170D01*
X125495293Y-90093176D01*
X125489500Y-90055411D01*
X125489500Y-86432000D01*
X125509502Y-86363879D01*
X125563158Y-86317386D01*
X125615500Y-86306000D01*
X128730000Y-86306000D01*
X128798121Y-86326002D01*
G37*
%TD.AperFunction*%
%TD*%
%TA.AperFunction,Conductor*%
%TO.N,MOSFET_VOLTAGE*%
G36*
X123298121Y-83076002D02*
G01*
X123344614Y-83129658D01*
X123356000Y-83182000D01*
X123356000Y-86680000D01*
X123335998Y-86748121D01*
X123282342Y-86794614D01*
X123230000Y-86806000D01*
X119232000Y-86806000D01*
X119163879Y-86785998D01*
X119117386Y-86732342D01*
X119106000Y-86680000D01*
X119106000Y-83182000D01*
X119126002Y-83113879D01*
X119179658Y-83067386D01*
X119232000Y-83056000D01*
X123230000Y-83056000D01*
X123298121Y-83076002D01*
G37*
%TD.AperFunction*%
%TD*%
%TA.AperFunction,Conductor*%
%TO.N,/Q2_Drain*%
G36*
X130724032Y-75188038D02*
G01*
X130780868Y-75230585D01*
X130805679Y-75297105D01*
X130806000Y-75306094D01*
X130806000Y-79806000D01*
X132630000Y-79806000D01*
X132698121Y-79826002D01*
X132744614Y-79879658D01*
X132756000Y-79932000D01*
X132756000Y-86056000D01*
X134730000Y-86056000D01*
X134798121Y-86076002D01*
X134844614Y-86129658D01*
X134856000Y-86182000D01*
X134856000Y-90306000D01*
X137730000Y-90306000D01*
X137798121Y-90326002D01*
X137844614Y-90379658D01*
X137856000Y-90432000D01*
X137856000Y-93430000D01*
X137835998Y-93498121D01*
X137782342Y-93544614D01*
X137730000Y-93556000D01*
X132232000Y-93556000D01*
X132163879Y-93535998D01*
X132117386Y-93482342D01*
X132106000Y-93430000D01*
X132106000Y-88606000D01*
X129882000Y-88606000D01*
X129813879Y-88585998D01*
X129767386Y-88532342D01*
X129756000Y-88480000D01*
X129756000Y-82056000D01*
X125615500Y-82056000D01*
X125547379Y-82035998D01*
X125500886Y-81982342D01*
X125489500Y-81930000D01*
X125489500Y-80556449D01*
X125509502Y-80488328D01*
X125563158Y-80441835D01*
X125633432Y-80431731D01*
X125698012Y-80461225D01*
X125722644Y-80490146D01*
X125747522Y-80530348D01*
X125872697Y-80655305D01*
X125878927Y-80659145D01*
X125878928Y-80659146D01*
X126016090Y-80743694D01*
X126023262Y-80748115D01*
X126103005Y-80774564D01*
X126184611Y-80801632D01*
X126184613Y-80801632D01*
X126191139Y-80803797D01*
X126197975Y-80804497D01*
X126197978Y-80804498D01*
X126241031Y-80808909D01*
X126295600Y-80814500D01*
X127916400Y-80814500D01*
X127919646Y-80814163D01*
X127919650Y-80814163D01*
X128015307Y-80804238D01*
X128015311Y-80804237D01*
X128022165Y-80803526D01*
X128028701Y-80801345D01*
X128028703Y-80801345D01*
X128160805Y-80757272D01*
X128189945Y-80747550D01*
X128340348Y-80654478D01*
X128465305Y-80529303D01*
X128489442Y-80490146D01*
X128554275Y-80384968D01*
X128554276Y-80384966D01*
X128558115Y-80378738D01*
X128613797Y-80210861D01*
X128624500Y-80106400D01*
X128624500Y-79005600D01*
X128613526Y-78899835D01*
X128557550Y-78732055D01*
X128464478Y-78581652D01*
X128339303Y-78456695D01*
X128333072Y-78452854D01*
X128194968Y-78367725D01*
X128194966Y-78367724D01*
X128188738Y-78363885D01*
X128028254Y-78310655D01*
X128027389Y-78310368D01*
X128027387Y-78310368D01*
X128020861Y-78308203D01*
X128014025Y-78307503D01*
X128014022Y-78307502D01*
X127970969Y-78303091D01*
X127916400Y-78297500D01*
X126295600Y-78297500D01*
X126292354Y-78297837D01*
X126292350Y-78297837D01*
X126196693Y-78307762D01*
X126196689Y-78307763D01*
X126189835Y-78308474D01*
X126183299Y-78310655D01*
X126183297Y-78310655D01*
X126051195Y-78354728D01*
X126022055Y-78364450D01*
X125871652Y-78457522D01*
X125746695Y-78582697D01*
X125742855Y-78588927D01*
X125742854Y-78588928D01*
X125722760Y-78621527D01*
X125669988Y-78669020D01*
X125599917Y-78680444D01*
X125534793Y-78652170D01*
X125495293Y-78593176D01*
X125489500Y-78555411D01*
X125489500Y-76120594D01*
X125509502Y-76052473D01*
X125526405Y-76031499D01*
X126081499Y-75476405D01*
X126143811Y-75442379D01*
X126170594Y-75439500D01*
X130027233Y-75439500D01*
X130038416Y-75440027D01*
X130045909Y-75441702D01*
X130053835Y-75441453D01*
X130053836Y-75441453D01*
X130113986Y-75439562D01*
X130117945Y-75439500D01*
X130145856Y-75439500D01*
X130149791Y-75439003D01*
X130149856Y-75438995D01*
X130161693Y-75438062D01*
X130193951Y-75437048D01*
X130197970Y-75436922D01*
X130205889Y-75436673D01*
X130225343Y-75431021D01*
X130244700Y-75427013D01*
X130256930Y-75425468D01*
X130256931Y-75425468D01*
X130264797Y-75424474D01*
X130272168Y-75421555D01*
X130272170Y-75421555D01*
X130305912Y-75408196D01*
X130317142Y-75404351D01*
X130351983Y-75394229D01*
X130351984Y-75394229D01*
X130359593Y-75392018D01*
X130366412Y-75387985D01*
X130366417Y-75387983D01*
X130377028Y-75381707D01*
X130394776Y-75373012D01*
X130413617Y-75365552D01*
X130449387Y-75339564D01*
X130459307Y-75333048D01*
X130490535Y-75314580D01*
X130490538Y-75314578D01*
X130497362Y-75310542D01*
X130511683Y-75296221D01*
X130526717Y-75283380D01*
X130536694Y-75276131D01*
X130543107Y-75271472D01*
X130571298Y-75237395D01*
X130579288Y-75228616D01*
X130590905Y-75216999D01*
X130653217Y-75182973D01*
X130724032Y-75188038D01*
G37*
%TD.AperFunction*%
%TD*%
M02*
