%TF.GenerationSoftware,KiCad,Pcbnew,(6.0.1)*%
%TF.CreationDate,2022-02-04T15:15:15+01:00*%
%TF.ProjectId,WLED_ESP8266_molex_microfit,574c4544-5f45-4535-9038-3236365f6d6f,rev?*%
%TF.SameCoordinates,Original*%
%TF.FileFunction,Soldermask,Top*%
%TF.FilePolarity,Negative*%
%FSLAX46Y46*%
G04 Gerber Fmt 4.6, Leading zero omitted, Abs format (unit mm)*
G04 Created by KiCad (PCBNEW (6.0.1)) date 2022-02-04 15:15:15*
%MOMM*%
%LPD*%
G01*
G04 APERTURE LIST*
G04 Aperture macros list*
%AMRoundRect*
0 Rectangle with rounded corners*
0 $1 Rounding radius*
0 $2 $3 $4 $5 $6 $7 $8 $9 X,Y pos of 4 corners*
0 Add a 4 corners polygon primitive as box body*
4,1,4,$2,$3,$4,$5,$6,$7,$8,$9,$2,$3,0*
0 Add four circle primitives for the rounded corners*
1,1,$1+$1,$2,$3*
1,1,$1+$1,$4,$5*
1,1,$1+$1,$6,$7*
1,1,$1+$1,$8,$9*
0 Add four rect primitives between the rounded corners*
20,1,$1+$1,$2,$3,$4,$5,0*
20,1,$1+$1,$4,$5,$6,$7,0*
20,1,$1+$1,$6,$7,$8,$9,0*
20,1,$1+$1,$8,$9,$2,$3,0*%
%AMFreePoly0*
4,1,22,0.500000,-0.750000,0.000000,-0.750000,0.000000,-0.745033,-0.079941,-0.743568,-0.215256,-0.701293,-0.333266,-0.622738,-0.424486,-0.514219,-0.481581,-0.384460,-0.499164,-0.250000,-0.500000,-0.250000,-0.500000,0.250000,-0.499164,0.250000,-0.499963,0.256109,-0.478152,0.396186,-0.417904,0.524511,-0.324060,0.630769,-0.204165,0.706417,-0.067858,0.745374,0.000000,0.744959,0.000000,0.750000,
0.500000,0.750000,0.500000,-0.750000,0.500000,-0.750000,$1*%
%AMFreePoly1*
4,1,20,0.000000,0.744959,0.073905,0.744508,0.209726,0.703889,0.328688,0.626782,0.421226,0.519385,0.479903,0.390333,0.500000,0.250000,0.500000,-0.250000,0.499851,-0.262216,0.476331,-0.402017,0.414519,-0.529596,0.319384,-0.634700,0.198574,-0.708877,0.061801,-0.746166,0.000000,-0.745033,0.000000,-0.750000,-0.500000,-0.750000,-0.500000,0.750000,0.000000,0.750000,0.000000,0.744959,
0.000000,0.744959,$1*%
G04 Aperture macros list end*
%ADD10C,0.010000*%
%ADD11R,2.200000X1.500000*%
%ADD12R,2.500000X3.300000*%
%ADD13RoundRect,0.237500X0.237500X-0.300000X0.237500X0.300000X-0.237500X0.300000X-0.237500X-0.300000X0*%
%ADD14C,3.000000*%
%ADD15RoundRect,0.250001X0.759999X-0.499999X0.759999X0.499999X-0.759999X0.499999X-0.759999X-0.499999X0*%
%ADD16O,2.020000X1.500000*%
%ADD17RoundRect,0.250000X-0.650000X0.412500X-0.650000X-0.412500X0.650000X-0.412500X0.650000X0.412500X0*%
%ADD18R,1.700000X1.700000*%
%ADD19O,1.700000X1.700000*%
%ADD20RoundRect,0.250000X0.475000X-0.250000X0.475000X0.250000X-0.475000X0.250000X-0.475000X-0.250000X0*%
%ADD21RoundRect,0.237500X0.300000X0.237500X-0.300000X0.237500X-0.300000X-0.237500X0.300000X-0.237500X0*%
%ADD22RoundRect,0.160000X-0.197500X-0.160000X0.197500X-0.160000X0.197500X0.160000X-0.197500X0.160000X0*%
%ADD23RoundRect,0.155000X0.155000X-0.212500X0.155000X0.212500X-0.155000X0.212500X-0.155000X-0.212500X0*%
%ADD24RoundRect,0.237500X0.237500X-0.250000X0.237500X0.250000X-0.237500X0.250000X-0.237500X-0.250000X0*%
%ADD25R,0.300000X1.600000*%
%ADD26RoundRect,0.250001X-0.462499X-0.624999X0.462499X-0.624999X0.462499X0.624999X-0.462499X0.624999X0*%
%ADD27RoundRect,0.237500X-0.300000X-0.237500X0.300000X-0.237500X0.300000X0.237500X-0.300000X0.237500X0*%
%ADD28RoundRect,0.160000X0.160000X-0.197500X0.160000X0.197500X-0.160000X0.197500X-0.160000X-0.197500X0*%
%ADD29RoundRect,0.237500X-0.237500X0.250000X-0.237500X-0.250000X0.237500X-0.250000X0.237500X0.250000X0*%
%ADD30R,2.500000X1.000000*%
%ADD31R,1.000000X1.800000*%
%ADD32RoundRect,0.250001X-0.759999X0.499999X-0.759999X-0.499999X0.759999X-0.499999X0.759999X0.499999X0*%
%ADD33R,0.450000X1.380000*%
%ADD34R,1.000000X1.900000*%
%ADD35R,1.650000X1.300000*%
%ADD36R,1.425000X1.550000*%
%ADD37R,1.800000X1.900000*%
%ADD38RoundRect,0.250000X-0.450000X0.262500X-0.450000X-0.262500X0.450000X-0.262500X0.450000X0.262500X0*%
%ADD39RoundRect,0.250000X-0.412500X-0.650000X0.412500X-0.650000X0.412500X0.650000X-0.412500X0.650000X0*%
%ADD40RoundRect,0.237500X-0.250000X-0.237500X0.250000X-0.237500X0.250000X0.237500X-0.250000X0.237500X0*%
%ADD41FreePoly0,180.000000*%
%ADD42FreePoly1,180.000000*%
%ADD43C,3.200000*%
%ADD44RoundRect,0.250000X-0.450000X0.350000X-0.450000X-0.350000X0.450000X-0.350000X0.450000X0.350000X0*%
%ADD45RoundRect,0.160000X-0.160000X0.197500X-0.160000X-0.197500X0.160000X-0.197500X0.160000X0.197500X0*%
%ADD46RoundRect,0.160000X0.197500X0.160000X-0.197500X0.160000X-0.197500X-0.160000X0.197500X-0.160000X0*%
%ADD47RoundRect,0.150000X0.587500X0.150000X-0.587500X0.150000X-0.587500X-0.150000X0.587500X-0.150000X0*%
%ADD48RoundRect,0.237500X-0.237500X0.300000X-0.237500X-0.300000X0.237500X-0.300000X0.237500X0.300000X0*%
%ADD49RoundRect,0.155000X-0.212500X-0.155000X0.212500X-0.155000X0.212500X0.155000X-0.212500X0.155000X0*%
%ADD50RoundRect,0.150000X0.150000X-0.587500X0.150000X0.587500X-0.150000X0.587500X-0.150000X-0.587500X0*%
%ADD51RoundRect,0.250000X-0.475000X0.250000X-0.475000X-0.250000X0.475000X-0.250000X0.475000X0.250000X0*%
%ADD52RoundRect,0.250000X0.450000X-0.350000X0.450000X0.350000X-0.450000X0.350000X-0.450000X-0.350000X0*%
G04 APERTURE END LIST*
D10*
%TO.C,U2*%
X135406000Y-121756000D02*
X137806000Y-121756000D01*
X137806000Y-121756000D02*
X137806000Y-124856000D01*
X137806000Y-124856000D02*
X135406000Y-124856000D01*
X135406000Y-124856000D02*
X135406000Y-121756000D01*
G36*
X137806000Y-124856000D02*
G01*
X135406000Y-124856000D01*
X135406000Y-121756000D01*
X137806000Y-121756000D01*
X137806000Y-124856000D01*
G37*
X137806000Y-124856000D02*
X135406000Y-124856000D01*
X135406000Y-121756000D01*
X137806000Y-121756000D01*
X137806000Y-124856000D01*
X132561000Y-121081000D02*
X134901000Y-121081000D01*
X134901000Y-121081000D02*
X134901000Y-121721000D01*
X134901000Y-121721000D02*
X132561000Y-121721000D01*
X132561000Y-121721000D02*
X132561000Y-121081000D01*
G36*
X134901000Y-121721000D02*
G01*
X132561000Y-121721000D01*
X132561000Y-121081000D01*
X134901000Y-121081000D01*
X134901000Y-121721000D01*
G37*
X134901000Y-121721000D02*
X132561000Y-121721000D01*
X132561000Y-121081000D01*
X134901000Y-121081000D01*
X134901000Y-121721000D01*
X132561000Y-122351000D02*
X134901000Y-122351000D01*
X134901000Y-122351000D02*
X134901000Y-122991000D01*
X134901000Y-122991000D02*
X132561000Y-122991000D01*
X132561000Y-122991000D02*
X132561000Y-122351000D01*
G36*
X134901000Y-122991000D02*
G01*
X132561000Y-122991000D01*
X132561000Y-122351000D01*
X134901000Y-122351000D01*
X134901000Y-122991000D01*
G37*
X134901000Y-122991000D02*
X132561000Y-122991000D01*
X132561000Y-122351000D01*
X134901000Y-122351000D01*
X134901000Y-122991000D01*
X132561000Y-123621000D02*
X134901000Y-123621000D01*
X134901000Y-123621000D02*
X134901000Y-124261000D01*
X134901000Y-124261000D02*
X132561000Y-124261000D01*
X132561000Y-124261000D02*
X132561000Y-123621000D01*
G36*
X134901000Y-124261000D02*
G01*
X132561000Y-124261000D01*
X132561000Y-123621000D01*
X134901000Y-123621000D01*
X134901000Y-124261000D01*
G37*
X134901000Y-124261000D02*
X132561000Y-124261000D01*
X132561000Y-123621000D01*
X134901000Y-123621000D01*
X134901000Y-124261000D01*
X132561000Y-124891000D02*
X134901000Y-124891000D01*
X134901000Y-124891000D02*
X134901000Y-125531000D01*
X134901000Y-125531000D02*
X132561000Y-125531000D01*
X132561000Y-125531000D02*
X132561000Y-124891000D01*
G36*
X134901000Y-125531000D02*
G01*
X132561000Y-125531000D01*
X132561000Y-124891000D01*
X134901000Y-124891000D01*
X134901000Y-125531000D01*
G37*
X134901000Y-125531000D02*
X132561000Y-125531000D01*
X132561000Y-124891000D01*
X134901000Y-124891000D01*
X134901000Y-125531000D01*
X138311000Y-121081000D02*
X140651000Y-121081000D01*
X140651000Y-121081000D02*
X140651000Y-121721000D01*
X140651000Y-121721000D02*
X138311000Y-121721000D01*
X138311000Y-121721000D02*
X138311000Y-121081000D01*
G36*
X140651000Y-121721000D02*
G01*
X138311000Y-121721000D01*
X138311000Y-121081000D01*
X140651000Y-121081000D01*
X140651000Y-121721000D01*
G37*
X140651000Y-121721000D02*
X138311000Y-121721000D01*
X138311000Y-121081000D01*
X140651000Y-121081000D01*
X140651000Y-121721000D01*
X138311000Y-122351000D02*
X140651000Y-122351000D01*
X140651000Y-122351000D02*
X140651000Y-122991000D01*
X140651000Y-122991000D02*
X138311000Y-122991000D01*
X138311000Y-122991000D02*
X138311000Y-122351000D01*
G36*
X140651000Y-122991000D02*
G01*
X138311000Y-122991000D01*
X138311000Y-122351000D01*
X140651000Y-122351000D01*
X140651000Y-122991000D01*
G37*
X140651000Y-122991000D02*
X138311000Y-122991000D01*
X138311000Y-122351000D01*
X140651000Y-122351000D01*
X140651000Y-122991000D01*
X138311000Y-123621000D02*
X140651000Y-123621000D01*
X140651000Y-123621000D02*
X140651000Y-124261000D01*
X140651000Y-124261000D02*
X138311000Y-124261000D01*
X138311000Y-124261000D02*
X138311000Y-123621000D01*
G36*
X140651000Y-124261000D02*
G01*
X138311000Y-124261000D01*
X138311000Y-123621000D01*
X140651000Y-123621000D01*
X140651000Y-124261000D01*
G37*
X140651000Y-124261000D02*
X138311000Y-124261000D01*
X138311000Y-123621000D01*
X140651000Y-123621000D01*
X140651000Y-124261000D01*
X138311000Y-124891000D02*
X140651000Y-124891000D01*
X140651000Y-124891000D02*
X140651000Y-125531000D01*
X140651000Y-125531000D02*
X138311000Y-125531000D01*
X138311000Y-125531000D02*
X138311000Y-124891000D01*
G36*
X140651000Y-125531000D02*
G01*
X138311000Y-125531000D01*
X138311000Y-124891000D01*
X140651000Y-124891000D01*
X140651000Y-125531000D01*
G37*
X140651000Y-125531000D02*
X138311000Y-125531000D01*
X138311000Y-124891000D01*
X140651000Y-124891000D01*
X140651000Y-125531000D01*
%TD*%
D11*
%TO.C,L1*%
X149356000Y-115856000D03*
X149356000Y-122256000D03*
%TD*%
D12*
%TO.C,D1*%
X142006000Y-115806000D03*
X135206000Y-115806000D03*
%TD*%
D13*
%TO.C,C6*%
X151856000Y-96418500D03*
X151856000Y-94693500D03*
%TD*%
D14*
%TO.C,J6*%
X122786000Y-100556000D03*
D15*
X127106000Y-102056000D03*
D16*
X127106000Y-99056000D03*
%TD*%
D17*
%TO.C,C1*%
X126356000Y-124993500D03*
X126356000Y-128118500D03*
%TD*%
D18*
%TO.C,J9*%
X153656000Y-107556000D03*
D19*
X153656000Y-105016000D03*
X153656000Y-102476000D03*
X153656000Y-99936000D03*
%TD*%
D20*
%TO.C,C11*%
X142606000Y-127506000D03*
X142606000Y-125606000D03*
%TD*%
D21*
%TO.C,C9*%
X143218500Y-91556000D03*
X141493500Y-91556000D03*
%TD*%
D22*
%TO.C,R13*%
X153758500Y-73456000D03*
X154953500Y-73456000D03*
%TD*%
D23*
%TO.C,C3*%
X132606000Y-128373500D03*
X132606000Y-127238500D03*
%TD*%
D17*
%TO.C,C2*%
X128856000Y-124993500D03*
X128856000Y-128118500D03*
%TD*%
D14*
%TO.C,J3*%
X122786000Y-89556000D03*
D15*
X127106000Y-91056000D03*
D16*
X127106000Y-88056000D03*
%TD*%
D24*
%TO.C,R6*%
X150106000Y-127718500D03*
X150106000Y-125893500D03*
%TD*%
D22*
%TO.C,R17*%
X137258500Y-96056000D03*
X138453500Y-96056000D03*
%TD*%
D25*
%TO.C,U3*%
X152831000Y-77856000D03*
X152181000Y-77856000D03*
X151531000Y-77856000D03*
X150881000Y-77856000D03*
X150881000Y-81256000D03*
X151531000Y-81256000D03*
X152181000Y-81256000D03*
X152831000Y-81256000D03*
%TD*%
D26*
%TO.C,F1*%
X122118500Y-121806000D03*
X125093500Y-121806000D03*
%TD*%
D27*
%TO.C,C7*%
X152493500Y-84056000D03*
X154218500Y-84056000D03*
%TD*%
D28*
%TO.C,R16*%
X150606000Y-84903500D03*
X150606000Y-83708500D03*
%TD*%
D29*
%TO.C,R7*%
X155856000Y-95143500D03*
X155856000Y-96968500D03*
%TD*%
D30*
%TO.C,U1*%
X131256000Y-74056000D03*
X131256000Y-76056000D03*
X131256000Y-78056000D03*
X131256000Y-80056000D03*
X131256000Y-82056000D03*
X131256000Y-84056000D03*
X131256000Y-86056000D03*
X131256000Y-88056000D03*
D31*
X133856000Y-89556000D03*
X135856000Y-89556000D03*
X137856000Y-89556000D03*
X139856000Y-89556000D03*
X141856000Y-89556000D03*
X143856000Y-89556000D03*
D30*
X146456000Y-88056000D03*
X146456000Y-86056000D03*
X146456000Y-84056000D03*
X146456000Y-82056000D03*
X146456000Y-80056000D03*
X146456000Y-78056000D03*
X146456000Y-76056000D03*
X146456000Y-74056000D03*
%TD*%
D14*
%TO.C,J2*%
X163206000Y-109556000D03*
D32*
X158886000Y-106556000D03*
D16*
X158886000Y-109556000D03*
X158886000Y-112556000D03*
%TD*%
D22*
%TO.C,R12*%
X153758500Y-74406000D03*
X154953500Y-74406000D03*
%TD*%
D25*
%TO.C,U4*%
X152831000Y-87856000D03*
X152181000Y-87856000D03*
X151531000Y-87856000D03*
X150881000Y-87856000D03*
X150881000Y-91256000D03*
X151531000Y-91256000D03*
X152181000Y-91256000D03*
X152831000Y-91256000D03*
%TD*%
D33*
%TO.C,J5*%
X156056000Y-69716000D03*
X155406000Y-69716000D03*
X154756000Y-69716000D03*
X154106000Y-69716000D03*
X153456000Y-69716000D03*
D34*
X153206000Y-67056000D03*
D35*
X151381000Y-67056000D03*
D36*
X157243500Y-69631000D03*
D37*
X155906000Y-67056000D03*
D36*
X152268500Y-69631000D03*
D35*
X158131000Y-67056000D03*
%TD*%
D38*
%TO.C,R19*%
X159856000Y-68543500D03*
X159856000Y-70368500D03*
%TD*%
D39*
%TO.C,C13*%
X162293500Y-119056000D03*
X165418500Y-119056000D03*
%TD*%
D40*
%TO.C,R5*%
X151943500Y-125806000D03*
X153768500Y-125806000D03*
%TD*%
D41*
%TO.C,JP1*%
X124256000Y-107806000D03*
D42*
X122956000Y-107806000D03*
%TD*%
D43*
%TO.C,H4*%
X163856000Y-126556000D03*
%TD*%
D44*
%TO.C,R2*%
X128606000Y-68556000D03*
X128606000Y-70556000D03*
%TD*%
D14*
%TO.C,J7*%
X163206000Y-79556000D03*
D32*
X158886000Y-76556000D03*
D16*
X158886000Y-79556000D03*
X158886000Y-82556000D03*
%TD*%
D40*
%TO.C,R18*%
X149443500Y-75056000D03*
X151268500Y-75056000D03*
%TD*%
D29*
%TO.C,R9*%
X155856000Y-110143500D03*
X155856000Y-111968500D03*
%TD*%
D14*
%TO.C,J8*%
X163206000Y-94556000D03*
D32*
X158886000Y-91556000D03*
D16*
X158886000Y-94556000D03*
X158886000Y-97556000D03*
%TD*%
D45*
%TO.C,R14*%
X149106000Y-86958500D03*
X149106000Y-88153500D03*
%TD*%
D46*
%TO.C,R10*%
X142853500Y-93056000D03*
X141658500Y-93056000D03*
%TD*%
D43*
%TO.C,H1*%
X121856000Y-69556000D03*
%TD*%
D27*
%TO.C,C10*%
X148293500Y-99856000D03*
X150018500Y-99856000D03*
%TD*%
D14*
%TO.C,J4*%
X122786000Y-78056000D03*
D15*
X127106000Y-79556000D03*
D16*
X127106000Y-76556000D03*
%TD*%
D47*
%TO.C,Q2*%
X138543500Y-94756000D03*
X138543500Y-92856000D03*
X136668500Y-93806000D03*
%TD*%
D48*
%TO.C,C8*%
X153356000Y-94693500D03*
X153356000Y-96418500D03*
%TD*%
D49*
%TO.C,C4*%
X140038500Y-120056000D03*
X141173500Y-120056000D03*
%TD*%
D40*
%TO.C,R4*%
X144443500Y-125556000D03*
X146268500Y-125556000D03*
%TD*%
D14*
%TO.C,J1*%
X122786000Y-115056000D03*
D15*
X127106000Y-116556000D03*
D16*
X127106000Y-113556000D03*
%TD*%
D47*
%TO.C,Q1*%
X132793500Y-94756000D03*
X132793500Y-92856000D03*
X130918500Y-93806000D03*
%TD*%
D50*
%TO.C,U6*%
X148206000Y-97993500D03*
X150106000Y-97993500D03*
X149156000Y-96118500D03*
%TD*%
D43*
%TO.C,H3*%
X163856000Y-69556000D03*
%TD*%
D51*
%TO.C,C15*%
X149156000Y-67906000D03*
X149156000Y-69806000D03*
%TD*%
D22*
%TO.C,R1*%
X146008500Y-91556000D03*
X147203500Y-91556000D03*
%TD*%
D29*
%TO.C,R8*%
X155856000Y-80143500D03*
X155856000Y-81968500D03*
%TD*%
D24*
%TO.C,R3*%
X131106000Y-125968500D03*
X131106000Y-124143500D03*
%TD*%
D52*
%TO.C,R11*%
X126356000Y-70556000D03*
X126356000Y-68556000D03*
%TD*%
D22*
%TO.C,R15*%
X131508500Y-96056000D03*
X132703500Y-96056000D03*
%TD*%
D39*
%TO.C,C14*%
X162293500Y-121806000D03*
X165418500Y-121806000D03*
%TD*%
D21*
%TO.C,C5*%
X154218500Y-85556000D03*
X152493500Y-85556000D03*
%TD*%
D49*
%TO.C,C12*%
X144788500Y-127556000D03*
X145923500Y-127556000D03*
%TD*%
D43*
%TO.C,H2*%
X121856000Y-126556000D03*
%TD*%
M02*
