M48
; DRILL file {KiCad (6.0.1)} date Fri Feb  4 15:15:06 2022
; FORMAT={-:-/ absolute / inch / decimal}
; #@! TF.CreationDate,2022-02-04T15:15:06+01:00
; #@! TF.GenerationSoftware,Kicad,Pcbnew,(6.0.1)
; #@! TF.FileFunction,Plated,1,2,PTH
FMAT,2
INCH
; #@! TA.AperFunction,Plated,PTH,ComponentDrill
T1C0.0130
; #@! TA.AperFunction,Plated,PTH,ViaDrill
T2C0.0157
; #@! TA.AperFunction,Plated,PTH,ViaDrill
T3C0.0295
; #@! TA.AperFunction,Plated,PTH,ComponentDrill
T4C0.0394
; #@! TA.AperFunction,Plated,PTH,ComponentDrill
T5C0.0402
%
G90
G05
T1
X5.3526Y-4.8034
X5.3526Y-4.8546
X5.3526Y-4.9057
X5.4038Y-4.8034
X5.4038Y-4.8546
X5.4038Y-4.9057
T2
X4.6948Y-4.7849
X4.6991Y-3.6991
X4.6991Y-3.8703
X4.6991Y-4.8447
X4.7187Y-3.3979
X4.7335Y-3.3437
X4.768Y-2.9254
X4.7729Y-3.3044
X4.827Y-3.2994
X4.8861Y-2.9254
X4.9038Y-5.0928
X4.9845Y-4.7561
X4.9845Y-4.7955
X4.9845Y-4.8349
X5.0632Y-2.64
X5.1085Y-4.4077
X5.1223Y-4.5101
X5.1223Y-4.6183
X5.14Y-3.7778
X5.142Y-3.5455
X5.142Y-3.5947
X5.142Y-3.6439
X5.142Y-4.0278
X5.142Y-4.1459
X5.1439Y-5.077
X5.2306Y-4.5101
X5.2306Y-4.6183
X5.2502Y-2.9156
X5.2601Y-3.1321
X5.2601Y-4.0278
X5.2601Y-4.1459
X5.2601Y-4.264
X5.2601Y-4.3821
X5.2699Y-4.7266
X5.3093Y-4.6676
X5.329Y-2.9156
X5.3329Y-5.0455
X5.3408Y-3.7778
X5.3683Y-3.1912
X5.3683Y-3.3093
X5.3782Y-2.9451
X5.3782Y-3.6046
X5.3782Y-3.6538
X5.3782Y-4.0278
X5.3782Y-4.1459
X5.3782Y-4.264
X5.3782Y-4.3821
X5.388Y-4.6774
X5.4077Y-4.9983
X5.4195Y-5.0652
X5.4471Y-4.4904
X5.4471Y-4.5593
X5.4471Y-4.638
X5.4569Y-4.7266
X5.4865Y-3.1912
X5.4865Y-3.3093
X5.4963Y-4.0278
X5.4963Y-4.1459
X5.4963Y-4.264
X5.4963Y-4.3821
X5.5061Y-3.6754
X5.5534Y-5.0888
X5.6144Y-4.0278
X5.6144Y-4.1459
X5.6144Y-4.264
X5.6144Y-4.3821
X5.6243Y-3.0731
X5.6833Y-2.9057
X5.6951Y-3.2306
X5.7306Y-3.892
X5.7325Y-4.0278
X5.7325Y-4.1459
X5.7325Y-4.264
X5.7325Y-4.3821
X5.8014Y-4.9431
X5.8014Y-5.0219
X5.8408Y-2.8762
X5.8506Y-4.0278
X5.8506Y-4.1459
X5.8506Y-4.264
X5.8506Y-4.3821
X5.8605Y-2.8369
X5.8998Y-3.014
X5.8998Y-3.2502
X5.8998Y-3.6243
X5.9274Y-2.8447
X5.9687Y-4.0278
X5.9687Y-4.1459
X5.9687Y-4.264
X5.9687Y-4.3821
X6.0101Y-3.8014
X6.018Y-2.955
X6.0278Y-3.2601
X6.0416Y-2.8014
X6.0573Y-3.6538
X6.0672Y-3.0239
X6.077Y-3.4077
X6.0967Y-2.9845
X6.1597Y-3.2935
X6.1715Y-3.4038
X6.1715Y-3.4707
X6.1715Y-3.888
X6.1715Y-4.0613
X6.1754Y-4.266
X6.1794Y-3.703
X6.3211Y-2.8447
X6.5376Y-2.8211
X6.5494Y-4.8644
T3
X4.9648Y-4.2443
X5.8703Y-3.703
T4
X6.0494Y-3.9345
X6.0494Y-4.0345
X6.0494Y-4.1345
X6.0494Y-4.2345
T5
X5.0042Y-3.014
X5.0042Y-3.1321
X5.0042Y-3.4668
X5.0042Y-3.5849
X5.0042Y-3.8998
X5.0042Y-4.018
X5.0042Y-4.4707
X5.0042Y-4.5888
X6.2554Y-3.014
X6.2554Y-3.1321
X6.2554Y-3.2502
X6.2554Y-3.6046
X6.2554Y-3.7227
X6.2554Y-3.8408
X6.2554Y-4.1951
X6.2554Y-4.3132
X6.2554Y-4.4313
T0
M30
