%TF.GenerationSoftware,KiCad,Pcbnew,(6.0.1)*%
%TF.CreationDate,2022-02-04T15:15:15+01:00*%
%TF.ProjectId,WLED_ESP8266_molex_microfit,574c4544-5f45-4535-9038-3236365f6d6f,rev?*%
%TF.SameCoordinates,Original*%
%TF.FileFunction,Legend,Bot*%
%TF.FilePolarity,Positive*%
%FSLAX46Y46*%
G04 Gerber Fmt 4.6, Leading zero omitted, Abs format (unit mm)*
G04 Created by KiCad (PCBNEW (6.0.1)) date 2022-02-04 15:15:15*
%MOMM*%
%LPD*%
G01*
G04 APERTURE LIST*
%ADD10C,0.200000*%
%ADD11C,0.150000*%
%ADD12C,0.120000*%
G04 APERTURE END LIST*
D10*
X138617904Y-74746000D02*
X138713142Y-74698380D01*
X138856000Y-74698380D01*
X138998857Y-74746000D01*
X139094095Y-74841238D01*
X139141714Y-74936476D01*
X139189333Y-75126952D01*
X139189333Y-75269809D01*
X139141714Y-75460285D01*
X139094095Y-75555523D01*
X138998857Y-75650761D01*
X138856000Y-75698380D01*
X138760761Y-75698380D01*
X138617904Y-75650761D01*
X138570285Y-75603142D01*
X138570285Y-75269809D01*
X138760761Y-75269809D01*
X138141714Y-75698380D02*
X138141714Y-74698380D01*
X137570285Y-75698380D01*
X137570285Y-74698380D01*
X137094095Y-75698380D02*
X137094095Y-74698380D01*
X136856000Y-74698380D01*
X136713142Y-74746000D01*
X136617904Y-74841238D01*
X136570285Y-74936476D01*
X136522666Y-75126952D01*
X136522666Y-75269809D01*
X136570285Y-75460285D01*
X136617904Y-75555523D01*
X136713142Y-75650761D01*
X136856000Y-75698380D01*
X137094095Y-75698380D01*
X139094095Y-77918380D02*
X138475047Y-77918380D01*
X138808380Y-78299333D01*
X138665523Y-78299333D01*
X138570285Y-78346952D01*
X138522666Y-78394571D01*
X138475047Y-78489809D01*
X138475047Y-78727904D01*
X138522666Y-78823142D01*
X138570285Y-78870761D01*
X138665523Y-78918380D01*
X138951238Y-78918380D01*
X139046476Y-78870761D01*
X139094095Y-78823142D01*
X138189333Y-77918380D02*
X137856000Y-78918380D01*
X137522666Y-77918380D01*
X137284571Y-77918380D02*
X136665523Y-77918380D01*
X136998857Y-78299333D01*
X136856000Y-78299333D01*
X136760761Y-78346952D01*
X136713142Y-78394571D01*
X136665523Y-78489809D01*
X136665523Y-78727904D01*
X136713142Y-78823142D01*
X136760761Y-78870761D01*
X136856000Y-78918380D01*
X137141714Y-78918380D01*
X137236952Y-78870761D01*
X137284571Y-78823142D01*
D11*
X118863142Y-89527428D02*
X118863142Y-89991714D01*
X119206000Y-89741714D01*
X119206000Y-89848857D01*
X119248857Y-89920285D01*
X119291714Y-89956000D01*
X119377428Y-89991714D01*
X119591714Y-89991714D01*
X119677428Y-89956000D01*
X119720285Y-89920285D01*
X119763142Y-89848857D01*
X119763142Y-89634571D01*
X119720285Y-89563142D01*
X119677428Y-89527428D01*
X118863142Y-90206000D02*
X119763142Y-90456000D01*
X118863142Y-90706000D01*
X118863142Y-90884571D02*
X118863142Y-91348857D01*
X119206000Y-91098857D01*
X119206000Y-91206000D01*
X119248857Y-91277428D01*
X119291714Y-91313142D01*
X119377428Y-91348857D01*
X119591714Y-91348857D01*
X119677428Y-91313142D01*
X119720285Y-91277428D01*
X119763142Y-91206000D01*
X119763142Y-90991714D01*
X119720285Y-90920285D01*
X119677428Y-90884571D01*
X119320285Y-99091714D02*
X119320285Y-99663142D01*
X119663142Y-99377428D02*
X118977428Y-99377428D01*
X118763142Y-100377428D02*
X118763142Y-100020285D01*
X119191714Y-99984571D01*
X119148857Y-100020285D01*
X119106000Y-100091714D01*
X119106000Y-100270285D01*
X119148857Y-100341714D01*
X119191714Y-100377428D01*
X119277428Y-100413142D01*
X119491714Y-100413142D01*
X119577428Y-100377428D01*
X119620285Y-100341714D01*
X119663142Y-100270285D01*
X119663142Y-100091714D01*
X119620285Y-100020285D01*
X119577428Y-99984571D01*
X118763142Y-100627428D02*
X119663142Y-100877428D01*
X118763142Y-101127428D01*
X129122666Y-74803619D02*
X129122666Y-75279809D01*
X129408380Y-74708380D02*
X128408380Y-75041714D01*
X129408380Y-75375047D01*
X128741714Y-75708380D02*
X129408380Y-75708380D01*
X128836952Y-75708380D02*
X128789333Y-75756000D01*
X128741714Y-75851238D01*
X128741714Y-75994095D01*
X128789333Y-76089333D01*
X128884571Y-76136952D01*
X129408380Y-76136952D01*
X129408380Y-77041714D02*
X128884571Y-77041714D01*
X128789333Y-76994095D01*
X128741714Y-76898857D01*
X128741714Y-76708380D01*
X128789333Y-76613142D01*
X129360761Y-77041714D02*
X129408380Y-76946476D01*
X129408380Y-76708380D01*
X129360761Y-76613142D01*
X129265523Y-76565523D01*
X129170285Y-76565523D01*
X129075047Y-76613142D01*
X129027428Y-76708380D01*
X129027428Y-76946476D01*
X128979809Y-77041714D01*
X129408380Y-77660761D02*
X129360761Y-77565523D01*
X129265523Y-77517904D01*
X128408380Y-77517904D01*
X129408380Y-78184571D02*
X129360761Y-78089333D01*
X129313142Y-78041714D01*
X129217904Y-77994095D01*
X128932190Y-77994095D01*
X128836952Y-78041714D01*
X128789333Y-78089333D01*
X128741714Y-78184571D01*
X128741714Y-78327428D01*
X128789333Y-78422666D01*
X128836952Y-78470285D01*
X128932190Y-78517904D01*
X129217904Y-78517904D01*
X129313142Y-78470285D01*
X129360761Y-78422666D01*
X129408380Y-78327428D01*
X129408380Y-78184571D01*
X128741714Y-79375047D02*
X129551238Y-79375047D01*
X129646476Y-79327428D01*
X129694095Y-79279809D01*
X129741714Y-79184571D01*
X129741714Y-79041714D01*
X129694095Y-78946476D01*
X129360761Y-79375047D02*
X129408380Y-79279809D01*
X129408380Y-79089333D01*
X129360761Y-78994095D01*
X129313142Y-78946476D01*
X129217904Y-78898857D01*
X128932190Y-78898857D01*
X128836952Y-78946476D01*
X128789333Y-78994095D01*
X128741714Y-79089333D01*
X128741714Y-79279809D01*
X128789333Y-79375047D01*
X129503619Y-79613142D02*
X129503619Y-80375047D01*
X129408380Y-80613142D02*
X128408380Y-80613142D01*
X129408380Y-81089333D02*
X128408380Y-81089333D01*
X129408380Y-81660761D01*
X128408380Y-81660761D01*
X145827428Y-84506000D02*
X145898857Y-84463142D01*
X146006000Y-84463142D01*
X146113142Y-84506000D01*
X146184571Y-84591714D01*
X146220285Y-84677428D01*
X146256000Y-84848857D01*
X146256000Y-84977428D01*
X146220285Y-85148857D01*
X146184571Y-85234571D01*
X146113142Y-85320285D01*
X146006000Y-85363142D01*
X145934571Y-85363142D01*
X145827428Y-85320285D01*
X145791714Y-85277428D01*
X145791714Y-84977428D01*
X145934571Y-84977428D01*
X145470285Y-85363142D02*
X145470285Y-84463142D01*
X145184571Y-84463142D01*
X145113142Y-84506000D01*
X145077428Y-84548857D01*
X145041714Y-84634571D01*
X145041714Y-84763142D01*
X145077428Y-84848857D01*
X145113142Y-84891714D01*
X145184571Y-84934571D01*
X145470285Y-84934571D01*
X144720285Y-85363142D02*
X144720285Y-84463142D01*
X144220285Y-84463142D02*
X144077428Y-84463142D01*
X144006000Y-84506000D01*
X143934571Y-84591714D01*
X143898857Y-84763142D01*
X143898857Y-85063142D01*
X143934571Y-85234571D01*
X144006000Y-85320285D01*
X144077428Y-85363142D01*
X144220285Y-85363142D01*
X144291714Y-85320285D01*
X144363142Y-85234571D01*
X144398857Y-85063142D01*
X144398857Y-84763142D01*
X144363142Y-84591714D01*
X144291714Y-84506000D01*
X144220285Y-84463142D01*
X143756000Y-85448857D02*
X143184571Y-85448857D01*
X142863142Y-84463142D02*
X142791714Y-84463142D01*
X142720285Y-84506000D01*
X142684571Y-84548857D01*
X142648857Y-84634571D01*
X142613142Y-84806000D01*
X142613142Y-85020285D01*
X142648857Y-85191714D01*
X142684571Y-85277428D01*
X142720285Y-85320285D01*
X142791714Y-85363142D01*
X142863142Y-85363142D01*
X142934571Y-85320285D01*
X142970285Y-85277428D01*
X143006000Y-85191714D01*
X143041714Y-85020285D01*
X143041714Y-84806000D01*
X143006000Y-84634571D01*
X142970285Y-84548857D01*
X142934571Y-84506000D01*
X142863142Y-84463142D01*
X141720285Y-85020285D02*
X141148857Y-85020285D01*
X139827428Y-84506000D02*
X139898857Y-84463142D01*
X140006000Y-84463142D01*
X140113142Y-84506000D01*
X140184571Y-84591714D01*
X140220285Y-84677428D01*
X140256000Y-84848857D01*
X140256000Y-84977428D01*
X140220285Y-85148857D01*
X140184571Y-85234571D01*
X140113142Y-85320285D01*
X140006000Y-85363142D01*
X139934571Y-85363142D01*
X139827428Y-85320285D01*
X139791714Y-85277428D01*
X139791714Y-84977428D01*
X139934571Y-84977428D01*
X139470285Y-85363142D02*
X139470285Y-84463142D01*
X139041714Y-85363142D01*
X139041714Y-84463142D01*
X138684571Y-85363142D02*
X138684571Y-84463142D01*
X138506000Y-84463142D01*
X138398857Y-84506000D01*
X138327428Y-84591714D01*
X138291714Y-84677428D01*
X138256000Y-84848857D01*
X138256000Y-84977428D01*
X138291714Y-85148857D01*
X138327428Y-85234571D01*
X138398857Y-85320285D01*
X138506000Y-85363142D01*
X138684571Y-85363142D01*
X120863142Y-97734571D02*
X121763142Y-97984571D01*
X120863142Y-98234571D01*
X121763142Y-98484571D02*
X120863142Y-98484571D01*
X121763142Y-98841714D02*
X120863142Y-98841714D01*
X121763142Y-99270285D01*
X120863142Y-99270285D01*
X132008380Y-75022666D02*
X131008380Y-75022666D01*
X131008380Y-75260761D01*
X131056000Y-75403619D01*
X131151238Y-75498857D01*
X131246476Y-75546476D01*
X131436952Y-75594095D01*
X131579809Y-75594095D01*
X131770285Y-75546476D01*
X131865523Y-75498857D01*
X131960761Y-75403619D01*
X132008380Y-75260761D01*
X132008380Y-75022666D01*
X132008380Y-76022666D02*
X131341714Y-76022666D01*
X131008380Y-76022666D02*
X131056000Y-75975047D01*
X131103619Y-76022666D01*
X131056000Y-76070285D01*
X131008380Y-76022666D01*
X131103619Y-76022666D01*
X131341714Y-76927428D02*
X132151238Y-76927428D01*
X132246476Y-76879809D01*
X132294095Y-76832190D01*
X132341714Y-76736952D01*
X132341714Y-76594095D01*
X132294095Y-76498857D01*
X131960761Y-76927428D02*
X132008380Y-76832190D01*
X132008380Y-76641714D01*
X131960761Y-76546476D01*
X131913142Y-76498857D01*
X131817904Y-76451238D01*
X131532190Y-76451238D01*
X131436952Y-76498857D01*
X131389333Y-76546476D01*
X131341714Y-76641714D01*
X131341714Y-76832190D01*
X131389333Y-76927428D01*
X132008380Y-77403619D02*
X131341714Y-77403619D01*
X131008380Y-77403619D02*
X131056000Y-77356000D01*
X131103619Y-77403619D01*
X131056000Y-77451238D01*
X131008380Y-77403619D01*
X131103619Y-77403619D01*
X131341714Y-77736952D02*
X131341714Y-78117904D01*
X131008380Y-77879809D02*
X131865523Y-77879809D01*
X131960761Y-77927428D01*
X132008380Y-78022666D01*
X132008380Y-78117904D01*
X132008380Y-78879809D02*
X131484571Y-78879809D01*
X131389333Y-78832190D01*
X131341714Y-78736952D01*
X131341714Y-78546476D01*
X131389333Y-78451238D01*
X131960761Y-78879809D02*
X132008380Y-78784571D01*
X132008380Y-78546476D01*
X131960761Y-78451238D01*
X131865523Y-78403619D01*
X131770285Y-78403619D01*
X131675047Y-78451238D01*
X131627428Y-78546476D01*
X131627428Y-78784571D01*
X131579809Y-78879809D01*
X132008380Y-79498857D02*
X131960761Y-79403619D01*
X131865523Y-79356000D01*
X131008380Y-79356000D01*
X132103619Y-79641714D02*
X132103619Y-80403619D01*
X132008380Y-80641714D02*
X131008380Y-80641714D01*
X132008380Y-81117904D02*
X131008380Y-81117904D01*
X132008380Y-81689333D01*
X131008380Y-81689333D01*
D10*
X147517904Y-74598380D02*
X146946476Y-74598380D01*
X147232190Y-75598380D02*
X147232190Y-74598380D01*
X146708380Y-74598380D02*
X146041714Y-75598380D01*
X146041714Y-74598380D02*
X146708380Y-75598380D01*
X146922666Y-78818380D02*
X147256000Y-78342190D01*
X147494095Y-78818380D02*
X147494095Y-77818380D01*
X147113142Y-77818380D01*
X147017904Y-77866000D01*
X146970285Y-77913619D01*
X146922666Y-78008857D01*
X146922666Y-78151714D01*
X146970285Y-78246952D01*
X147017904Y-78294571D01*
X147113142Y-78342190D01*
X147494095Y-78342190D01*
X146589333Y-77818380D02*
X145922666Y-78818380D01*
X145922666Y-77818380D02*
X146589333Y-78818380D01*
D11*
%TO.C,JP5*%
X131189333Y-71308380D02*
X131189333Y-72022666D01*
X131236952Y-72165523D01*
X131332190Y-72260761D01*
X131475047Y-72308380D01*
X131570285Y-72308380D01*
X130713142Y-72308380D02*
X130713142Y-71308380D01*
X130332190Y-71308380D01*
X130236952Y-71356000D01*
X130189333Y-71403619D01*
X130141714Y-71498857D01*
X130141714Y-71641714D01*
X130189333Y-71736952D01*
X130236952Y-71784571D01*
X130332190Y-71832190D01*
X130713142Y-71832190D01*
X129236952Y-71308380D02*
X129713142Y-71308380D01*
X129760761Y-71784571D01*
X129713142Y-71736952D01*
X129617904Y-71689333D01*
X129379809Y-71689333D01*
X129284571Y-71736952D01*
X129236952Y-71784571D01*
X129189333Y-71879809D01*
X129189333Y-72117904D01*
X129236952Y-72213142D01*
X129284571Y-72260761D01*
X129379809Y-72308380D01*
X129617904Y-72308380D01*
X129713142Y-72260761D01*
X129760761Y-72213142D01*
%TO.C,JP4*%
X123058380Y-91972666D02*
X123772666Y-91972666D01*
X123915523Y-91925047D01*
X124010761Y-91829809D01*
X124058380Y-91686952D01*
X124058380Y-91591714D01*
X124058380Y-92448857D02*
X123058380Y-92448857D01*
X123058380Y-92829809D01*
X123106000Y-92925047D01*
X123153619Y-92972666D01*
X123248857Y-93020285D01*
X123391714Y-93020285D01*
X123486952Y-92972666D01*
X123534571Y-92925047D01*
X123582190Y-92829809D01*
X123582190Y-92448857D01*
X123391714Y-93877428D02*
X124058380Y-93877428D01*
X123010761Y-93639333D02*
X123725047Y-93401238D01*
X123725047Y-94020285D01*
%TO.C,JP2*%
X123108380Y-95722666D02*
X123822666Y-95722666D01*
X123965523Y-95675047D01*
X124060761Y-95579809D01*
X124108380Y-95436952D01*
X124108380Y-95341714D01*
X124108380Y-96198857D02*
X123108380Y-96198857D01*
X123108380Y-96579809D01*
X123156000Y-96675047D01*
X123203619Y-96722666D01*
X123298857Y-96770285D01*
X123441714Y-96770285D01*
X123536952Y-96722666D01*
X123584571Y-96675047D01*
X123632190Y-96579809D01*
X123632190Y-96198857D01*
X123203619Y-97151238D02*
X123156000Y-97198857D01*
X123108380Y-97294095D01*
X123108380Y-97532190D01*
X123156000Y-97627428D01*
X123203619Y-97675047D01*
X123298857Y-97722666D01*
X123394095Y-97722666D01*
X123536952Y-97675047D01*
X124108380Y-97103619D01*
X124108380Y-97722666D01*
%TO.C,JP3*%
X140289333Y-82108380D02*
X140289333Y-82822666D01*
X140336952Y-82965523D01*
X140432190Y-83060761D01*
X140575047Y-83108380D01*
X140670285Y-83108380D01*
X139813142Y-83108380D02*
X139813142Y-82108380D01*
X139432190Y-82108380D01*
X139336952Y-82156000D01*
X139289333Y-82203619D01*
X139241714Y-82298857D01*
X139241714Y-82441714D01*
X139289333Y-82536952D01*
X139336952Y-82584571D01*
X139432190Y-82632190D01*
X139813142Y-82632190D01*
X138908380Y-82108380D02*
X138289333Y-82108380D01*
X138622666Y-82489333D01*
X138479809Y-82489333D01*
X138384571Y-82536952D01*
X138336952Y-82584571D01*
X138289333Y-82679809D01*
X138289333Y-82917904D01*
X138336952Y-83013142D01*
X138384571Y-83060761D01*
X138479809Y-83108380D01*
X138765523Y-83108380D01*
X138860761Y-83060761D01*
X138908380Y-83013142D01*
D12*
%TO.C,JP5*%
X131706000Y-72556000D02*
X128906000Y-72556000D01*
X128906000Y-74556000D02*
X131706000Y-74556000D01*
X132356000Y-73856000D02*
X132356000Y-73256000D01*
X128256000Y-73256000D02*
X128256000Y-73856000D01*
X128956000Y-72556000D02*
G75*
G03*
X128256000Y-73256000I-1J-699999D01*
G01*
X132356000Y-73256000D02*
G75*
G03*
X131656000Y-72556000I-699999J1D01*
G01*
X128256000Y-73856000D02*
G75*
G03*
X128956000Y-74556000I699999J-1D01*
G01*
X131656000Y-74556000D02*
G75*
G03*
X132356000Y-73856000I1J699999D01*
G01*
%TO.C,JP4*%
X118556000Y-92506000D02*
X118556000Y-93106000D01*
X119206000Y-93806000D02*
X122006000Y-93806000D01*
X122656000Y-93106000D02*
X122656000Y-92506000D01*
X122006000Y-91806000D02*
X119206000Y-91806000D01*
X119256000Y-91806000D02*
G75*
G03*
X118556000Y-92506000I-1J-699999D01*
G01*
X121956000Y-93806000D02*
G75*
G03*
X122656000Y-93106000I1J699999D01*
G01*
X122656000Y-92506000D02*
G75*
G03*
X121956000Y-91806000I-699999J1D01*
G01*
X118556000Y-93106000D02*
G75*
G03*
X119256000Y-93806000I699999J-1D01*
G01*
%TO.C,JP2*%
X122656000Y-96856000D02*
X122656000Y-96256000D01*
X118556000Y-96256000D02*
X118556000Y-96856000D01*
X119206000Y-97556000D02*
X122006000Y-97556000D01*
X122006000Y-95556000D02*
X119206000Y-95556000D01*
X119256000Y-95556000D02*
G75*
G03*
X118556000Y-96256000I-1J-699999D01*
G01*
X122656000Y-96256000D02*
G75*
G03*
X121956000Y-95556000I-699999J1D01*
G01*
X121956000Y-97556000D02*
G75*
G03*
X122656000Y-96856000I1J699999D01*
G01*
X118556000Y-96856000D02*
G75*
G03*
X119256000Y-97556000I699999J-1D01*
G01*
%TO.C,JP3*%
X141656000Y-83556000D02*
X143056000Y-83556000D01*
X143056000Y-81556000D02*
X141656000Y-81556000D01*
X140956000Y-82256000D02*
X140956000Y-82856000D01*
X143756000Y-82856000D02*
X143756000Y-82256000D01*
X140956000Y-82856000D02*
G75*
G03*
X141656000Y-83556000I699999J-1D01*
G01*
X143756000Y-82256000D02*
G75*
G03*
X143056000Y-81556000I-699999J1D01*
G01*
X143056000Y-83556000D02*
G75*
G03*
X143756000Y-82856000I1J699999D01*
G01*
X141656000Y-81556000D02*
G75*
G03*
X140956000Y-82256000I-1J-699999D01*
G01*
%TD*%
M02*
