%TF.GenerationSoftware,KiCad,Pcbnew,(6.0.1)*%
%TF.CreationDate,2022-02-04T15:15:15+01:00*%
%TF.ProjectId,WLED_ESP8266_molex_microfit,574c4544-5f45-4535-9038-3236365f6d6f,rev?*%
%TF.SameCoordinates,Original*%
%TF.FileFunction,Paste,Top*%
%TF.FilePolarity,Positive*%
%FSLAX46Y46*%
G04 Gerber Fmt 4.6, Leading zero omitted, Abs format (unit mm)*
G04 Created by KiCad (PCBNEW (6.0.1)) date 2022-02-04 15:15:15*
%MOMM*%
%LPD*%
G01*
G04 APERTURE LIST*
G04 Aperture macros list*
%AMRoundRect*
0 Rectangle with rounded corners*
0 $1 Rounding radius*
0 $2 $3 $4 $5 $6 $7 $8 $9 X,Y pos of 4 corners*
0 Add a 4 corners polygon primitive as box body*
4,1,4,$2,$3,$4,$5,$6,$7,$8,$9,$2,$3,0*
0 Add four circle primitives for the rounded corners*
1,1,$1+$1,$2,$3*
1,1,$1+$1,$4,$5*
1,1,$1+$1,$6,$7*
1,1,$1+$1,$8,$9*
0 Add four rect primitives between the rounded corners*
20,1,$1+$1,$2,$3,$4,$5,0*
20,1,$1+$1,$4,$5,$6,$7,0*
20,1,$1+$1,$6,$7,$8,$9,0*
20,1,$1+$1,$8,$9,$2,$3,0*%
G04 Aperture macros list end*
%ADD10C,0.010000*%
%ADD11R,2.200000X1.500000*%
%ADD12R,2.500000X3.300000*%
%ADD13RoundRect,0.237500X0.237500X-0.300000X0.237500X0.300000X-0.237500X0.300000X-0.237500X-0.300000X0*%
%ADD14RoundRect,0.250000X-0.650000X0.412500X-0.650000X-0.412500X0.650000X-0.412500X0.650000X0.412500X0*%
%ADD15RoundRect,0.250000X0.475000X-0.250000X0.475000X0.250000X-0.475000X0.250000X-0.475000X-0.250000X0*%
%ADD16RoundRect,0.237500X0.300000X0.237500X-0.300000X0.237500X-0.300000X-0.237500X0.300000X-0.237500X0*%
%ADD17RoundRect,0.160000X-0.197500X-0.160000X0.197500X-0.160000X0.197500X0.160000X-0.197500X0.160000X0*%
%ADD18RoundRect,0.155000X0.155000X-0.212500X0.155000X0.212500X-0.155000X0.212500X-0.155000X-0.212500X0*%
%ADD19RoundRect,0.237500X0.237500X-0.250000X0.237500X0.250000X-0.237500X0.250000X-0.237500X-0.250000X0*%
%ADD20R,0.300000X1.600000*%
%ADD21RoundRect,0.250001X-0.462499X-0.624999X0.462499X-0.624999X0.462499X0.624999X-0.462499X0.624999X0*%
%ADD22RoundRect,0.237500X-0.300000X-0.237500X0.300000X-0.237500X0.300000X0.237500X-0.300000X0.237500X0*%
%ADD23RoundRect,0.160000X0.160000X-0.197500X0.160000X0.197500X-0.160000X0.197500X-0.160000X-0.197500X0*%
%ADD24RoundRect,0.237500X-0.237500X0.250000X-0.237500X-0.250000X0.237500X-0.250000X0.237500X0.250000X0*%
%ADD25R,2.500000X1.000000*%
%ADD26R,1.000000X1.800000*%
%ADD27R,0.450000X1.380000*%
%ADD28R,1.000000X1.900000*%
%ADD29R,1.650000X1.300000*%
%ADD30R,1.425000X1.550000*%
%ADD31R,1.800000X1.900000*%
%ADD32RoundRect,0.250000X-0.450000X0.262500X-0.450000X-0.262500X0.450000X-0.262500X0.450000X0.262500X0*%
%ADD33RoundRect,0.250000X-0.412500X-0.650000X0.412500X-0.650000X0.412500X0.650000X-0.412500X0.650000X0*%
%ADD34RoundRect,0.237500X-0.250000X-0.237500X0.250000X-0.237500X0.250000X0.237500X-0.250000X0.237500X0*%
%ADD35RoundRect,0.250000X-0.450000X0.350000X-0.450000X-0.350000X0.450000X-0.350000X0.450000X0.350000X0*%
%ADD36RoundRect,0.160000X-0.160000X0.197500X-0.160000X-0.197500X0.160000X-0.197500X0.160000X0.197500X0*%
%ADD37RoundRect,0.160000X0.197500X0.160000X-0.197500X0.160000X-0.197500X-0.160000X0.197500X-0.160000X0*%
%ADD38RoundRect,0.150000X0.587500X0.150000X-0.587500X0.150000X-0.587500X-0.150000X0.587500X-0.150000X0*%
%ADD39RoundRect,0.237500X-0.237500X0.300000X-0.237500X-0.300000X0.237500X-0.300000X0.237500X0.300000X0*%
%ADD40RoundRect,0.155000X-0.212500X-0.155000X0.212500X-0.155000X0.212500X0.155000X-0.212500X0.155000X0*%
%ADD41RoundRect,0.150000X0.150000X-0.587500X0.150000X0.587500X-0.150000X0.587500X-0.150000X-0.587500X0*%
%ADD42RoundRect,0.250000X-0.475000X0.250000X-0.475000X-0.250000X0.475000X-0.250000X0.475000X0.250000X0*%
%ADD43RoundRect,0.250000X0.450000X-0.350000X0.450000X0.350000X-0.450000X0.350000X-0.450000X-0.350000X0*%
G04 APERTURE END LIST*
D10*
%TO.C,U2*%
X135406000Y-121756000D02*
X137806000Y-121756000D01*
X137806000Y-121756000D02*
X137806000Y-124856000D01*
X137806000Y-124856000D02*
X135406000Y-124856000D01*
X135406000Y-124856000D02*
X135406000Y-121756000D01*
G36*
X137806000Y-124856000D02*
G01*
X135406000Y-124856000D01*
X135406000Y-121756000D01*
X137806000Y-121756000D01*
X137806000Y-124856000D01*
G37*
X137806000Y-124856000D02*
X135406000Y-124856000D01*
X135406000Y-121756000D01*
X137806000Y-121756000D01*
X137806000Y-124856000D01*
X132656000Y-121176000D02*
X134806000Y-121176000D01*
X134806000Y-121176000D02*
X134806000Y-121626000D01*
X134806000Y-121626000D02*
X132656000Y-121626000D01*
X132656000Y-121626000D02*
X132656000Y-121176000D01*
G36*
X134806000Y-121626000D02*
G01*
X132656000Y-121626000D01*
X132656000Y-121176000D01*
X134806000Y-121176000D01*
X134806000Y-121626000D01*
G37*
X134806000Y-121626000D02*
X132656000Y-121626000D01*
X132656000Y-121176000D01*
X134806000Y-121176000D01*
X134806000Y-121626000D01*
X132656000Y-122446000D02*
X134806000Y-122446000D01*
X134806000Y-122446000D02*
X134806000Y-122896000D01*
X134806000Y-122896000D02*
X132656000Y-122896000D01*
X132656000Y-122896000D02*
X132656000Y-122446000D01*
G36*
X134806000Y-122896000D02*
G01*
X132656000Y-122896000D01*
X132656000Y-122446000D01*
X134806000Y-122446000D01*
X134806000Y-122896000D01*
G37*
X134806000Y-122896000D02*
X132656000Y-122896000D01*
X132656000Y-122446000D01*
X134806000Y-122446000D01*
X134806000Y-122896000D01*
X132656000Y-123716000D02*
X134806000Y-123716000D01*
X134806000Y-123716000D02*
X134806000Y-124166000D01*
X134806000Y-124166000D02*
X132656000Y-124166000D01*
X132656000Y-124166000D02*
X132656000Y-123716000D01*
G36*
X134806000Y-124166000D02*
G01*
X132656000Y-124166000D01*
X132656000Y-123716000D01*
X134806000Y-123716000D01*
X134806000Y-124166000D01*
G37*
X134806000Y-124166000D02*
X132656000Y-124166000D01*
X132656000Y-123716000D01*
X134806000Y-123716000D01*
X134806000Y-124166000D01*
X132656000Y-124986000D02*
X134806000Y-124986000D01*
X134806000Y-124986000D02*
X134806000Y-125436000D01*
X134806000Y-125436000D02*
X132656000Y-125436000D01*
X132656000Y-125436000D02*
X132656000Y-124986000D01*
G36*
X134806000Y-125436000D02*
G01*
X132656000Y-125436000D01*
X132656000Y-124986000D01*
X134806000Y-124986000D01*
X134806000Y-125436000D01*
G37*
X134806000Y-125436000D02*
X132656000Y-125436000D01*
X132656000Y-124986000D01*
X134806000Y-124986000D01*
X134806000Y-125436000D01*
X138406000Y-121176000D02*
X140556000Y-121176000D01*
X140556000Y-121176000D02*
X140556000Y-121626000D01*
X140556000Y-121626000D02*
X138406000Y-121626000D01*
X138406000Y-121626000D02*
X138406000Y-121176000D01*
G36*
X140556000Y-121626000D02*
G01*
X138406000Y-121626000D01*
X138406000Y-121176000D01*
X140556000Y-121176000D01*
X140556000Y-121626000D01*
G37*
X140556000Y-121626000D02*
X138406000Y-121626000D01*
X138406000Y-121176000D01*
X140556000Y-121176000D01*
X140556000Y-121626000D01*
X138406000Y-122446000D02*
X140556000Y-122446000D01*
X140556000Y-122446000D02*
X140556000Y-122896000D01*
X140556000Y-122896000D02*
X138406000Y-122896000D01*
X138406000Y-122896000D02*
X138406000Y-122446000D01*
G36*
X140556000Y-122896000D02*
G01*
X138406000Y-122896000D01*
X138406000Y-122446000D01*
X140556000Y-122446000D01*
X140556000Y-122896000D01*
G37*
X140556000Y-122896000D02*
X138406000Y-122896000D01*
X138406000Y-122446000D01*
X140556000Y-122446000D01*
X140556000Y-122896000D01*
X138406000Y-123716000D02*
X140556000Y-123716000D01*
X140556000Y-123716000D02*
X140556000Y-124166000D01*
X140556000Y-124166000D02*
X138406000Y-124166000D01*
X138406000Y-124166000D02*
X138406000Y-123716000D01*
G36*
X140556000Y-124166000D02*
G01*
X138406000Y-124166000D01*
X138406000Y-123716000D01*
X140556000Y-123716000D01*
X140556000Y-124166000D01*
G37*
X140556000Y-124166000D02*
X138406000Y-124166000D01*
X138406000Y-123716000D01*
X140556000Y-123716000D01*
X140556000Y-124166000D01*
X138406000Y-124986000D02*
X140556000Y-124986000D01*
X140556000Y-124986000D02*
X140556000Y-125436000D01*
X140556000Y-125436000D02*
X138406000Y-125436000D01*
X138406000Y-125436000D02*
X138406000Y-124986000D01*
G36*
X140556000Y-125436000D02*
G01*
X138406000Y-125436000D01*
X138406000Y-124986000D01*
X140556000Y-124986000D01*
X140556000Y-125436000D01*
G37*
X140556000Y-125436000D02*
X138406000Y-125436000D01*
X138406000Y-124986000D01*
X140556000Y-124986000D01*
X140556000Y-125436000D01*
%TD*%
D11*
%TO.C,L1*%
X149356000Y-115856000D03*
X149356000Y-122256000D03*
%TD*%
D12*
%TO.C,D1*%
X142006000Y-115806000D03*
X135206000Y-115806000D03*
%TD*%
D13*
%TO.C,C6*%
X151856000Y-96418500D03*
X151856000Y-94693500D03*
%TD*%
D14*
%TO.C,C1*%
X126356000Y-124993500D03*
X126356000Y-128118500D03*
%TD*%
D15*
%TO.C,C11*%
X142606000Y-127506000D03*
X142606000Y-125606000D03*
%TD*%
D16*
%TO.C,C9*%
X143218500Y-91556000D03*
X141493500Y-91556000D03*
%TD*%
D17*
%TO.C,R13*%
X153758500Y-73456000D03*
X154953500Y-73456000D03*
%TD*%
D18*
%TO.C,C3*%
X132606000Y-128373500D03*
X132606000Y-127238500D03*
%TD*%
D14*
%TO.C,C2*%
X128856000Y-124993500D03*
X128856000Y-128118500D03*
%TD*%
D19*
%TO.C,R6*%
X150106000Y-127718500D03*
X150106000Y-125893500D03*
%TD*%
D17*
%TO.C,R17*%
X137258500Y-96056000D03*
X138453500Y-96056000D03*
%TD*%
D20*
%TO.C,U3*%
X152831000Y-77856000D03*
X152181000Y-77856000D03*
X151531000Y-77856000D03*
X150881000Y-77856000D03*
X150881000Y-81256000D03*
X151531000Y-81256000D03*
X152181000Y-81256000D03*
X152831000Y-81256000D03*
%TD*%
D21*
%TO.C,F1*%
X122118500Y-121806000D03*
X125093500Y-121806000D03*
%TD*%
D22*
%TO.C,C7*%
X152493500Y-84056000D03*
X154218500Y-84056000D03*
%TD*%
D23*
%TO.C,R16*%
X150606000Y-84903500D03*
X150606000Y-83708500D03*
%TD*%
D24*
%TO.C,R7*%
X155856000Y-95143500D03*
X155856000Y-96968500D03*
%TD*%
D25*
%TO.C,U1*%
X131256000Y-74056000D03*
X131256000Y-76056000D03*
X131256000Y-78056000D03*
X131256000Y-80056000D03*
X131256000Y-82056000D03*
X131256000Y-84056000D03*
X131256000Y-86056000D03*
X131256000Y-88056000D03*
D26*
X133856000Y-89556000D03*
X135856000Y-89556000D03*
X137856000Y-89556000D03*
X139856000Y-89556000D03*
X141856000Y-89556000D03*
X143856000Y-89556000D03*
D25*
X146456000Y-88056000D03*
X146456000Y-86056000D03*
X146456000Y-84056000D03*
X146456000Y-82056000D03*
X146456000Y-80056000D03*
X146456000Y-78056000D03*
X146456000Y-76056000D03*
X146456000Y-74056000D03*
%TD*%
D17*
%TO.C,R12*%
X153758500Y-74406000D03*
X154953500Y-74406000D03*
%TD*%
D20*
%TO.C,U4*%
X152831000Y-87856000D03*
X152181000Y-87856000D03*
X151531000Y-87856000D03*
X150881000Y-87856000D03*
X150881000Y-91256000D03*
X151531000Y-91256000D03*
X152181000Y-91256000D03*
X152831000Y-91256000D03*
%TD*%
D27*
%TO.C,J5*%
X156056000Y-69716000D03*
X155406000Y-69716000D03*
X154756000Y-69716000D03*
X154106000Y-69716000D03*
X153456000Y-69716000D03*
D28*
X153206000Y-67056000D03*
D29*
X151381000Y-67056000D03*
D30*
X157243500Y-69631000D03*
D31*
X155906000Y-67056000D03*
D30*
X152268500Y-69631000D03*
D29*
X158131000Y-67056000D03*
%TD*%
D32*
%TO.C,R19*%
X159856000Y-68543500D03*
X159856000Y-70368500D03*
%TD*%
D33*
%TO.C,C13*%
X162293500Y-119056000D03*
X165418500Y-119056000D03*
%TD*%
D34*
%TO.C,R5*%
X151943500Y-125806000D03*
X153768500Y-125806000D03*
%TD*%
D35*
%TO.C,R2*%
X128606000Y-68556000D03*
X128606000Y-70556000D03*
%TD*%
D34*
%TO.C,R18*%
X149443500Y-75056000D03*
X151268500Y-75056000D03*
%TD*%
D24*
%TO.C,R9*%
X155856000Y-110143500D03*
X155856000Y-111968500D03*
%TD*%
D36*
%TO.C,R14*%
X149106000Y-86958500D03*
X149106000Y-88153500D03*
%TD*%
D37*
%TO.C,R10*%
X142853500Y-93056000D03*
X141658500Y-93056000D03*
%TD*%
D22*
%TO.C,C10*%
X148293500Y-99856000D03*
X150018500Y-99856000D03*
%TD*%
D38*
%TO.C,Q2*%
X138543500Y-94756000D03*
X138543500Y-92856000D03*
X136668500Y-93806000D03*
%TD*%
D39*
%TO.C,C8*%
X153356000Y-94693500D03*
X153356000Y-96418500D03*
%TD*%
D40*
%TO.C,C4*%
X140038500Y-120056000D03*
X141173500Y-120056000D03*
%TD*%
D34*
%TO.C,R4*%
X144443500Y-125556000D03*
X146268500Y-125556000D03*
%TD*%
D38*
%TO.C,Q1*%
X132793500Y-94756000D03*
X132793500Y-92856000D03*
X130918500Y-93806000D03*
%TD*%
D41*
%TO.C,U6*%
X148206000Y-97993500D03*
X150106000Y-97993500D03*
X149156000Y-96118500D03*
%TD*%
D42*
%TO.C,C15*%
X149156000Y-67906000D03*
X149156000Y-69806000D03*
%TD*%
D17*
%TO.C,R1*%
X146008500Y-91556000D03*
X147203500Y-91556000D03*
%TD*%
D24*
%TO.C,R8*%
X155856000Y-80143500D03*
X155856000Y-81968500D03*
%TD*%
D19*
%TO.C,R3*%
X131106000Y-125968500D03*
X131106000Y-124143500D03*
%TD*%
D43*
%TO.C,R11*%
X126356000Y-70556000D03*
X126356000Y-68556000D03*
%TD*%
D17*
%TO.C,R15*%
X131508500Y-96056000D03*
X132703500Y-96056000D03*
%TD*%
D33*
%TO.C,C14*%
X162293500Y-121806000D03*
X165418500Y-121806000D03*
%TD*%
D16*
%TO.C,C5*%
X154218500Y-85556000D03*
X152493500Y-85556000D03*
%TD*%
D40*
%TO.C,C12*%
X144788500Y-127556000D03*
X145923500Y-127556000D03*
%TD*%
M02*
